<?xml version="1.0" encoding="utf-8"?>
<!-- Generator: Adobe Illustrator 27.4.1, SVG Export Plug-In . SVG Version: 6.00 Build 0)  -->
<svg version="1.1" id="Ebene_2_00000134928597879479900730000013042083227841374375_"
	 xmlns="http://www.w3.org/2000/svg" xmlns:xlink="http://www.w3.org/1999/xlink" x="0px" y="0px" width="1920px" height="1080px"
	 viewBox="0 0 1920 1080" style="enable-background:new 0 0 1920 1080;" xml:space="preserve">
<style type="text/css">
	.st0{fill:none;stroke:#C9D1D9;stroke-miterlimit:10;}
	.st1{fill:#C9D1D9;}
	.st2{fill:none;stroke:#C9D1D9;stroke-width:2.8346;stroke-miterlimit:10;}
</style>
<path pointer-events="all" class="st0" d="M190.7,27h366.7c5,0,9,4,9,9v174.4c0,5-4,9-9,9H190.7c-5,0-9-4-9-9V36
	C181.7,31.1,185.8,27,190.7,27z"/>
<path pointer-events="all" class="st0" d="M639.6,27h366.7c5,0,9,4,9,9v174.4c0,5-4,9-9,9H639.6c-5,0-9-4-9-9V36
	C630.6,31.1,634.6,27,639.6,27z"/>
<path pointer-events="all" class="st0" d="M639.6,540h366.7c5,0,9,4,9,9v174.4c0,5-4,9-9,9H639.6c-5,0-9-4-9-9V549
	C630.6,544,634.6,540,639.6,540z"/>
<path pointer-events="all" class="st0" d="M639.6,828.5h366.7c5,0,9,4,9,9v174.4c0,5-4,9-9,9H639.6c-5,0-9-4-9-9V837.5
	C630.6,832.6,634.6,828.5,639.6,828.5z"/>
<path pointer-events="all" class="st0" d="M1088.4,828.5h366.7c5,0,9,4,9,9v174.4c0,5-4,9-9,9h-366.7c-5,0-9-4-9-9V837.5
	C1079.4,832.6,1083.4,828.5,1088.4,828.5z"/>
<path pointer-events="all" class="st0" d="M190.7,828.5h366.7c5,0,9,4,9,9v174.4c0,5-4,9-9,9H190.7c-5,0-9-4-9-9V837.5
	C181.7,832.6,185.8,828.5,190.7,828.5z"/>
<path pointer-events="all" class="st0" d="M639.6,283.5h366.7c5,0,9,4,9,9v174.4c0,5-4,9-9,9H639.6c-5,0-9-4-9-9V292.5
	C630.6,287.6,634.6,283.5,639.6,283.5z"/>
<path class="st1" d="M340.4,113.8V91.3h6.8c2.7,0,4.8,0.4,6.5,1.3s3,2.2,3.8,3.8s1.2,3.7,1.2,5.9c0,2.6-0.5,4.7-1.4,6.4
	s-2.3,2.9-4.1,3.8s-3.8,1.2-6.2,1.2L340.4,113.8L340.4,113.8L340.4,113.8z M343.2,111.5h3.5c6,0,8.9-3,8.9-8.9
	c0-1.8-0.3-3.4-0.9-4.7s-1.5-2.4-2.8-3.1s-3-1.1-5-1.1h-3.7V111.5L343.2,111.5L343.2,111.5z"/>
<path class="st1" d="M359.7,113.8l9.5-22.5h2.8l9.5,22.5h-3l-7.9-19.6l-7.9,19.6H359.7L359.7,113.8z M364.6,106.5v-2.3h12v2.3H364.6
	z"/>
<path class="st1" d="M386.1,113.8l-4.7-22.5h2.7l4.1,20.4l0,0l5.7-20.4h3.1l5.7,20.4l0,0l4.1-20.4h2.7l-4.7,22.5h-4.2l-5.5-20.5h0.6
	l-5.5,20.5H386.1L386.1,113.8z"/>
<path class="st1" d="M304.1,152.3l1.2-22.5h4.6l6.4,20.5h-0.6l6.4-20.5h4.6l1.2,22.5h-2.7l-1.1-20.4l0,0l-6.6,20.4h-3.1l-6.7-20.4
	l0,0l-1.1,20.4H304.1L304.1,152.3L304.1,152.3z"/>
<path class="st1" d="M337.1,152.7c-1.1,0-2.1-0.2-3-0.6s-1.5-1-1.9-1.8s-0.7-1.6-0.7-2.6s0.3-2,0.9-2.8s1.5-1.5,2.8-2.1
	s2.9-0.8,4.8-0.8h2.8l-0.3,0.3v-0.9c0-1.4-0.3-2.4-0.8-3.1s-1.4-1.1-2.7-1.1c-1.2,0-2.1,0.3-2.8,0.9s-1,1.4-1,2.5l-3-0.7
	c0.1-0.9,0.5-1.7,1-2.5s1.4-1.4,2.4-1.8s2.2-0.7,3.5-0.7s2.5,0.3,3.3,0.8s1.5,1.2,1.9,2.2s0.6,2.1,0.6,3.5v7.7
	c0,0.4,0.1,0.6,0.2,0.7s0.3,0.2,0.6,0.2h1v2.2H345c-0.7,0-1.3-0.2-1.8-0.7s-0.7-1-0.7-1.7v-1.2h0.4c-0.2,0.4-0.4,0.9-0.7,1.4
	s-0.7,0.9-1.2,1.3s-1.1,0.7-1.7,1S337.9,152.8,337.1,152.7L337.1,152.7L337.1,152.7z M337.7,150.5c0.9,0,1.7-0.2,2.4-0.6
	s1.4-1.1,1.8-2s0.7-2.1,0.7-3.6v-0.1h-2.7c-1.4,0-2.5,0.2-3.3,0.6s-1.4,0.8-1.7,1.4s-0.5,1.1-0.5,1.6s0.1,1,0.4,1.4s0.6,0.8,1.1,1
	S336.9,150.5,337.7,150.5L337.7,150.5L337.7,150.5z"/>
<path class="st1" d="M348.6,152.3l6.5-8.8l-6-8.1h3l4.6,6.4l4.5-6.4h3.2l-6.2,8.1l6.6,8.8h-3.4l-4.8-6.8l-4.9,6.8H348.6L348.6,152.3
	z"/>
<path class="st1" d="M365.8,156.4l10.2-28.9h2.6l-10.2,28.9H365.8z"/>
<path class="st1" d="M380.4,152.3l1.2-22.5h4.6l6.4,20.5H392l6.4-20.5h4.6l1.2,22.5h-2.7l-1.1-20.4l0,0l-6.6,20.4h-3.1l-6.7-20.4
	l0,0l-1.1,20.4H380.4L380.4,152.3L380.4,152.3z"/>
<path class="st1" d="M416.7,152.7c-1.7,0-3.2-0.3-4.5-0.9s-2.3-1.4-3.1-2.5s-1.3-2.4-1.6-4l3.3-0.7c0.1,1.9,0.6,3.3,1.6,4.3
	s2.4,1.5,4.2,1.5c1.1,0,2-0.2,2.8-0.6s1.4-0.9,1.7-1.5s0.6-1.4,0.6-2.3c0-1.1-0.3-2.1-1-2.6s-1.6-1-2.8-1.2l-3-0.7
	c-0.5-0.1-1.2-0.3-1.9-0.5s-1.4-0.6-2.1-1s-1.2-1-1.7-1.7s-0.7-1.7-0.7-2.8c0-1.4,0.4-2.6,1.1-3.5s1.7-1.5,2.9-2s2.5-0.6,3.8-0.6
	c1.5,0,2.9,0.3,4,0.7s2,1.2,2.7,2.1s1.1,2,1.4,3.3l-3.3,0.7c-0.1-1-0.3-1.8-0.7-2.4s-0.9-1.1-1.6-1.5s-1.6-0.5-2.6-0.5
	c-0.8,0-1.6,0.1-2.4,0.4s-1.4,0.6-1.8,1.2s-0.7,1.2-0.7,2.1s0.3,1.6,0.9,2.1s1.7,1,3.1,1.3l3,0.7c1.1,0.2,2,0.6,3,1.1s1.7,1.1,2.3,2
	s0.9,2,0.9,3.4s-0.3,2.6-1,3.6s-1.6,1.8-2.8,2.3S418.4,152.7,416.7,152.7L416.7,152.7L416.7,152.7z"/>
<path class="st1" d="M428.9,152.3v-22.5h8.1c2.6,0,4.6,0.6,5.9,1.6s2,2.6,2,4.7s-0.6,3.5-2,4.6s-3.3,1.6-6,1.6h-5.3v10L428.9,152.3
	L428.9,152.3L428.9,152.3z M431.7,140h5.3c1.6,0,2.9-0.4,3.7-1.1s1.3-1.7,1.3-2.9c0-1.1-0.4-2-1.1-2.8s-2-1.2-3.9-1.2h-5.3V140
	L431.7,140z"/>
<path class="st1" d="M764.4,135.1l9.5-22.5h2.8l9.5,22.5h-3l-7.9-19.6l-7.9,19.6H764.4z M769.3,127.7v-2.3h12v2.3H769.3z"/>
<path class="st1" d="M789.1,135.1v-16.9h2.5v3.6l-0.1-0.4c0.5-1.2,1.2-2.1,2.3-2.7s2-0.9,3-0.9c0.3,0,0.6,0,0.9,0.1s0.5,0.1,0.8,0.3
	l-0.3,2.5c-0.6-0.2-1.2-0.3-1.7-0.3c-0.3,0-0.8,0.1-1.3,0.2s-1.1,0.4-1.6,0.8s-1,1.1-1.3,1.9s-0.5,2-0.5,3.3v8.5H789.1L789.1,135.1
	L789.1,135.1z"/>
<path class="st1" d="M807,135.4c-1.4,0-2.6-0.4-3.6-1.1s-1.9-1.7-2.4-3.1s-0.9-2.9-0.9-4.7s0.3-3.4,0.9-4.7s1.4-2.3,2.4-3.1
	s2.2-1.1,3.6-1.1c1.1,0,2.2,0.3,3.3,0.8s1.9,1.5,2.5,2.8l-0.3,0.1v-10h2.6v23.5h-2.5v-3.5l0.1,0.3c-0.5,1.2-1.2,2.1-2.3,2.8
	S808.2,135.4,807,135.4L807,135.4L807,135.4z M807.7,133.2c0.9,0,1.7-0.2,2.4-0.7s1.3-1.2,1.8-2.1s0.7-2.2,0.7-3.8
	c0-2.3-0.5-3.9-1.4-5s-2.1-1.6-3.4-1.6c-1.4,0-2.5,0.6-3.4,1.7s-1.3,2.8-1.3,5c0,2.2,0.5,3.7,1.3,4.9S806.3,133.3,807.7,133.2
	L807.7,133.2L807.7,133.2z"/>
<path class="st1" d="M825.6,135.4c-1.2,0-2.2-0.3-3.1-0.8s-1.5-1.3-2-2.3s-0.7-2.2-0.7-3.6v-10.6h2.6v10.4c0,1.4,0.3,2.5,0.8,3.4
	s1.5,1.3,2.8,1.3c1,0,1.9-0.3,2.6-0.8s1.3-1.3,1.7-2.3s0.6-2.3,0.6-3.9v-8.1h2.6V135H831v-4l0.1,0.7c-0.5,1.1-1.2,1.9-2.1,2.6
	S827,135.5,825.6,135.4L825.6,135.4L825.6,135.4z"/>
<path class="st1" d="M840.1,115.3c-0.6,0-1.1-0.2-1.5-0.6s-0.6-0.9-0.6-1.5s0.2-1.1,0.6-1.6s0.9-0.6,1.5-0.6s1.1,0.2,1.6,0.6
	s0.6,0.9,0.6,1.6s-0.2,1.1-0.6,1.5S840.8,115.3,840.1,115.3z M838.8,135.1v-16.9h2.6v16.9H838.8z"/>
<path class="st1" d="M846.5,135.1v-16.9h2.5v3.8l-0.1-0.7c0.5-1,1.2-1.8,2.1-2.5s2.2-1,3.5-1c1.2,0,2.2,0.3,3.1,0.8s1.5,1.3,2,2.3
	s0.7,2.2,0.7,3.6v10.6h-2.6v-10.4c0-1.4-0.3-2.5-0.9-3.4s-1.5-1.3-2.8-1.3c-1.4,0-2.6,0.6-3.5,1.6s-1.4,2.6-1.4,4.7v8.8H846.5
	L846.5,135.1z"/>
<path class="st1" d="M872.2,135.4c-1.6,0-3-0.4-4.2-1.1s-2.2-1.8-2.8-3.1s-1-2.9-1-4.6s0.3-3.3,1-4.6s1.6-2.4,2.8-3.1
	s2.6-1.1,4.2-1.1s3,0.4,4.2,1.1s2.2,1.8,2.8,3.1s1,2.8,1,4.6s-0.3,3.3-1,4.6s-1.6,2.4-2.8,3.1S873.8,135.4,872.2,135.4z
	 M872.2,133.2c1.6,0,2.8-0.6,3.8-1.8s1.4-2.8,1.4-4.8s-0.5-3.7-1.4-4.9s-2.2-1.8-3.8-1.8s-2.8,0.6-3.8,1.8s-1.4,2.8-1.4,4.9
	c0,2.1,0.5,3.6,1.4,4.8S870.6,133.2,872.2,133.2z"/>
<path class="st1" d="M694.3,624.9v-18c-0.8,0.7-1.6,1.3-2.3,1.8s-1.5,0.9-2.4,1.2v-2.7c0.5-0.2,0.9-0.5,1.4-0.8s1.1-0.8,1.7-1.5
	c0.6-0.6,1.4-1.5,2.3-2.7h2v22.5L694.3,624.9L694.3,624.9L694.3,624.9z"/>
<path class="st1" d="M709.5,625.3c-2.7,0-4.8-1-6.2-3s-2.1-4.7-2.1-8.2c0-1.7,0.2-3.3,0.5-4.7c0.3-1.5,0.9-2.8,1.6-3.8
	s1.6-2,2.7-2.6s2.3-0.9,3.8-0.9s2.8,0.3,3.8,0.9c1.1,0.6,2,1.4,2.6,2.3s1,1.9,1.1,2.8l-2.8,0.7c-0.1-1.3-0.5-2.4-1.3-3.3
	s-1.9-1.2-3.3-1.2c-1.1,0-1.9,0.2-2.6,0.7s-1.2,1.1-1.7,1.8s-0.7,1.6-1,2.5s-0.3,1.8-0.4,2.7s-0.1,1.7-0.1,2.4l-0.3-0.3
	c0.5-1,1.2-1.9,2.2-2.7s2.3-1.2,4-1.2c1.3,0,2.5,0.3,3.7,0.9c1.1,0.6,2,1.4,2.7,2.6c0.7,1.1,1,2.5,1,4.1c0,1.5-0.3,2.9-1,4
	s-1.5,2-2.7,2.6C712.3,625,711,625.3,709.5,625.3L709.5,625.3L709.5,625.3z M709.5,623c1.5,0,2.7-0.5,3.6-1.4s1.2-2.3,1.2-3.9
	s-0.4-3-1.2-3.9s-2-1.4-3.5-1.4s-2.8,0.5-3.7,1.4s-1.4,2.3-1.4,3.9s0.5,2.9,1.3,3.9S707.9,623.1,709.5,623L709.5,623z"/>
<path class="st1" d="M731.2,621.8l-1.7-1.7l5.8-5.8l-5.8-5.8l1.7-1.7l5.8,5.8l5.8-5.8l1.7,1.7l-5.8,5.8l5.8,5.8l-1.7,1.7L737,616
	L731.2,621.8z"/>
<path class="st1" d="M757.8,631v-23h2.5v3.5l-0.1-0.3c0.5-1.2,1.2-2.2,2.3-2.8s2.2-0.9,3.4-0.9c1.4,0,2.6,0.3,3.6,1.1
	s1.9,1.7,2.4,3.1s0.9,2.9,0.9,4.7s-0.3,3.4-0.9,4.7c-0.6,1.3-1.4,2.3-2.4,3c-1.1,0.7-2.2,1.1-3.6,1.1c-1.1,0-2.2-0.3-3.3-0.8
	s-1.9-1.5-2.5-2.8l0.2-0.1v9.5H757.8L757.8,631L757.8,631z M765.2,623.1c1.4,0,2.5-0.6,3.4-1.7c0.9-1.2,1.3-2.8,1.3-5
	s-0.5-3.7-1.3-4.9s-2-1.7-3.5-1.7c-0.9,0-1.7,0.2-2.4,0.7s-1.3,1.2-1.8,2.2s-0.7,2.2-0.7,3.8c0,2.3,0.5,3.9,1.4,5
	S763.9,623,765.2,623.1L765.2,623.1L765.2,623.1z"/>
<path class="st1" d="M784.6,625.3c-1.6,0-3-0.4-4.2-1.1c-1.2-0.7-2.2-1.8-2.8-3.1s-1-2.8-1-4.6s0.3-3.3,1-4.6s1.6-2.4,2.8-3.1
	c1.2-0.7,2.6-1.1,4.2-1.1s3,0.4,4.2,1.1c1.2,0.7,2.2,1.8,2.8,3.1s1,2.8,1,4.6s-0.3,3.3-1,4.6s-1.6,2.4-2.8,3.1
	C787.6,624.9,786.2,625.3,784.6,625.3z M784.6,623.1c1.6,0,2.8-0.6,3.8-1.8s1.4-2.8,1.4-4.8s-0.5-3.7-1.4-4.9s-2.2-1.8-3.8-1.8
	s-2.8,0.6-3.8,1.8c-0.9,1.2-1.4,2.8-1.4,4.9s0.5,3.7,1.4,4.8S783,623.1,784.6,623.1z"/>
<path class="st1" d="M799.6,624.9l-4.7-16.9h2.8l4,15.6h-0.5l4-15.6h3.4l4.1,15.7h-0.6l4-15.7h2.8l-4.7,16.9h-3.7l-3.9-15.1h0.5
	l-3.9,15.1H799.6L799.6,624.9L799.6,624.9z"/>
<path class="st1" d="M829,625.3c-1.6,0-3-0.3-4.2-1.1s-2.1-1.7-2.7-3c-0.6-1.3-1-2.9-1-4.7s0.3-3.4,1-4.7s1.5-2.3,2.7-3.1
	s2.5-1.1,4.1-1.1c0.9,0,1.8,0.1,2.7,0.4c0.9,0.3,1.7,0.8,2.5,1.5c0.7,0.7,1.3,1.7,1.8,2.9s0.7,2.8,0.7,4.7h-13.7V615h11.4l-0.7,1
	c-0.1-1.5-0.3-2.7-0.7-3.6s-1-1.5-1.7-2c-0.7-0.4-1.4-0.6-2.3-0.6c-1,0-1.9,0.3-2.6,0.8s-1.3,1.3-1.7,2.3s-0.6,2.2-0.6,3.6
	c0,2.1,0.4,3.8,1.3,4.9s2.1,1.7,3.7,1.7c1.1,0,2.1-0.3,2.9-0.9s1.3-1.4,1.7-2.5l2.6,0.9c-0.4,1-1,1.8-1.6,2.5
	c-0.7,0.7-1.5,1.2-2.4,1.6S830.2,625.2,829,625.3L829,625.3L829,625.3z"/>
<path class="st1" d="M840.6,624.9V608h2.5v3.6l-0.1-0.4c0.5-1.2,1.2-2,2.3-2.7c1-0.6,2-0.9,3-0.9c0.3,0,0.6,0,0.9,0.1
	s0.5,0.1,0.8,0.3l-0.3,2.5c-0.6-0.2-1.2-0.3-1.7-0.3c-0.3,0-0.8,0.1-1.3,0.2c-0.5,0.1-1.1,0.4-1.6,0.8c-0.5,0.4-1,1.1-1.3,1.9
	s-0.5,2-0.5,3.3v8.5L840.6,624.9L840.6,624.9L840.6,624.9z"/>
<path class="st1" d="M867.4,625.3c-1.2,0-2.3-0.2-3.3-0.6s-1.8-1-2.5-1.8s-1.1-1.9-1.3-3.1l2.8-0.5c0.1,1.3,0.6,2.3,1.3,3s1.8,1,3,1
	s2.1-0.3,2.8-0.9s1.1-1.3,1.1-2.2c0-0.7-0.3-1.3-0.7-1.7s-1.2-0.7-2.2-0.9l-2-0.4c-0.5-0.1-1.1-0.3-1.7-0.5s-1.2-0.5-1.7-0.8
	s-0.9-0.8-1.2-1.3s-0.5-1.2-0.5-2c0-1.1,0.3-2,0.9-2.7c0.6-0.7,1.3-1.2,2.3-1.6s2-0.5,3.1-0.5c1.2,0,2.3,0.2,3.2,0.6
	s1.6,0.9,2.2,1.6s0.9,1.5,1.1,2.5l-2.9,0.6c-0.1-0.6-0.3-1.2-0.5-1.7s-0.6-0.8-1.2-1.1s-1.2-0.4-2-0.4c-1,0-1.8,0.2-2.5,0.6
	s-1.1,1-1.1,1.9c0,0.5,0.1,0.9,0.3,1.2s0.6,0.6,1.1,0.8s1.1,0.4,1.8,0.5l2.1,0.5c0.9,0.2,1.7,0.5,2.4,0.8s1.3,0.8,1.8,1.4
	s0.7,1.4,0.7,2.4c0,1.1-0.3,2.1-0.8,2.9s-1.3,1.4-2.3,1.9S868.7,625.3,867.4,625.3L867.4,625.3L867.4,625.3z"/>
<path class="st1" d="M883.5,625.3c-1.2,0-2.2-0.3-3.1-0.8s-1.5-1.3-2-2.3s-0.7-2.2-0.7-3.6V608h2.6v10.5c0,1.4,0.3,2.5,0.8,3.4
	s1.5,1.3,2.8,1.3c1,0,1.9-0.3,2.6-0.8s1.3-1.3,1.7-2.3s0.6-2.3,0.6-3.9v-8h2.6V625h-2.5v-4l0.1,0.7c-0.5,1.1-1.2,1.9-2.1,2.6
	S884.9,625.3,883.5,625.3L883.5,625.3L883.5,625.3z"/>
<path class="st1" d="M896.6,631v-23h2.5v3.5l-0.1-0.3c0.5-1.2,1.2-2.2,2.3-2.8s2.2-0.9,3.4-0.9c1.4,0,2.6,0.3,3.6,1.1
	s1.9,1.7,2.4,3.1s0.9,2.9,0.9,4.7s-0.3,3.4-0.9,4.7c-0.6,1.3-1.4,2.3-2.4,3c-1.1,0.7-2.2,1.1-3.6,1.1c-1.1,0-2.2-0.3-3.3-0.8
	s-1.9-1.5-2.5-2.8l0.2-0.1v9.5H896.6L896.6,631L896.6,631z M904,623.1c1.4,0,2.5-0.6,3.4-1.7c0.9-1.2,1.3-2.8,1.3-5
	s-0.5-3.7-1.3-4.9s-2-1.7-3.5-1.7c-0.9,0-1.7,0.2-2.4,0.7s-1.3,1.2-1.8,2.2s-0.7,2.2-0.7,3.8c0,2.3,0.5,3.9,1.4,5
	S902.7,623,904,623.1L904,623.1L904,623.1z"/>
<path class="st1" d="M915.6,631v-23h2.5v3.5l-0.1-0.3c0.5-1.2,1.2-2.2,2.3-2.8s2.2-0.9,3.4-0.9c1.4,0,2.6,0.3,3.6,1.1
	s1.9,1.7,2.4,3.1s0.9,2.9,0.9,4.7s-0.3,3.4-0.9,4.7c-0.6,1.3-1.4,2.3-2.4,3c-1.1,0.7-2.2,1.1-3.6,1.1c-1.1,0-2.2-0.3-3.3-0.8
	s-1.9-1.5-2.5-2.8l0.2-0.1v9.5H915.6L915.6,631L915.6,631z M923,623.1c1.4,0,2.5-0.6,3.4-1.7c0.9-1.2,1.3-2.8,1.3-5
	s-0.5-3.7-1.3-4.9s-2-1.7-3.5-1.7c-0.9,0-1.7,0.2-2.4,0.7s-1.3,1.2-1.8,2.2s-0.7,2.2-0.7,3.8c0,2.3,0.5,3.9,1.4,5
	S921.6,623,923,623.1L923,623.1L923,623.1z"/>
<path class="st1" d="M937,624.9c-0.7,0-1.2-0.2-1.8-0.7s-0.7-1-0.7-1.7v-21.1h2.6v20.4c0,0.3,0.1,0.6,0.2,0.7s0.3,0.2,0.6,0.2h1.6
	v2.2L937,624.9L937,624.9L937,624.9z"/>
<path class="st1" d="M943,631v-2.2h2.6c0.2,0,0.3-0.1,0.5-0.2c0.1-0.1,0.2-0.3,0.3-0.6l1.2-3.5l-0.3,1.2l-6.8-17.8h3l5.4,15.6
	l-0.6-0.1l5.3-15.4h2.9l-8,21.1c-0.2,0.6-0.6,1-1.1,1.4s-1.1,0.5-1.6,0.5H943L943,631L943,631z"/>
<path class="st1" d="M761.7,663.4v-18c-0.8,0.7-1.6,1.3-2.3,1.8s-1.5,0.9-2.4,1.2v-2.7c0.5-0.2,0.9-0.5,1.4-0.8s1.1-0.8,1.7-1.5
	c0.6-0.6,1.4-1.5,2.3-2.7h2v22.5L761.7,663.4L761.7,663.4L761.7,663.4z"/>
<path class="st1" d="M768.2,663.4v-1.9l7.9-6.7c1.1-0.9,2-1.8,2.6-2.5s1.2-1.5,1.5-2.3s0.5-1.6,0.5-2.6s-0.2-1.9-0.5-2.6
	s-0.9-1.2-1.6-1.6s-1.5-0.5-2.5-0.5c-1.1,0-2,0.2-2.7,0.7s-1.2,1.1-1.5,1.8s-0.5,1.6-0.6,2.5l-3-0.9c0.1-1,0.4-2,1.1-3
	s1.6-1.8,2.7-2.4s2.5-1,4-1c0.9,0,1.8,0.1,2.7,0.4s1.7,0.6,2.4,1.2s1.3,1.2,1.8,2.2c0.5,0.9,0.7,2,0.7,3.2c0,1.8-0.5,3.4-1.4,4.8
	s-2.3,2.8-4.1,4.2l-6.1,5l-2-0.4h14.1v2.4L768.2,663.4L768.2,663.4L768.2,663.4z"/>
<path class="st1" d="M803,663.4l-8.6-22.5h3l7.4,20.6h-0.6l7.3-20.6h3l-8.6,22.5H803L803,663.4L803,663.4z"/>
<path class="st1" d="M828,655.6c-0.7,0-1.2-0.2-1.7-0.7s-0.7-1-0.7-1.7s0.2-1.2,0.7-1.7s1-0.7,1.7-0.7s1.2,0.2,1.7,0.7
	s0.7,1,0.7,1.7s-0.2,1.2-0.7,1.7S828.7,655.6,828,655.6z"/>
<path class="st1" d="M850,663.8c-1.3,0-2.6-0.3-3.8-0.8s-2.2-1.3-3-2.4c-0.8-1-1.2-2.3-1.4-3.8l2.8-0.9c0.1,1.6,0.6,2.9,1.4,4
	c0.9,1.1,2.1,1.6,3.7,1.6c1,0,1.9-0.3,2.7-0.7s1.4-1.2,1.8-2s0.7-1.8,0.7-3c0-1.7-0.5-3-1.4-3.9s-2.2-1.3-3.6-1.3
	c-1.2,0-2.2,0.3-3,0.9c-0.7,0.6-1.2,1.3-1.6,2.1l-2.7-0.3l0.9-12.6h12.9v2.4h-10.6l-0.6,8.5l-0.8-0.1c0.6-1,1.3-1.8,2.3-2.4
	s2.2-1,3.7-1s2.6,0.3,3.7,0.9s2,1.5,2.6,2.6s1,2.4,1,3.9c0,1.6-0.3,3-1.1,4.3s-1.7,2.2-2.9,2.8s-2.5,1-3.9,1L850,663.8L850,663.8z"
	/>
<path class="st1" d="M867.7,663.4l9.5-22.5h2.8l9.5,22.5h-3l-7.9-19.6l-7.9,19.6H867.7z M872.6,656v-2.3h12v2.3H872.6z"/>
<path class="st1" d="M243.8,896.5c-1.7,0-3.2-0.3-4.5-0.9s-2.3-1.4-3.1-2.5s-1.3-2.4-1.6-4l3.3-0.7c0.1,1.9,0.6,3.3,1.6,4.3
	s2.4,1.5,4.2,1.5c1.1,0,2-0.2,2.8-0.5s1.4-0.9,1.7-1.5c0.4-0.6,0.6-1.4,0.6-2.3c0-1.2-0.3-2-1-2.6s-1.6-1-2.8-1.2l-2.9-0.7
	c-0.6-0.1-1.2-0.3-1.9-0.5s-1.4-0.5-2.1-1c-0.7-0.4-1.2-1-1.7-1.7s-0.7-1.7-0.7-2.8c0-1.4,0.4-2.6,1.1-3.5s1.7-1.6,2.9-2
	s2.5-0.6,3.8-0.6c1.5,0,2.9,0.3,4,0.7s2,1.2,2.7,2.1s1.1,2,1.4,3.3l-3.3,0.7c-0.1-1-0.3-1.8-0.7-2.4s-0.9-1.2-1.6-1.5
	c-0.7-0.3-1.6-0.5-2.6-0.5c-0.8,0-1.6,0.1-2.4,0.4s-1.4,0.6-1.8,1.2s-0.7,1.2-0.7,2.1s0.3,1.6,0.9,2.2c0.6,0.5,1.7,1,3.1,1.3l3,0.7
	c1.1,0.3,2.1,0.6,3,1.1s1.7,1.2,2.3,2s0.9,2,0.9,3.4s-0.3,2.6-1,3.6s-1.6,1.8-2.8,2.3C246.9,896.2,245.4,896.5,243.8,896.5
	L243.8,896.5L243.8,896.5z"/>
<path class="st1" d="M257.2,876.4c-0.6,0-1.1-0.2-1.5-0.6s-0.6-0.9-0.6-1.5s0.2-1.1,0.6-1.5c0.4-0.4,0.9-0.6,1.5-0.6
	s1.1,0.2,1.6,0.6c0.4,0.4,0.6,0.9,0.6,1.5s-0.2,1.1-0.6,1.5S257.9,876.4,257.2,876.4z M255.9,896.1v-16.9h2.6v16.9H255.9
	L255.9,896.1z"/>
<path class="st1" d="M269.6,902.6c-2.5,0-4.4-0.3-5.5-1.1s-1.8-1.8-1.8-3.3c0-0.8,0.2-1.6,0.6-2.2s1.1-1.2,2.2-1.5
	c-0.4-0.3-0.7-0.5-1-1c-0.3-0.4-0.4-0.8-0.4-1.3c0-0.6,0.2-1.1,0.5-1.6c0.4-0.5,0.9-0.8,1.6-1c-0.8-0.5-1.5-1.2-2-2s-0.7-1.8-0.7-3
	s0.3-2.2,0.8-3.1s1.3-1.6,2.3-2c1-0.5,2.2-0.7,3.6-0.7s2.6,0.2,3.6,0.7s1.8,1.2,2.3,2c0.5,0.9,0.8,2,0.8,3.2s-0.3,2.2-0.8,3.1
	s-1.3,1.5-2.3,2s-2.2,0.7-3.6,0.7h-1.4c-1.3,0-2,0.4-2,1.2s0.6,1.1,1.9,1.1h3.4c1.4,0,2.4,0.2,3.2,0.5c0.8,0.3,1.4,0.7,1.9,1.2
	s0.7,1,0.9,1.6s0.2,1.1,0.2,1.6c0,1.7-0.6,2.9-1.8,3.7s-3.1,1.2-5.6,1.2L269.6,902.6L269.6,902.6z M269.6,900.5h1
	c3.1,0,4.7-0.9,4.7-2.8c0-0.8-0.3-1.4-0.8-1.9s-1.5-0.7-2.9-0.7h-2.9c-1.1,0-1.9,0.2-2.6,0.6s-1.1,1.1-1.1,2.1s0.4,1.6,1.1,2
	C266.8,900.3,268,900.5,269.6,900.5L269.6,900.5L269.6,900.5z M269.9,888.7c1.3,0,2.3-0.3,3-1s1.1-1.7,1.1-3s-0.4-2.3-1.1-3
	s-1.7-1.1-3-1.1s-2.3,0.3-3,1.1c-0.7,0.7-1.1,1.7-1.1,3s0.4,2.3,1.1,3S268.6,888.7,269.9,888.7z M272.7,880.6v-1.7
	c0-0.7,0.3-1.2,0.7-1.7s1.1-0.7,1.8-0.7h2v2.2h-1.7c-0.3,0-0.5,0.1-0.6,0.2c-0.1,0.1-0.2,0.3-0.2,0.7v1H272.7L272.7,880.6
	L272.7,880.6z"/>
<path class="st1" d="M281.2,896.1v-16.9h2.5v3.8l-0.1-0.7c0.5-1,1.1-1.8,2.1-2.5s2.1-1,3.5-1c1.2,0,2.2,0.3,3.1,0.8s1.5,1.3,2,2.3
	s0.7,2.2,0.7,3.6v10.6h-2.6v-10.5c0-1.4-0.3-2.5-0.9-3.4s-1.5-1.3-2.8-1.3c-1.4,0-2.6,0.5-3.5,1.6s-1.4,2.6-1.4,4.7v8.8L281.2,896.1
	L281.2,896.1L281.2,896.1z"/>
<path class="st1" d="M304.3,896.5c-1.1,0-2.1-0.2-3-0.6s-1.5-1-1.9-1.8s-0.7-1.6-0.7-2.5c0-1,0.3-2,0.9-2.8c0.6-0.9,1.5-1.5,2.8-2
	s2.9-0.8,4.8-0.8h2.8l-0.3,0.3v-0.9c0-1.3-0.3-2.4-0.8-3.1c-0.5-0.7-1.4-1.1-2.7-1.1c-1.2,0-2.1,0.3-2.8,0.9s-1,1.4-1,2.5l-3-0.7
	c0.1-0.9,0.5-1.7,1-2.5c0.6-0.7,1.4-1.3,2.4-1.8s2.2-0.7,3.5-0.7s2.5,0.3,3.3,0.8s1.5,1.2,1.9,2.2s0.6,2.2,0.6,3.5v7.7
	c0,0.3,0.1,0.6,0.2,0.7c0.1,0.1,0.3,0.2,0.6,0.2h1v2.2h-1.7c-0.7,0-1.3-0.2-1.8-0.7s-0.7-1-0.7-1.7v-1.2h0.4
	c-0.2,0.5-0.4,0.9-0.7,1.3c-0.3,0.5-0.7,0.9-1.2,1.2s-1.1,0.7-1.7,0.9C305.9,896.3,305.2,896.4,304.3,896.5L304.3,896.5L304.3,896.5
	z M304.9,894.3c0.9,0,1.7-0.2,2.4-0.6s1.4-1.1,1.8-2s0.7-2.1,0.7-3.6V888h-2.7c-1.4,0-2.5,0.2-3.3,0.5c-0.8,0.4-1.4,0.8-1.7,1.3
	c-0.3,0.5-0.5,1.1-0.5,1.6s0.1,1,0.4,1.4c0.2,0.4,0.6,0.8,1.1,1S304.1,894.3,304.9,894.3L304.9,894.3L304.9,894.3z"/>
<path class="st1" d="M320.1,896.1c-0.7,0-1.2-0.2-1.8-0.7s-0.7-1-0.7-1.7v-21.1h2.6V893c0,0.3,0.1,0.6,0.2,0.7
	c0.1,0.1,0.3,0.2,0.6,0.2h1.6v2.2L320.1,896.1L320.1,896.1L320.1,896.1z"/>
<path class="st1" d="M340.9,896.5c-1.6,0-3-0.3-4.1-1.1s-2-1.7-2.7-3c-0.6-1.3-0.9-2.9-0.9-4.7s0.3-3.4,0.9-4.7s1.5-2.3,2.7-3.1
	s2.5-1.1,4.1-1.1c1.2,0,2.3,0.2,3.2,0.7s1.8,1.1,2.4,1.9s1.1,1.8,1.5,3l-2.7,0.7c-0.3-1.3-0.8-2.3-1.6-3s-1.7-1.1-2.9-1.1
	c-1.5,0-2.8,0.6-3.6,1.7s-1.2,2.8-1.2,4.9s0.4,3.8,1.2,4.9s2,1.7,3.6,1.7c1.1,0,2.1-0.3,2.9-1s1.3-1.7,1.6-3l2.7,0.7
	c-0.3,0.9-0.6,1.6-1,2.3c-0.5,0.7-1,1.2-1.6,1.7s-1.3,0.8-2,1.1S341.8,896.5,340.9,896.5L340.9,896.5L340.9,896.5z"/>
<path class="st1" d="M358.8,896.5c-1.6,0-3-0.4-4.2-1.1s-2.1-1.8-2.8-3.1s-1-2.8-1-4.6s0.4-3.3,1-4.6c0.7-1.3,1.6-2.4,2.8-3.1
	c1.2-0.7,2.6-1.1,4.2-1.1s3,0.4,4.2,1.1s2.1,1.8,2.8,3.1c0.7,1.3,1,2.8,1,4.6s-0.4,3.3-1,4.6c-0.7,1.3-1.6,2.4-2.8,3.1
	S360.4,896.5,358.8,896.5z M358.8,894.3c1.6,0,2.9-0.6,3.8-1.8s1.4-2.8,1.4-4.8s-0.5-3.7-1.4-4.9s-2.2-1.8-3.8-1.8s-2.9,0.6-3.8,1.8
	s-1.4,2.8-1.4,4.9s0.5,3.7,1.4,4.8S357.2,894.3,358.8,894.3z"/>
<path class="st1" d="M370.8,896.1v-16.9h2.5v3.8l-0.1-0.7c0.5-1,1.1-1.8,2.1-2.5s2.1-1,3.5-1c1.2,0,2.2,0.3,3.1,0.8s1.5,1.3,2,2.3
	s0.7,2.2,0.7,3.6v10.6H382v-10.5c0-1.4-0.3-2.5-0.9-3.4s-1.5-1.3-2.8-1.3c-1.4,0-2.6,0.5-3.5,1.6s-1.4,2.6-1.4,4.7v8.8L370.8,896.1
	L370.8,896.1L370.8,896.1z"/>
<path class="st1" d="M395.5,896.5c-1.4,0-2.6-0.3-3.6-1.1s-1.9-1.7-2.4-3.1c-0.6-1.3-0.9-2.9-0.9-4.7s0.3-3.4,0.9-4.7s1.4-2.3,2.4-3
	s2.2-1.1,3.6-1.1c1.1,0,2.2,0.3,3.3,0.8s1.9,1.5,2.5,2.8l-0.3,0.1v-10h2.6V896h-2.5v-3.5l0.1,0.3c-0.5,1.2-1.2,2.2-2.3,2.8
	S396.7,896.5,395.5,896.5L395.5,896.5L395.5,896.5z M396.2,894.3c0.9,0,1.7-0.2,2.4-0.7s1.3-1.2,1.8-2.2s0.7-2.2,0.7-3.8
	c0-2.3-0.5-3.9-1.4-5s-2.1-1.6-3.4-1.6c-1.4,0-2.5,0.6-3.4,1.7s-1.4,2.8-1.4,4.9s0.5,3.7,1.3,4.9
	C393.6,893.7,394.8,894.3,396.2,894.3L396.2,894.3L396.2,894.3z"/>
<path class="st1" d="M410,876.4c-0.6,0-1.1-0.2-1.5-0.6c-0.4-0.4-0.6-0.9-0.6-1.5s0.2-1.1,0.6-1.5s0.9-0.6,1.5-0.6s1.1,0.2,1.6,0.6
	c0.4,0.4,0.6,0.9,0.6,1.5s-0.2,1.1-0.6,1.5S410.6,876.4,410,876.4z M408.7,896.1v-16.9h2.6v16.9H408.7z"/>
<path class="st1" d="M420.2,896.1c-0.7,0-1.2-0.2-1.8-0.7s-0.7-1-0.7-1.7v-12.4H415v-2.2h2.7v-3.5l2.6-0.6v4.1h3.3v2.2h-3.3V893
	c0,0.3,0.1,0.6,0.2,0.7c0.1,0.1,0.3,0.2,0.6,0.2h2.6v2.2L420.2,896.1L420.2,896.1L420.2,896.1z"/>
<path class="st1" d="M428.8,876.4c-0.6,0-1.1-0.2-1.5-0.6c-0.4-0.4-0.6-0.9-0.6-1.5s0.2-1.1,0.6-1.5s0.9-0.6,1.5-0.6
	s1.1,0.2,1.6,0.6c0.4,0.4,0.6,0.9,0.6,1.5s-0.2,1.1-0.6,1.5S429.4,876.4,428.8,876.4z M427.5,896.1v-16.9h2.6v16.9H427.5z"/>
<path class="st1" d="M442.1,896.5c-1.6,0-3-0.4-4.2-1.1s-2.1-1.8-2.8-3.1s-1-2.8-1-4.6s0.4-3.3,1-4.6c0.7-1.3,1.6-2.4,2.8-3.1
	c1.2-0.7,2.6-1.1,4.2-1.1s3,0.4,4.2,1.1s2.1,1.8,2.8,3.1c0.7,1.3,1,2.8,1,4.6s-0.4,3.3-1,4.6c-0.7,1.3-1.6,2.4-2.8,3.1
	S443.7,896.5,442.1,896.5z M442.1,894.3c1.6,0,2.9-0.6,3.8-1.8s1.4-2.8,1.4-4.8s-0.5-3.7-1.4-4.9s-2.2-1.8-3.8-1.8s-2.9,0.6-3.8,1.8
	s-1.4,2.8-1.4,4.9s0.5,3.7,1.4,4.8S440.5,894.3,442.1,894.3z"/>
<path class="st1" d="M454,896.1v-16.9h2.5v3.8l-0.1-0.7c0.5-1,1.1-1.8,2.1-2.5s2.1-1,3.5-1c1.2,0,2.2,0.3,3.1,0.8s1.5,1.3,2,2.3
	s0.7,2.2,0.7,3.6v10.6h-2.6v-10.5c0-1.4-0.3-2.5-0.9-3.4s-1.5-1.3-2.8-1.3c-1.4,0-2.6,0.5-3.5,1.6s-1.4,2.6-1.4,4.7v8.8L454,896.1
	L454,896.1L454,896.1z"/>
<path class="st1" d="M474,876.4c-0.6,0-1.1-0.2-1.5-0.6c-0.4-0.4-0.6-0.9-0.6-1.5s0.2-1.1,0.6-1.5s0.9-0.6,1.5-0.6s1.1,0.2,1.6,0.6
	c0.4,0.4,0.6,0.9,0.6,1.5s-0.2,1.1-0.6,1.5S474.7,876.4,474,876.4z M472.7,896.1v-16.9h2.6v16.9H472.7z"/>
<path class="st1" d="M480.4,896.1v-16.9h2.5v3.8l-0.1-0.7c0.5-1,1.1-1.8,2.1-2.5s2.1-1,3.5-1c1.2,0,2.2,0.3,3.1,0.8s1.5,1.3,2,2.3
	s0.7,2.2,0.7,3.6v10.6h-2.6v-10.5c0-1.4-0.3-2.5-0.9-3.4s-1.5-1.3-2.8-1.3c-1.4,0-2.6,0.5-3.5,1.6s-1.4,2.6-1.4,4.7v8.8L480.4,896.1
	L480.4,896.1L480.4,896.1z"/>
<path class="st1" d="M505.4,902.6c-2.5,0-4.4-0.3-5.5-1.1s-1.8-1.8-1.8-3.3c0-0.8,0.2-1.6,0.6-2.2s1.1-1.2,2.2-1.5
	c-0.4-0.3-0.7-0.5-1-1c-0.3-0.4-0.4-0.8-0.4-1.3c0-0.6,0.2-1.1,0.5-1.6c0.4-0.5,0.9-0.8,1.6-1c-0.8-0.5-1.5-1.2-2-2s-0.7-1.8-0.7-3
	s0.3-2.2,0.8-3.1s1.3-1.6,2.3-2c1-0.5,2.2-0.7,3.6-0.7s2.6,0.2,3.6,0.7s1.8,1.2,2.3,2c0.6,0.9,0.8,2,0.8,3.2s-0.3,2.2-0.8,3.1
	c-0.5,0.9-1.3,1.5-2.3,2s-2.2,0.7-3.6,0.7h-1.4c-1.3,0-2,0.4-2,1.2s0.6,1.1,1.9,1.1h3.4c1.4,0,2.4,0.2,3.2,0.5
	c0.8,0.3,1.4,0.7,1.9,1.2s0.7,1,0.9,1.6s0.2,1.1,0.2,1.6c0,1.7-0.6,2.9-1.8,3.7s-3.1,1.2-5.6,1.2L505.4,902.6L505.4,902.6z
	 M505.4,900.5h1c3.1,0,4.7-0.9,4.7-2.8c0-0.8-0.3-1.4-0.8-1.9s-1.5-0.7-2.9-0.7h-2.9c-1.1,0-1.9,0.2-2.6,0.6s-1.1,1.1-1.1,2.1
	s0.4,1.6,1.1,2C502.6,900.3,503.7,900.5,505.4,900.5L505.4,900.5L505.4,900.5z M505.6,888.7c1.3,0,2.3-0.3,3-1s1.1-1.7,1.1-3
	s-0.4-2.3-1.1-3s-1.7-1.1-3-1.1s-2.3,0.3-3,1.1s-1.1,1.7-1.1,3s0.4,2.3,1.1,3S504.3,888.7,505.6,888.7z M508.4,880.6v-1.7
	c0-0.7,0.3-1.2,0.7-1.7s1.1-0.7,1.8-0.7h2v2.2h-1.7c-0.3,0-0.5,0.1-0.6,0.2c-0.1,0.1-0.2,0.3-0.2,0.7v1H508.4L508.4,880.6
	L508.4,880.6z"/>
<path class="st1" d="M291.8,934.6V912h8.6c2.2,0,4,0.5,5.3,1.3s2,2.2,2,4c0,1.1-0.2,2-0.7,2.7s-1.1,1.2-1.8,1.6s-1.5,0.6-2.3,0.7
	v-0.1c1.7,0.3,3,0.9,4.1,2c1.1,1,1.6,2.5,1.6,4.3c0,1.5-0.4,2.7-1,3.6c-0.7,0.9-1.6,1.5-2.8,1.9s-2.4,0.6-3.8,0.6H291.8L291.8,934.6
	L291.8,934.6z M294.6,921.2h5.6c1.2,0,2.3-0.3,3.2-0.8c0.9-0.5,1.3-1.4,1.3-2.7c0-1-0.3-1.8-1-2.4s-1.8-0.9-3.3-0.9h-5.8
	L294.6,921.2L294.6,921.2L294.6,921.2z M294.6,932.2h6.4c1.2,0,2.2-0.2,2.9-0.6s1.2-1,1.4-1.6s0.4-1.3,0.4-2c0-1-0.2-1.9-0.7-2.5
	s-1.1-1.2-2-1.5s-1.9-0.5-3-0.5h-5.4L294.6,932.2L294.6,932.2L294.6,932.2z"/>
<path class="st1" d="M317.1,934.9c-1.1,0-2.1-0.2-3-0.6s-1.5-1-1.9-1.8s-0.7-1.6-0.7-2.5c0-1,0.3-2,0.9-2.8c0.6-0.9,1.5-1.5,2.8-2
	s2.9-0.8,4.8-0.8h2.8l-0.3,0.3v-0.9c0-1.3-0.3-2.4-0.8-3.1c-0.5-0.7-1.4-1.1-2.7-1.1c-1.2,0-2.1,0.3-2.8,0.9s-1,1.4-1,2.5l-3-0.7
	c0.1-0.9,0.5-1.7,1-2.5c0.6-0.7,1.4-1.3,2.4-1.8s2.2-0.7,3.5-0.7s2.5,0.3,3.3,0.8s1.5,1.2,1.9,2.2s0.6,2.2,0.6,3.5v7.7
	c0,0.3,0.1,0.6,0.2,0.7c0.1,0.1,0.3,0.2,0.6,0.2h1v2.2H325c-0.7,0-1.3-0.2-1.8-0.7s-0.7-1-0.7-1.7V931h0.4c-0.2,0.5-0.4,0.9-0.7,1.3
	c-0.3,0.5-0.7,0.9-1.2,1.2s-1.1,0.7-1.7,0.9C318.7,934.8,317.9,934.9,317.1,934.9L317.1,934.9L317.1,934.9z M317.7,932.8
	c0.9,0,1.7-0.2,2.4-0.6s1.4-1.1,1.8-2s0.7-2.1,0.7-3.6v-0.1h-2.7c-1.4,0-2.5,0.2-3.3,0.5c-0.8,0.4-1.4,0.8-1.7,1.3
	c-0.3,0.5-0.5,1.1-0.5,1.6s0.1,1,0.4,1.4c0.2,0.4,0.6,0.8,1.1,1S317,932.8,317.7,932.8L317.7,932.8L317.7,932.8z"/>
<path class="st1" d="M332.9,934.6c-0.7,0-1.2-0.2-1.8-0.7s-0.7-1-0.7-1.7v-21.1h2.6v20.4c0,0.3,0.1,0.6,0.2,0.7
	c0.1,0.1,0.3,0.2,0.6,0.2h1.6v2.2L332.9,934.6L332.9,934.6L332.9,934.6z"/>
<path class="st1" d="M356.3,930.8l7.7-7.7l1.1,1.1h-19.7v-2.4h19.7l-1.1,1.1l-7.7-7.7l1.6-1.8l9.6,9.6l-9.6,9.6L356.3,930.8
	L356.3,930.8z"/>
<path class="st1" d="M384.4,934.9c-1.2,0-2.2-0.3-3.1-0.8s-1.5-1.3-2-2.3s-0.7-2.2-0.7-3.6v-10.6h2.6v10.5c0,1.4,0.3,2.5,0.8,3.4
	s1.5,1.3,2.8,1.3c1,0,1.9-0.3,2.6-0.8s1.3-1.3,1.7-2.3c0.4-1.1,0.6-2.3,0.6-3.9v-8h2.6v16.9h-2.5v-4l0.1,0.7c-0.5,1-1.1,1.9-2.1,2.6
	C386.9,934.6,385.7,934.9,384.4,934.9L384.4,934.9L384.4,934.9z"/>
<path class="st1" d="M397.5,934.6v-16.9h2.5v3.8l-0.1-0.7c0.5-1,1.1-1.8,2.1-2.5s2.1-1,3.5-1c1.2,0,2.2,0.3,3.1,0.8s1.5,1.3,2,2.3
	s0.7,2.2,0.7,3.6v10.6h-2.6v-10.5c0-1.4-0.3-2.5-0.9-3.4s-1.5-1.3-2.8-1.3c-1.4,0-2.6,0.5-3.5,1.6s-1.4,2.6-1.4,4.7v8.8L397.5,934.6
	L397.5,934.6L397.5,934.6z"/>
<path class="st1" d="M424.2,934.9c-1.1,0-2.2-0.3-3.3-0.8s-1.9-1.5-2.5-2.8l0.1-0.1v3.4H416v-23.5h2.6v10.1l-0.2-0.3
	c0.5-1.2,1.2-2.2,2.3-2.8s2.2-0.9,3.4-0.9c1.4,0,2.6,0.3,3.6,1.1s1.9,1.7,2.4,3.1c0.6,1.3,0.9,2.9,0.9,4.7s-0.3,3.4-0.9,4.7
	s-1.4,2.3-2.4,3C426.8,934.6,425.6,934.9,424.2,934.9L424.2,934.9L424.2,934.9z M423.5,932.8c1.4,0,2.5-0.6,3.4-1.7
	c0.9-1.2,1.4-2.8,1.4-5s-0.5-3.7-1.3-4.9s-2-1.7-3.5-1.7c-0.9,0-1.7,0.2-2.4,0.7c-0.7,0.5-1.3,1.2-1.8,2.2s-0.7,2.2-0.7,3.8
	c0,2.3,0.5,3.9,1.4,5S422.2,932.7,423.5,932.8L423.5,932.8L423.5,932.8z"/>
<path class="st1" d="M439.8,934.9c-1.1,0-2.1-0.2-3-0.6s-1.5-1-1.9-1.8s-0.7-1.6-0.7-2.5c0-1,0.3-2,0.9-2.8c0.6-0.9,1.5-1.5,2.8-2
	s2.9-0.8,4.8-0.8h2.8l-0.3,0.3v-0.9c0-1.3-0.3-2.4-0.8-3.1c-0.5-0.7-1.4-1.1-2.7-1.1c-1.2,0-2.1,0.3-2.8,0.9s-1,1.4-1,2.5l-3-0.7
	c0.1-0.9,0.5-1.7,1-2.5c0.6-0.7,1.4-1.3,2.4-1.8s2.2-0.7,3.5-0.7s2.5,0.3,3.3,0.8c0.9,0.5,1.5,1.2,1.9,2.2s0.6,2.2,0.6,3.5v7.7
	c0,0.3,0.1,0.6,0.2,0.7c0.1,0.1,0.3,0.2,0.6,0.2h1v2.2h-1.7c-0.7,0-1.3-0.2-1.8-0.7s-0.7-1-0.7-1.7V931h0.4
	c-0.2,0.5-0.4,0.9-0.7,1.3c-0.3,0.5-0.7,0.9-1.2,1.2s-1.1,0.7-1.7,0.9C441.4,934.8,440.7,934.9,439.8,934.9L439.8,934.9L439.8,934.9
	z M440.4,932.8c0.9,0,1.7-0.2,2.4-0.6s1.4-1.1,1.8-2s0.7-2.1,0.7-3.6v-0.1h-2.7c-1.4,0-2.5,0.2-3.3,0.5c-0.8,0.4-1.4,0.8-1.7,1.3
	c-0.3,0.5-0.5,1.1-0.5,1.6s0.1,1,0.4,1.4c0.2,0.4,0.6,0.8,1.1,1S439.7,932.8,440.4,932.8L440.4,932.8L440.4,932.8z"/>
<path class="st1" d="M455.6,934.6c-0.7,0-1.2-0.2-1.8-0.7s-0.7-1-0.7-1.7v-21.1h2.6v20.4c0,0.3,0.1,0.6,0.2,0.7
	c0.1,0.1,0.3,0.2,0.6,0.2h1.6v2.2L455.6,934.6L455.6,934.6L455.6,934.6z"/>
<g>
	<path class="st1" d="M318.9,973v-22.5h8.1c2.6,0,4.6,0.5,5.9,1.6s2,2.6,2,4.7s-0.6,3.5-2,4.7s-3.3,1.6-6,1.6h-5.3v10L318.9,973
		L318.9,973L318.9,973z M321.7,960.8h5.3c1.6,0,2.9-0.3,3.7-1.1s1.3-1.7,1.3-2.8s-0.4-2-1.1-2.8s-2-1.2-3.9-1.2h-5.3V960.8z"/>
	<path class="st1" d="M338.4,973v-16.9h2.5v3.6l-0.1-0.4c0.5-1.2,1.2-2,2.3-2.7c1-0.6,2-0.9,3-0.9c0.3,0,0.6,0,0.9,0.1
		s0.5,0.1,0.8,0.3l-0.4,2.5c-0.6-0.2-1.1-0.3-1.7-0.3c-0.4,0-0.8,0.1-1.3,0.2c-0.5,0.1-1.1,0.4-1.6,0.8s-1,1.1-1.3,1.9
		s-0.5,2-0.5,3.3v8.5L338.4,973L338.4,973z"/>
	<path class="st1" d="M357.2,973.4c-1.6,0-3-0.3-4.2-1.1s-2.1-1.7-2.7-3s-1-2.9-1-4.7s0.3-3.4,1-4.7s1.5-2.3,2.7-3.1
		s2.5-1.1,4.1-1.1c0.9,0,1.8,0.1,2.7,0.4s1.7,0.8,2.5,1.5c0.7,0.7,1.4,1.7,1.8,2.9s0.7,2.8,0.7,4.7h-13.7V963h11.4l-0.7,1
		c-0.1-1.5-0.3-2.7-0.7-3.6s-1-1.5-1.7-2s-1.4-0.6-2.3-0.6c-1,0-1.9,0.3-2.6,0.8s-1.3,1.2-1.7,2.3c-0.4,1-0.6,2.2-0.6,3.6
		c0,2.1,0.4,3.7,1.3,4.9s2.1,1.7,3.7,1.7c1.1,0,2.1-0.3,2.9-0.9c0.8-0.6,1.4-1.4,1.7-2.5l2.6,0.9c-0.4,1-1,1.8-1.6,2.5
		s-1.5,1.2-2.4,1.6S358.3,973.3,357.2,973.4L357.2,973.4L357.2,973.4z"/>
	<path class="st1" d="M373,973.4c-1.1,0-2.1-0.2-3-0.6s-1.5-1-1.9-1.8s-0.7-1.6-0.7-2.5c0-1,0.3-2,0.9-2.8c0.6-0.9,1.5-1.5,2.8-2
		s2.9-0.8,4.8-0.8h2.8l-0.3,0.3v-0.9c0-1.3-0.3-2.4-0.8-3.1c-0.5-0.7-1.4-1.1-2.7-1.1c-1.2,0-2.1,0.3-2.8,0.9s-1,1.4-1,2.5l-3-0.7
		c0.1-0.9,0.5-1.7,1-2.5c0.6-0.7,1.4-1.3,2.4-1.8s2.2-0.7,3.5-0.7s2.5,0.3,3.3,0.8c0.9,0.5,1.5,1.2,1.9,2.2s0.6,2.2,0.6,3.5v7.7
		c0,0.3,0.1,0.6,0.2,0.7c0.1,0.1,0.3,0.2,0.6,0.2h1v2.2h-1.7c-0.7,0-1.3-0.2-1.8-0.7s-0.7-1-0.7-1.7v-1.2h0.4
		c-0.2,0.5-0.4,0.9-0.7,1.3c-0.3,0.5-0.7,0.9-1.2,1.2s-1.1,0.7-1.7,0.9C374.7,973.3,373.9,973.4,373,973.4L373,973.4L373,973.4z
		 M373.6,971.2c0.9,0,1.7-0.2,2.4-0.6s1.4-1.1,1.8-2s0.7-2.1,0.7-3.6v-0.1h-2.7c-1.4,0-2.5,0.2-3.3,0.5c-0.8,0.4-1.4,0.8-1.7,1.3
		c-0.3,0.5-0.5,1.1-0.5,1.6s0.1,1,0.4,1.4c0.2,0.4,0.6,0.8,1.1,1S372.9,971.2,373.6,971.2L373.6,971.2L373.6,971.2z"/>
	<path class="st1" d="M386.4,973v-16.9h2.5v2.9c0.4-0.9,1.1-1.6,2-2.3s2-1,3.3-1c1.1,0,2.1,0.3,2.9,0.9s1.4,1.5,1.9,2.6
		c0.5-1,1.2-1.9,2.2-2.5s2-1,3.2-1c1.6,0,2.9,0.6,3.9,1.8c0.9,1.2,1.4,2.8,1.4,4.9V973h-2.6v-10.5c0-1-0.1-1.8-0.3-2.5
		s-0.5-1.2-1-1.6s-1.1-0.6-1.9-0.6c-0.9,0-1.6,0.3-2.3,0.7c-0.7,0.5-1.2,1.2-1.6,2.1s-0.6,2-0.6,3.4v8.8h-2.6v-10.5
		c0-1-0.1-1.8-0.3-2.5s-0.5-1.2-1-1.6s-1.1-0.6-1.8-0.6c-0.9,0-1.6,0.2-2.3,0.7s-1.2,1.2-1.6,2.1c-0.4,0.9-0.6,2-0.6,3.4v8.8
		L386.4,973L386.4,973L386.4,973z"/>
	<path class="st1" d="M414.3,979.2v-23h2.5v3.5l-0.1-0.3c0.5-1.2,1.2-2.2,2.3-2.8s2.2-0.9,3.4-0.9c1.4,0,2.6,0.3,3.6,1.1
		s1.9,1.7,2.4,3.1c0.6,1.3,0.9,2.9,0.9,4.7s-0.3,3.4-0.9,4.7s-1.4,2.3-2.4,3c-1.1,0.7-2.2,1.1-3.6,1.1c-1.1,0-2.2-0.3-3.3-0.8
		s-1.9-1.5-2.5-2.8l0.2-0.1v9.5H414.3L414.3,979.2L414.3,979.2z M421.7,971.2c1.4,0,2.5-0.6,3.4-1.7c0.9-1.2,1.4-2.8,1.4-5
		s-0.5-3.7-1.3-4.9s-2-1.7-3.5-1.7c-0.9,0-1.7,0.2-2.4,0.7c-0.7,0.5-1.3,1.2-1.8,2.2s-0.7,2.2-0.7,3.8c0,2.3,0.5,3.9,1.4,5
		S420.4,971.2,421.7,971.2L421.7,971.2L421.7,971.2z"/>
</g>
<path class="st1" d="M735.7,913.5V891h6.8c2.7,0,4.8,0.5,6.5,1.3s3,2.2,3.8,3.8s1.2,3.6,1.2,5.9c0,2.6-0.5,4.7-1.4,6.4
	s-2.3,3-4.1,3.8s-3.8,1.2-6.2,1.2L735.7,913.5L735.7,913.5L735.7,913.5z M738.5,911.2h3.5c6,0,8.9-3,8.9-8.9c0-1.8-0.3-3.4-0.9-4.7
	c-0.6-1.3-1.5-2.4-2.8-3.1s-3-1.1-5-1.1h-3.7V911.2L738.5,911.2L738.5,911.2z"/>
<path class="st1" d="M758,913.5v-16.9h2.5v3.6l-0.1-0.4c0.5-1.2,1.2-2,2.3-2.7c1-0.6,2-0.9,3-0.9c0.3,0,0.6,0,0.9,0.1
	s0.5,0.1,0.8,0.3L767,899c-0.6-0.2-1.2-0.3-1.7-0.3c-0.3,0-0.8,0.1-1.3,0.2c-0.5,0.1-1.1,0.4-1.6,0.8s-1,1.1-1.3,1.9s-0.5,2-0.5,3.3
	v8.5L758,913.5L758,913.5L758,913.5z"/>
<path class="st1" d="M771.9,893.7c-0.6,0-1.1-0.2-1.5-0.6s-0.6-0.9-0.6-1.5s0.2-1.1,0.6-1.6c0.4-0.4,0.9-0.6,1.5-0.6
	s1.1,0.2,1.6,0.6c0.4,0.4,0.6,0.9,0.6,1.6s-0.2,1.1-0.6,1.5S772.5,893.7,771.9,893.7z M770.5,913.5v-16.9h2.6v16.9H770.5z"/>
<path class="st1" d="M782.8,913.5l-6.3-16.9h2.9l5.3,15.4h-0.5l5.3-15.4h2.9l-6.3,16.9H782.8L782.8,913.5z"/>
<path class="st1" d="M802.2,913.8c-1.6,0-3-0.3-4.2-1.1s-2.1-1.7-2.7-3c-0.6-1.3-1-2.9-1-4.7s0.3-3.4,1-4.7s1.5-2.3,2.7-3.1
	s2.5-1.1,4.1-1.1c0.9,0,1.8,0.1,2.7,0.4s1.7,0.8,2.5,1.5c0.7,0.7,1.3,1.7,1.8,2.9s0.7,2.8,0.7,4.7H796v-2.1h11.4l-0.7,1
	c-0.1-1.5-0.3-2.7-0.7-3.6s-1-1.5-1.7-2c-0.7-0.4-1.4-0.6-2.3-0.6c-1,0-1.9,0.3-2.6,0.8s-1.3,1.3-1.7,2.3s-0.6,2.2-0.6,3.6
	c0,2.1,0.4,3.8,1.3,4.9s2.1,1.7,3.7,1.7c1.1,0,2.1-0.3,2.9-0.9s1.3-1.4,1.7-2.5l2.6,0.9c-0.4,1-1,1.8-1.6,2.5
	c-0.7,0.7-1.5,1.2-2.4,1.6S803.3,913.8,802.2,913.8L802.2,913.8L802.2,913.8z"/>
<path class="st1" d="M813.7,913.5v-16.9h2.5v3.6l-0.1-0.4c0.5-1.2,1.2-2,2.3-2.7c1-0.6,2-0.9,3-0.9c0.3,0,0.6,0,0.9,0.1
	s0.5,0.1,0.8,0.3l-0.3,2.5c-0.6-0.2-1.2-0.3-1.7-0.3c-0.3,0-0.8,0.1-1.3,0.2c-0.5,0.1-1.1,0.4-1.6,0.8s-1,1.1-1.3,1.9
	s-0.5,2-0.5,3.3v8.5L813.7,913.5L813.7,913.5L813.7,913.5z"/>
<path class="st1" d="M840.5,913.8c-1.2,0-2.3-0.2-3.3-0.6s-1.8-1-2.5-1.8s-1.1-1.9-1.3-3.1l2.8-0.5c0.1,1.3,0.6,2.3,1.3,3s1.8,1,3,1
	s2.1-0.3,2.8-0.9s1.1-1.3,1.1-2.2c0-0.7-0.3-1.3-0.7-1.7s-1.2-0.7-2.2-0.9l-2-0.4c-0.5-0.1-1.1-0.3-1.7-0.5s-1.2-0.5-1.7-0.8
	s-0.9-0.8-1.2-1.3s-0.5-1.2-0.5-2c0-1.1,0.3-2,0.9-2.7c0.6-0.7,1.3-1.2,2.3-1.6s2-0.5,3.1-0.5c1.2,0,2.3,0.2,3.2,0.6
	s1.6,0.9,2.2,1.6s0.9,1.5,1.1,2.5l-2.9,0.6c-0.1-0.6-0.3-1.2-0.5-1.7s-0.6-0.8-1.2-1.1s-1.2-0.4-2-0.4c-1,0-1.8,0.2-2.5,0.6
	s-1.1,1-1.1,1.9c0,0.5,0.1,0.9,0.3,1.2s0.6,0.6,1.1,0.8s1.1,0.4,1.8,0.5l2.1,0.5c0.9,0.2,1.7,0.5,2.4,0.8s1.3,0.8,1.8,1.4
	s0.7,1.4,0.7,2.4c0,1.1-0.3,2.1-0.8,2.9s-1.3,1.4-2.3,1.9S841.8,913.9,840.5,913.8L840.5,913.8L840.5,913.8z"/>
<path class="st1" d="M854.5,913.5c-0.7,0-1.2-0.2-1.8-0.7s-0.7-1-0.7-1.7v-12.4h-2.7v-2.2h2.7V893l2.6-0.6v4.1h3.3v2.2h-3.3v11.7
	c0,0.3,0.1,0.6,0.2,0.7s0.3,0.2,0.6,0.2h2.6v2.2L854.5,913.5L854.5,913.5L854.5,913.5z"/>
<path class="st1" d="M866,913.8c-1.1,0-2.1-0.2-3-0.6s-1.5-1-1.9-1.8s-0.7-1.6-0.7-2.6s0.3-2,0.9-2.8s1.5-1.5,2.8-2s2.8-0.8,4.8-0.8
	h2.8l-0.3,0.3v-0.9c0-1.3-0.3-2.4-0.8-3.1c-0.5-0.7-1.4-1.1-2.7-1.1c-1.2,0-2.1,0.3-2.8,0.9s-1,1.4-1,2.5l-3-0.7
	c0.1-0.9,0.5-1.7,1-2.5c0.6-0.7,1.4-1.3,2.4-1.8s2.2-0.7,3.5-0.7s2.5,0.3,3.3,0.8c0.9,0.5,1.5,1.2,1.9,2.2s0.6,2.2,0.6,3.5v7.7
	c0,0.3,0.1,0.6,0.2,0.7s0.3,0.2,0.6,0.2h1v2.2H874c-0.7,0-1.3-0.2-1.8-0.7s-0.7-1-0.7-1.7v-1.2h0.4c-0.2,0.5-0.4,0.9-0.7,1.3
	c-0.3,0.5-0.7,0.9-1.2,1.2s-1.1,0.7-1.7,1S866.8,913.8,866,913.8L866,913.8L866,913.8z M866.5,911.6c0.9,0,1.7-0.2,2.4-0.6
	s1.3-1.1,1.8-2s0.7-2.1,0.7-3.6v-0.1h-2.7c-1.4,0-2.5,0.2-3.3,0.5s-1.4,0.8-1.7,1.3s-0.5,1.1-0.5,1.6s0.1,1,0.3,1.4s0.6,0.8,1.1,1
	C865.2,911.5,865.8,911.6,866.5,911.6L866.5,911.6L866.5,911.6z"/>
<path class="st1" d="M885.2,919.9c-2.5,0-4.4-0.3-5.5-1.1s-1.8-1.8-1.8-3.3c0-0.8,0.2-1.6,0.6-2.2s1.2-1.2,2.2-1.5
	c-0.4-0.3-0.7-0.5-1-1s-0.4-0.8-0.4-1.3c0-0.6,0.2-1.1,0.5-1.6s0.9-0.8,1.6-1c-0.8-0.5-1.5-1.2-2-2s-0.7-1.8-0.7-3s0.3-2.2,0.8-3.1
	c0.5-0.9,1.3-1.6,2.3-2s2.2-0.7,3.6-0.7s2.6,0.3,3.6,0.7s1.8,1.2,2.3,2s0.8,2,0.8,3.2s-0.3,2.2-0.8,3.1s-1.3,1.5-2.3,2
	s-2.2,0.7-3.6,0.7H884c-1.3,0-2,0.4-2,1.2c0,0.7,0.6,1.1,1.9,1.1h3.4c1.3,0,2.4,0.2,3.2,0.5s1.4,0.7,1.9,1.2s0.7,1,0.9,1.6
	s0.2,1.1,0.2,1.6c0,1.7-0.6,2.9-1.8,3.7s-3.1,1.2-5.6,1.2L885.2,919.9L885.2,919.9L885.2,919.9z M885.2,917.8h1
	c3.1,0,4.7-0.9,4.7-2.8c0-0.8-0.3-1.4-0.8-1.9s-1.5-0.7-2.8-0.7h-2.9c-1.1,0-1.9,0.2-2.6,0.6s-1.1,1.1-1.1,2.1s0.4,1.6,1.1,2
	C882.5,917.7,883.6,917.9,885.2,917.8L885.2,917.8L885.2,917.8z M885.5,906.1c1.3,0,2.3-0.3,3-1s1.1-1.7,1.1-3s-0.3-2.3-1.1-3
	s-1.7-1.1-3-1.1s-2.3,0.3-3,1.1s-1.1,1.7-1.1,3s0.3,2.3,1.1,3S884.2,906.1,885.5,906.1z M888.3,897.9v-1.7c0-0.7,0.3-1.2,0.7-1.7
	c0.5-0.5,1.1-0.7,1.8-0.7h2v2.2h-1.7c-0.3,0-0.5,0.1-0.6,0.2s-0.2,0.3-0.2,0.7v1H888.3L888.3,897.9L888.3,897.9z"/>
<path class="st1" d="M903.8,913.8c-1.6,0-3-0.3-4.2-1.1s-2.1-1.7-2.7-3c-0.6-1.3-1-2.9-1-4.7s0.3-3.4,1-4.7s1.5-2.3,2.7-3.1
	s2.5-1.1,4.1-1.1c0.9,0,1.8,0.1,2.7,0.4s1.7,0.8,2.5,1.5c0.7,0.7,1.3,1.7,1.8,2.9s0.7,2.8,0.7,4.7h-13.7v-2.1H909l-0.7,1
	c-0.1-1.5-0.3-2.7-0.7-3.6s-1-1.5-1.7-2c-0.7-0.4-1.4-0.6-2.3-0.6c-1,0-1.9,0.3-2.6,0.8s-1.3,1.3-1.7,2.3s-0.6,2.2-0.6,3.6
	c0,2.1,0.4,3.8,1.3,4.9s2.1,1.7,3.7,1.7c1.1,0,2.1-0.3,2.9-0.9s1.3-1.4,1.7-2.5l2.6,0.9c-0.4,1-1,1.8-1.6,2.5
	c-0.7,0.7-1.5,1.2-2.4,1.6S904.9,913.8,903.8,913.8L903.8,913.8L903.8,913.8z"/>
<path class="st1" d="M708.9,951.9v-22.5h8.1c2.6,0,4.6,0.5,5.9,1.6s2,2.6,2,4.7s-0.6,3.5-2,4.7s-3.3,1.6-6,1.6h-5.3v10L708.9,951.9
	L708.9,951.9L708.9,951.9z M711.8,939.6h5.3c1.6,0,2.8-0.3,3.7-1.1s1.3-1.7,1.3-2.8s-0.4-2-1.2-2.8s-2-1.2-3.8-1.2h-5.3V939.6z"/>
<path class="st1" d="M732.3,951.9l-4.7-22.5h2.7l4.1,20.4l0,0l5.7-20.4h3.1l5.7,20.4l0,0l4.1-20.4h2.7l-4.7,22.5h-4.2l-5.5-20.5h0.6
	l-5.5,20.5H732.3L732.3,951.9z"/>
<path class="st1" d="M758.5,951.9l1.2-22.5h4.7l6.4,20.5h-0.6l6.4-20.5h4.7l1.2,22.5h-2.7l-1.1-20.4l0,0l-6.6,20.4H769l-6.7-20.4
	l0,0l-1.1,20.4H758.5L758.5,951.9L758.5,951.9z"/>
<path class="st1" d="M797,944.1c-0.7,0-1.2-0.2-1.7-0.7s-0.7-1-0.7-1.7s0.2-1.2,0.7-1.7s1-0.7,1.7-0.7s1.2,0.2,1.7,0.7
	s0.7,1,0.7,1.7s-0.2,1.2-0.7,1.7S797.7,944.1,797,944.1z"/>
<path class="st1" d="M811.6,951.9l1.2-22.5h4.7l6.4,20.5h-0.6l6.4-20.5h4.7l1.2,22.5h-2.7l-1.1-20.4l0,0l-6.6,20.4H822l-6.7-20.4
	l0,0l-1.1,20.4H811.6L811.6,951.9L811.6,951.9z"/>
<path class="st1" d="M849.9,952.3c-2.2,0-4.2-0.5-5.8-1.4s-2.9-2.3-3.8-4s-1.3-3.8-1.3-6.2s0.5-4.5,1.3-6.2c0.9-1.7,2.2-3.1,3.8-4
	s3.6-1.4,5.8-1.4s4.2,0.5,5.8,1.4s2.9,2.3,3.8,4c0.9,1.7,1.3,3.8,1.3,6.2s-0.5,4.5-1.3,6.2s-2.2,3.1-3.8,4
	C854,951.8,852.1,952.3,849.9,952.3z M849.9,950c1.6,0,3-0.4,4.2-1.1c1.2-0.8,2.1-1.8,2.7-3.2s1-3,1-5s-0.3-3.6-1-5
	s-1.5-2.5-2.7-3.2s-2.6-1.1-4.2-1.1s-3,0.4-4.2,1.1c-1.2,0.8-2.1,1.8-2.7,3.2c-0.6,1.4-1,3-1,5s0.3,3.6,1,5s1.5,2.5,2.7,3.2
	S848.2,950,849.9,950z"/>
<path class="st1" d="M872.6,952.3c-1.7,0-3.2-0.3-4.5-0.9s-2.3-1.4-3.1-2.5s-1.3-2.4-1.6-4l3.3-0.7c0.1,1.9,0.6,3.3,1.6,4.3
	s2.4,1.5,4.2,1.5c1.1,0,2-0.2,2.8-0.5s1.3-0.9,1.7-1.5s0.6-1.4,0.6-2.3c0-1.2-0.3-2-1-2.6s-1.6-1-2.8-1.2l-3-0.7
	c-0.5-0.1-1.2-0.3-1.9-0.5s-1.4-0.5-2.1-1s-1.2-1-1.7-1.7s-0.7-1.7-0.7-2.8c0-1.4,0.4-2.6,1.1-3.5s1.7-1.6,2.9-2s2.5-0.6,3.8-0.6
	c1.5,0,2.9,0.3,4,0.7s2,1.2,2.7,2.1s1.2,2,1.4,3.3l-3.3,0.7c-0.1-1-0.3-1.8-0.7-2.4c-0.4-0.7-0.9-1.2-1.6-1.5
	c-0.7-0.3-1.6-0.5-2.6-0.5c-0.8,0-1.6,0.1-2.4,0.4s-1.3,0.6-1.8,1.2s-0.7,1.2-0.7,2.1s0.3,1.6,0.9,2.2c0.6,0.5,1.7,1,3.1,1.3l3,0.7
	c1.1,0.3,2,0.6,3,1.1s1.7,1.2,2.3,2s0.9,2,0.9,3.4s-0.3,2.6-1,3.6s-1.6,1.8-2.8,2.3C875.6,952.1,874.2,952.4,872.6,952.3
	L872.6,952.3L872.6,952.3z"/>
<path class="st1" d="M884.7,951.9v-22.5h14.5v2.3h-11.6v7H898v2.3h-10.5v11L884.7,951.9L884.7,951.9L884.7,951.9z"/>
<path class="st1" d="M902.7,951.9v-22.5h14.8v2.3h-12v7.1H916v2.3h-10.5v8.5h12.2v2.3L902.7,951.9L902.7,951.9z"/>
<path class="st1" d="M927.8,951.9v-20.2h-8v-2.3h19v2.3h-8.1v20.2H927.8z"/>
<path class="st1" d="M1207.5,896.1v-22.5h2.8v9.8h12.3v-9.8h2.8v22.5h-2.8v-10.5h-12.3v10.5H1207.5z"/>
<path class="st1" d="M1237.4,896.1l-8.6-22.5h3l7.4,20.6h-0.6l7.3-20.6h3l-8.6,22.5H1237.4L1237.4,896.1L1237.4,896.1z"/>
<path class="st1" d="M1266.2,896.5c-1.2,0-2.3-0.2-3.3-0.6s-1.8-1-2.5-1.8s-1.1-1.9-1.3-3.1l2.8-0.5c0.1,1.3,0.6,2.3,1.3,3
	c0.8,0.6,1.8,1,2.9,1s2.1-0.3,2.8-0.9s1.1-1.3,1.1-2.2c0-0.7-0.3-1.3-0.7-1.7s-1.2-0.7-2.2-0.9l-2.1-0.4c-0.6-0.1-1.1-0.3-1.7-0.5
	s-1.2-0.5-1.7-0.8s-0.9-0.8-1.2-1.3s-0.5-1.2-0.5-2c0-1.1,0.3-2,0.9-2.7s1.3-1.2,2.3-1.6s2-0.5,3.1-0.5c1.2,0,2.3,0.2,3.2,0.6
	s1.6,0.9,2.2,1.6c0.6,0.7,0.9,1.5,1.1,2.5l-2.9,0.6c-0.1-0.6-0.3-1.2-0.5-1.7c-0.3-0.5-0.6-0.8-1.2-1.1s-1.2-0.4-2-0.4
	c-1,0-1.8,0.2-2.5,0.6s-1.1,1-1.1,1.9c0,0.5,0.1,0.9,0.3,1.2s0.6,0.6,1.1,0.8s1.1,0.4,1.8,0.5l2.1,0.5c0.9,0.2,1.7,0.5,2.4,0.8
	s1.3,0.8,1.8,1.4c0.4,0.6,0.7,1.4,0.7,2.4c0,1.1-0.3,2.1-0.8,2.9s-1.3,1.4-2.3,1.9C1268.7,896.3,1267.6,896.5,1266.2,896.5
	L1266.2,896.5L1266.2,896.5z"/>
<path class="st1" d="M1280.3,896.1c-0.7,0-1.2-0.2-1.8-0.7s-0.7-1-0.7-1.7v-12.4h-2.7v-2.2h2.7v-3.5l2.6-0.6v4.1h3.3v2.2h-3.3V893
	c0,0.3,0.1,0.6,0.2,0.7c0.1,0.1,0.3,0.2,0.6,0.2h2.6v2.2L1280.3,896.1L1280.3,896.1L1280.3,896.1z"/>
<path class="st1" d="M1291.7,896.5c-1.1,0-2.1-0.2-2.9-0.6s-1.5-1-1.9-1.8s-0.7-1.6-0.7-2.5c0-1,0.3-2,0.9-2.8
	c0.6-0.9,1.5-1.5,2.8-2s2.8-0.8,4.8-0.8h2.8l-0.3,0.3v-0.9c0-1.3-0.3-2.4-0.8-3.1c-0.6-0.7-1.4-1.1-2.7-1.1c-1.2,0-2.1,0.3-2.8,0.9
	s-1,1.4-1,2.5l-2.9-0.7c0.1-0.9,0.4-1.7,1.1-2.5c0.6-0.7,1.4-1.3,2.4-1.8s2.2-0.7,3.5-0.7s2.5,0.3,3.3,0.8c0.9,0.5,1.5,1.2,1.9,2.2
	s0.6,2.2,0.6,3.5v7.7c0,0.3,0.1,0.6,0.2,0.7c0.1,0.1,0.3,0.2,0.6,0.2h1v2.2h-1.7c-0.7,0-1.3-0.2-1.8-0.7s-0.7-1-0.7-1.7v-1.2h0.4
	c-0.2,0.5-0.4,0.9-0.7,1.3c-0.3,0.5-0.7,0.9-1.2,1.2s-1.1,0.7-1.7,0.9C1293.4,896.3,1292.6,896.4,1291.7,896.5L1291.7,896.5
	L1291.7,896.5z M1292.3,894.3c0.9,0,1.7-0.2,2.4-0.6s1.3-1.1,1.8-2c0.4-0.9,0.7-2.1,0.7-3.6V888h-2.7c-1.4,0-2.5,0.2-3.3,0.5
	c-0.8,0.4-1.4,0.8-1.7,1.3c-0.3,0.5-0.5,1.1-0.5,1.6s0.1,1,0.3,1.4c0.3,0.4,0.6,0.8,1.1,1S1291.6,894.3,1292.3,894.3L1292.3,894.3
	L1292.3,894.3z"/>
<path class="st1" d="M1311,902.6c-2.5,0-4.4-0.3-5.6-1.1c-1.2-0.7-1.8-1.8-1.8-3.3c0-0.8,0.2-1.6,0.6-2.2s1.2-1.2,2.2-1.5
	c-0.4-0.3-0.7-0.5-1-1c-0.3-0.4-0.4-0.8-0.4-1.3c0-0.6,0.2-1.1,0.6-1.6c0.3-0.5,0.9-0.8,1.6-1c-0.8-0.5-1.5-1.2-2-2s-0.7-1.8-0.7-3
	s0.3-2.2,0.8-3.1s1.3-1.6,2.3-2c1-0.5,2.2-0.7,3.6-0.7s2.6,0.2,3.6,0.7s1.8,1.2,2.3,2c0.6,0.9,0.8,2,0.8,3.2s-0.3,2.2-0.8,3.1
	c-0.6,0.9-1.3,1.5-2.3,2s-2.2,0.7-3.6,0.7h-1.4c-1.3,0-2,0.4-2,1.2s0.6,1.1,1.9,1.1h3.4c1.3,0,2.4,0.2,3.2,0.5
	c0.8,0.3,1.4,0.7,1.9,1.2c0.4,0.5,0.7,1,0.9,1.6s0.2,1.1,0.2,1.6c0,1.7-0.6,2.9-1.8,3.7s-3.1,1.2-5.6,1.2L1311,902.6L1311,902.6z
	 M1311,900.5h1c3.1,0,4.7-0.9,4.7-2.8c0-0.8-0.3-1.4-0.8-1.9s-1.5-0.7-2.8-0.7h-2.9c-1.1,0-1.9,0.2-2.6,0.6s-1.1,1.1-1.1,2.1
	s0.4,1.6,1.1,2C1308.2,900.3,1309.4,900.5,1311,900.5L1311,900.5L1311,900.5z M1311.3,888.7c1.3,0,2.3-0.3,3.1-1s1.1-1.7,1.1-3
	s-0.3-2.3-1.1-3s-1.7-1.1-3.1-1.1s-2.3,0.3-3,1.1s-1.1,1.7-1.1,3s0.3,2.3,1.1,3S1310,888.7,1311.3,888.7z M1314.1,880.6v-1.7
	c0-0.7,0.3-1.2,0.7-1.7s1.1-0.7,1.8-0.7h2v2.2h-1.7c-0.3,0-0.6,0.1-0.6,0.2c-0.1,0.1-0.2,0.3-0.2,0.7v1H1314.1L1314.1,880.6
	L1314.1,880.6z"/>
<path class="st1" d="M1329.6,896.5c-1.6,0-3-0.3-4.2-1.1c-1.2-0.7-2.1-1.7-2.7-3s-1-2.9-1-4.7s0.3-3.4,1-4.7s1.5-2.3,2.7-3.1
	s2.5-1.1,4.1-1.1c0.9,0,1.8,0.1,2.7,0.4s1.7,0.8,2.5,1.5c0.7,0.7,1.3,1.7,1.8,2.9c0.4,1.2,0.7,2.8,0.7,4.7h-13.7v-2.1h11.4l-0.7,1
	c-0.1-1.5-0.3-2.7-0.7-3.6s-1-1.5-1.7-2c-0.7-0.4-1.4-0.6-2.3-0.6c-1,0-1.9,0.3-2.6,0.8s-1.3,1.2-1.7,2.3c-0.4,1-0.6,2.2-0.6,3.6
	c0,2.1,0.4,3.7,1.3,4.9s2.1,1.7,3.7,1.7c1.1,0,2.1-0.3,2.9-0.9c0.8-0.6,1.3-1.4,1.7-2.5l2.6,0.9c-0.4,1-1,1.8-1.6,2.5
	s-1.5,1.2-2.4,1.6S1330.8,896.4,1329.6,896.5L1329.6,896.5L1329.6,896.5z"/>
<path class="st1" d="M1218.6,934.9c-1.7,0-3.2-0.3-4.5-0.9s-2.3-1.4-3.1-2.5c-0.8-1.1-1.3-2.4-1.6-4l3.3-0.7
	c0.1,1.9,0.6,3.3,1.6,4.3s2.4,1.5,4.2,1.5c1.1,0,2-0.2,2.8-0.5s1.3-0.9,1.7-1.5c0.4-0.6,0.6-1.4,0.6-2.3c0-1.2-0.3-2-1-2.6
	s-1.6-1-2.8-1.2l-2.9-0.7c-0.6-0.1-1.2-0.3-1.9-0.5s-1.4-0.5-2.1-1c-0.7-0.4-1.2-1-1.7-1.7c-0.4-0.7-0.7-1.7-0.7-2.8
	c0-1.4,0.4-2.6,1.1-3.5s1.7-1.6,2.9-2s2.5-0.6,3.8-0.6c1.6,0,2.9,0.3,4,0.7s2,1.2,2.7,2.1c0.7,0.9,1.2,2,1.4,3.3l-3.3,0.7
	c-0.1-1-0.3-1.8-0.7-2.4s-0.9-1.2-1.6-1.5s-1.6-0.5-2.6-0.5c-0.8,0-1.6,0.1-2.4,0.4c-0.7,0.3-1.3,0.6-1.8,1.2s-0.7,1.2-0.7,2.1
	s0.3,1.6,0.9,2.2s1.7,1,3.1,1.3l3,0.7c1.1,0.3,2.1,0.6,3,1.1s1.7,1.2,2.3,2c0.6,0.9,0.9,2,0.9,3.4s-0.3,2.6-1,3.6
	c-0.6,1-1.6,1.8-2.8,2.3C1221.6,934.7,1220.2,934.9,1218.6,934.9L1218.6,934.9L1218.6,934.9z"/>
<path class="st1" d="M1230.6,934.6v-16.9h2.5v3.8l-0.1-0.7c0.4-1,1.2-1.8,2.1-2.5c1-0.7,2.2-1,3.5-1c1.2,0,2.2,0.3,3.1,0.8
	s1.5,1.3,2,2.3s0.7,2.2,0.7,3.6v10.6h-2.6v-10.5c0-1.4-0.3-2.5-0.9-3.4s-1.5-1.3-2.8-1.3c-1.4,0-2.6,0.5-3.5,1.6s-1.4,2.6-1.4,4.7
	v8.8L1230.6,934.6L1230.6,934.6L1230.6,934.6z"/>
<path class="st1" d="M1254.7,934.9c-1.2,0-2.2-0.3-3.1-0.8s-1.5-1.3-2-2.3s-0.7-2.2-0.7-3.6v-10.6h2.6v10.5c0,1.4,0.3,2.5,0.8,3.4
	s1.5,1.3,2.8,1.3c1,0,1.9-0.3,2.6-0.8s1.3-1.3,1.7-2.3c0.4-1.1,0.6-2.3,0.6-3.9v-8h2.6v16.9h-2.5v-4l0.1,0.7c-0.4,1-1.2,1.9-2.1,2.6
	C1257.3,934.6,1256,934.9,1254.7,934.9L1254.7,934.9L1254.7,934.9z"/>
<path class="st1" d="M1275.9,934.9c-1.1,0-2.2-0.3-3.3-0.8s-1.9-1.5-2.5-2.8l0.1-0.1v3.4h-2.5v-23.5h2.6v10.1l-0.2-0.3
	c0.4-1.2,1.2-2.2,2.3-2.8s2.2-0.9,3.4-0.9c1.4,0,2.6,0.3,3.6,1.1s1.9,1.7,2.4,3.1c0.6,1.3,0.9,2.9,0.9,4.7s-0.3,3.4-0.9,4.7
	s-1.4,2.3-2.4,3C1278.4,934.6,1277.2,934.9,1275.9,934.9L1275.9,934.9L1275.9,934.9z M1275.2,932.8c1.4,0,2.5-0.6,3.4-1.7
	c0.9-1.2,1.3-2.8,1.3-5s-0.4-3.7-1.3-4.9s-2-1.7-3.5-1.7c-0.9,0-1.7,0.2-2.4,0.7c-0.7,0.5-1.3,1.2-1.8,2.2s-0.7,2.2-0.7,3.8
	c0,2.3,0.5,3.9,1.4,5S1273.9,932.7,1275.2,932.8L1275.2,932.8L1275.2,932.8z"/>
<path class="st1" d="M1294.8,934.9c-1.1,0-2.2-0.3-3.3-0.8s-1.9-1.5-2.5-2.8l0.1-0.1v3.4h-2.5v-23.5h2.6v10.1l-0.2-0.3
	c0.4-1.2,1.2-2.2,2.3-2.8s2.2-0.9,3.4-0.9c1.4,0,2.6,0.3,3.6,1.1s1.9,1.7,2.4,3.1c0.6,1.3,0.9,2.9,0.9,4.7s-0.3,3.4-0.9,4.7
	s-1.4,2.3-2.4,3C1297.3,934.6,1296.2,934.9,1294.8,934.9L1294.8,934.9L1294.8,934.9z M1294.1,932.8c1.4,0,2.5-0.6,3.4-1.7
	c0.9-1.2,1.3-2.8,1.3-5s-0.4-3.7-1.3-4.9s-2-1.7-3.5-1.7c-0.9,0-1.7,0.2-2.4,0.7c-0.7,0.5-1.3,1.2-1.8,2.2s-0.7,2.2-0.7,3.8
	c0,2.3,0.5,3.9,1.4,5S1292.8,932.7,1294.1,932.8L1294.1,932.8L1294.1,932.8z"/>
<path class="st1" d="M1313.3,934.9c-1.6,0-3-0.3-4.2-1.1c-1.2-0.7-2.1-1.7-2.7-3s-1-2.9-1-4.7s0.3-3.4,1-4.7s1.5-2.3,2.7-3.1
	s2.5-1.1,4.1-1.1c0.9,0,1.8,0.1,2.7,0.4s1.7,0.8,2.5,1.5c0.7,0.7,1.3,1.7,1.8,2.9c0.4,1.2,0.7,2.8,0.7,4.7h-13.7v-2.1h11.4l-0.7,1
	c-0.1-1.5-0.3-2.7-0.7-3.6s-1-1.5-1.7-2c-0.7-0.4-1.4-0.6-2.3-0.6c-1,0-1.9,0.3-2.6,0.8s-1.3,1.2-1.7,2.3c-0.4,1-0.6,2.2-0.6,3.6
	c0,2.1,0.4,3.7,1.3,4.9s2.1,1.7,3.7,1.7c1.1,0,2.1-0.3,2.9-0.9c0.8-0.6,1.3-1.4,1.7-2.5l2.6,0.9c-0.4,1-1,1.8-1.6,2.5
	s-1.5,1.2-2.4,1.6S1314.5,934.9,1313.3,934.9L1313.3,934.9L1313.3,934.9z"/>
<path class="st1" d="M1324.8,934.6v-16.9h2.5v3.6l-0.1-0.4c0.5-1.2,1.2-2,2.3-2.7c1-0.6,2-0.9,3.1-0.9c0.3,0,0.6,0,0.9,0.1
	s0.6,0.1,0.8,0.3l-0.3,2.5c-0.6-0.2-1.2-0.3-1.7-0.3c-0.3,0-0.8,0.1-1.3,0.2c-0.6,0.1-1.1,0.4-1.6,0.8s-1,1.1-1.3,1.9
	c-0.3,0.8-0.5,2-0.5,3.3v8.5L1324.8,934.6L1324.8,934.6z"/>
<path class="st1" d="M1186.1,973v-22.5h14.5v2.3H1189v7h10.5v2.3H1189v11L1186.1,973L1186.1,973z"/>
<path class="st1" d="M1206.5,973c-0.7,0-1.2-0.2-1.8-0.7s-0.7-1-0.7-1.7v-21.1h2.6V970c0,0.3,0.1,0.6,0.2,0.7
	c0.1,0.1,0.3,0.2,0.6,0.2h1.6v2.2L1206.5,973L1206.5,973L1206.5,973z"/>
<path class="st1" d="M1212.6,979.2V977h2.6c0.2,0,0.3-0.1,0.4-0.2s0.2-0.3,0.3-0.6l1.2-3.5l-0.3,1.2l-6.8-17.8h2.9l5.4,15.6
	l-0.6-0.1l5.3-15.4h2.9l-8.1,21.1c-0.2,0.6-0.6,1-1.1,1.4s-1.1,0.5-1.6,0.5H1212.6L1212.6,979.2L1212.6,979.2z"/>
<path class="st1" d="M1237.3,973.4c-1.1,0-2.2-0.3-3.3-0.8s-1.9-1.5-2.5-2.8l0.1-0.1v3.4h-2.5v-23.5h2.6v10.1l-0.2-0.3
	c0.4-1.2,1.2-2.2,2.3-2.8s2.2-0.9,3.4-0.9c1.4,0,2.6,0.3,3.6,1.1s1.9,1.7,2.4,3.1c0.6,1.3,0.9,2.9,0.9,4.7s-0.3,3.4-0.9,4.7
	s-1.4,2.3-2.4,3C1239.8,973,1238.7,973.4,1237.3,973.4L1237.3,973.4L1237.3,973.4z M1236.6,971.2c1.4,0,2.5-0.6,3.4-1.7
	c0.9-1.2,1.3-2.8,1.3-5s-0.4-3.7-1.3-4.9s-2-1.7-3.5-1.7c-0.9,0-1.7,0.2-2.4,0.7c-0.7,0.5-1.3,1.2-1.8,2.2s-0.7,2.2-0.7,3.8
	c0,2.3,0.5,3.9,1.4,5S1235.3,971.2,1236.6,971.2L1236.6,971.2L1236.6,971.2z"/>
<path class="st1" d="M1252.9,973.4c-1.1,0-2.1-0.2-2.9-0.6s-1.5-1-1.9-1.8s-0.7-1.6-0.7-2.5c0-1,0.3-2,0.9-2.8
	c0.6-0.9,1.5-1.5,2.8-2s2.8-0.8,4.8-0.8h2.8l-0.3,0.3v-0.9c0-1.3-0.3-2.4-0.8-3.1c-0.6-0.7-1.4-1.1-2.7-1.1c-1.2,0-2.1,0.3-2.8,0.9
	s-1,1.4-1,2.5l-2.9-0.7c0.1-0.9,0.4-1.7,1.1-2.5c0.6-0.7,1.4-1.3,2.4-1.8s2.2-0.7,3.5-0.7s2.5,0.3,3.3,0.8c0.9,0.5,1.5,1.2,1.9,2.2
	s0.6,2.2,0.6,3.5v7.7c0,0.3,0.1,0.6,0.2,0.7c0.1,0.1,0.3,0.2,0.6,0.2h1v2.2h-1.7c-0.7,0-1.3-0.2-1.8-0.7s-0.7-1-0.7-1.7v-1.2h0.4
	c-0.2,0.5-0.4,0.9-0.7,1.3c-0.3,0.5-0.7,0.9-1.2,1.2s-1.1,0.7-1.7,0.9C1254.5,973.3,1253.8,973.4,1252.9,973.4L1252.9,973.4
	L1252.9,973.4z M1253.5,971.2c0.9,0,1.7-0.2,2.4-0.6s1.3-1.1,1.8-2c0.4-0.9,0.7-2.1,0.7-3.6v-0.1h-2.7c-1.4,0-2.5,0.2-3.3,0.5
	c-0.8,0.4-1.4,0.8-1.7,1.3c-0.3,0.5-0.5,1.1-0.5,1.6s0.1,1,0.3,1.4c0.3,0.4,0.6,0.8,1.1,1S1252.8,971.2,1253.5,971.2L1253.5,971.2
	L1253.5,971.2z"/>
<path class="st1" d="M1273,973.4c-1.6,0-2.9-0.3-4.1-1.1s-2.1-1.7-2.7-3s-0.9-2.9-0.9-4.7s0.3-3.4,0.9-4.7s1.5-2.3,2.7-3.1
	s2.5-1.1,4.1-1.1c1.2,0,2.3,0.2,3.2,0.7s1.8,1.1,2.4,1.9c0.7,0.8,1.2,1.8,1.5,3l-2.7,0.7c-0.3-1.3-0.8-2.3-1.6-3s-1.7-1.1-2.9-1.1
	c-1.6,0-2.8,0.6-3.6,1.7c-0.8,1.2-1.2,2.8-1.2,4.9s0.4,3.8,1.2,4.9s2.1,1.7,3.6,1.7c1.2,0,2.1-0.3,2.8-1s1.3-1.7,1.6-3l2.7,0.7
	c-0.3,0.9-0.6,1.6-1,2.3s-1,1.2-1.6,1.7s-1.3,0.8-2,1.1C1274.7,973.3,1273.9,973.4,1273,973.4L1273,973.4L1273,973.4z"/>
<path class="st1" d="M1283.9,973v-23.5h2.6v14.1l7.9-7.6h3.6l-7,6.4l7.1,10.5h-3.1l-5.9-8.7l-2.6,2.4v6.3L1283.9,973L1283.9,973
	L1283.9,973z"/>
<path class="st1" d="M1316.5,973.4c-1.6,0-2.9-0.3-4.1-1.1c-1.2-0.7-2.1-1.7-2.7-3s-0.9-2.9-0.9-4.7s0.3-3.4,0.9-4.7
	s1.5-2.3,2.7-3.1s2.5-1.1,4.1-1.1c1.2,0,2.3,0.2,3.2,0.7s1.8,1.1,2.4,1.9c0.7,0.8,1.2,1.8,1.5,3l-2.7,0.7c-0.3-1.3-0.8-2.3-1.6-3
	s-1.7-1.1-2.9-1.1c-1.6,0-2.8,0.6-3.6,1.7c-0.8,1.2-1.2,2.8-1.2,4.9s0.4,3.8,1.2,4.9s2.1,1.7,3.6,1.7c1.2,0,2.1-0.3,2.8-1
	s1.3-1.7,1.6-3l2.7,0.7c-0.3,0.9-0.6,1.6-1,2.3s-1,1.2-1.6,1.7s-1.3,0.8-2,1.1C1318.2,973.3,1317.4,973.4,1316.5,973.4L1316.5,973.4
	L1316.5,973.4z"/>
<path class="st1" d="M1334.4,973.4c-1.6,0-3-0.4-4.2-1.1s-2.2-1.8-2.8-3.1s-1-2.8-1-4.6s0.3-3.3,1-4.6s1.6-2.4,2.8-3.1
	c1.2-0.7,2.6-1.1,4.2-1.1s3,0.4,4.2,1.1s2.2,1.8,2.8,3.1c0.7,1.3,1,2.8,1,4.6s-0.3,3.3-1,4.6s-1.6,2.4-2.8,3.1
	S1336,973.4,1334.4,973.4z M1334.4,971.2c1.6,0,2.8-0.6,3.8-1.8s1.4-2.8,1.4-4.8s-0.4-3.7-1.4-4.9c-0.9-1.2-2.2-1.8-3.8-1.8
	s-2.8,0.6-3.8,1.8c-0.9,1.2-1.4,2.8-1.4,4.9s0.4,3.7,1.4,4.8S1332.8,971.2,1334.4,971.2z"/>
<path class="st1" d="M1347.7,953.3c-0.6,0-1.1-0.2-1.5-0.6s-0.6-0.9-0.6-1.5s0.2-1.1,0.6-1.5s0.9-0.6,1.5-0.6s1.1,0.2,1.6,0.6
	s0.6,0.9,0.6,1.5s-0.2,1.1-0.6,1.5S1348.4,953.3,1347.7,953.3z M1346.4,973v-16.9h2.6V973H1346.4z"/>
<path class="st1" d="M1356.7,973c-0.7,0-1.2-0.2-1.8-0.7s-0.7-1-0.7-1.7v-21.1h2.6V970c0,0.3,0.1,0.6,0.2,0.7
	c0.1,0.1,0.3,0.2,0.6,0.2h1.6v2.2L1356.7,973L1356.7,973L1356.7,973z"/>
<path class="st1" d="M1621.8,902.6v-22.5h8.1c2.6,0,4.6,0.5,5.9,1.6s2,2.6,2,4.7s-0.6,3.5-2,4.7c-1.3,1.1-3.3,1.6-6,1.6h-5.3v10
	L1621.8,902.6L1621.8,902.6L1621.8,902.6z M1624.6,890.3h5.3c1.6,0,2.8-0.3,3.7-1.1s1.3-1.7,1.3-2.8s-0.4-2-1.2-2.8
	s-2.1-1.2-3.8-1.2h-5.3V890.3z"/>
<path class="st1" d="M1644,902.6c-0.7,0-1.2-0.2-1.8-0.7s-0.7-1-0.7-1.7v-21.1h2.6v20.4c0,0.3,0.1,0.6,0.2,0.7
	c0.1,0.1,0.3,0.2,0.6,0.2h1.6v2.2L1644,902.6L1644,902.6L1644,902.6z"/>
<path class="st1" d="M1654.3,903c-1.1,0-2.1-0.2-2.9-0.6s-1.5-1-1.9-1.8s-0.7-1.6-0.7-2.6s0.3-2,0.9-2.8s1.5-1.5,2.8-2
	s2.8-0.8,4.8-0.8h2.8l-0.3,0.3v-0.9c0-1.3-0.3-2.4-0.8-3.1c-0.6-0.7-1.4-1.1-2.7-1.1c-1.2,0-2.1,0.3-2.8,0.9s-1,1.4-1,2.5l-2.9-0.7
	c0.1-0.9,0.4-1.7,1.1-2.5c0.6-0.7,1.4-1.3,2.4-1.8s2.2-0.7,3.5-0.7s2.5,0.3,3.3,0.8c0.9,0.5,1.5,1.2,1.9,2.2s0.6,2.2,0.6,3.5v7.7
	c0,0.3,0.1,0.6,0.2,0.7c0.1,0.1,0.3,0.2,0.6,0.2h1v2.2h-1.7c-0.7,0-1.3-0.2-1.8-0.7s-0.7-1-0.7-1.7V899h0.4
	c-0.2,0.5-0.4,0.9-0.7,1.3c-0.3,0.5-0.7,0.9-1.2,1.2s-1.1,0.7-1.7,1C1655.9,902.9,1655.2,902.9,1654.3,903L1654.3,903L1654.3,903z
	 M1654.9,900.8c0.9,0,1.7-0.2,2.4-0.6s1.3-1.1,1.8-2c0.4-0.9,0.7-2.1,0.7-3.6v-0.1h-2.7c-1.4,0-2.5,0.2-3.3,0.5s-1.4,0.8-1.7,1.3
	s-0.5,1.1-0.5,1.6s0.1,1,0.3,1.4s0.6,0.8,1.1,1S1654.1,900.8,1654.9,900.8L1654.9,900.8L1654.9,900.8z"/>
<path class="st1" d="M1673.4,903c-1.2,0-2.3-0.2-3.3-0.6s-1.8-1-2.5-1.8s-1.1-1.9-1.3-3.1l2.8-0.5c0.1,1.3,0.6,2.3,1.3,3
	c0.8,0.6,1.8,1,2.9,1s2.1-0.3,2.8-0.9s1.1-1.3,1.1-2.2c0-0.7-0.3-1.3-0.7-1.7s-1.2-0.7-2.2-0.9l-2.1-0.4c-0.6-0.1-1.1-0.3-1.7-0.5
	s-1.2-0.5-1.7-0.8s-0.9-0.8-1.2-1.3s-0.5-1.2-0.5-2c0-1.1,0.3-2,0.9-2.7s1.3-1.2,2.3-1.6s2-0.5,3.1-0.5c1.2,0,2.3,0.2,3.2,0.6
	s1.6,0.9,2.2,1.6s0.9,1.5,1.1,2.5l-2.9,0.6c-0.1-0.6-0.3-1.2-0.5-1.7c-0.3-0.5-0.6-0.8-1.2-1.1s-1.2-0.4-2-0.4c-1,0-1.8,0.2-2.5,0.6
	s-1.1,1-1.1,1.9c0,0.5,0.1,0.9,0.3,1.2s0.6,0.6,1.1,0.8s1.1,0.4,1.8,0.5l2.1,0.5c0.9,0.2,1.7,0.5,2.4,0.8s1.3,0.8,1.8,1.4
	s0.7,1.4,0.7,2.4c0,1.1-0.3,2.1-0.8,2.9s-1.3,1.4-2.3,1.9C1675.9,902.7,1674.7,903,1673.4,903L1673.4,903L1673.4,903z"/>
<path class="st1" d="M1684,902.6v-16.9h2.5v2.9c0.4-0.9,1.1-1.6,2-2.3c0.9-0.6,2-1,3.3-1c1.1,0,2.1,0.3,2.9,0.9s1.4,1.5,1.9,2.6
	c0.6-1,1.2-1.9,2.2-2.5c0.9-0.6,2-1,3.2-1c1.6,0,2.9,0.6,3.8,1.8s1.4,2.8,1.4,4.9v10.6h-2.6v-10.5c0-1-0.1-1.8-0.3-2.5
	c-0.2-0.7-0.5-1.2-1-1.6s-1.1-0.6-1.9-0.6c-0.9,0-1.6,0.3-2.3,0.7s-1.2,1.2-1.6,2.1s-0.6,2-0.6,3.4v8.8h-2.6v-10.5
	c0-1-0.1-1.8-0.3-2.5c-0.2-0.7-0.5-1.2-1-1.6s-1.1-0.6-1.8-0.6c-0.9,0-1.6,0.3-2.3,0.7s-1.2,1.2-1.6,2.1s-0.6,2-0.6,3.4v8.8
	L1684,902.6L1684,902.6z"/>
<path class="st1" d="M1716.4,903c-1.1,0-2.1-0.2-2.9-0.6s-1.5-1-1.9-1.8s-0.7-1.6-0.7-2.6s0.3-2,0.9-2.8s1.5-1.5,2.8-2
	s2.8-0.8,4.8-0.8h2.8l-0.3,0.3v-0.9c0-1.3-0.3-2.4-0.8-3.1c-0.6-0.7-1.4-1.1-2.7-1.1c-1.2,0-2.1,0.3-2.8,0.9s-1,1.4-1,2.5l-2.9-0.7
	c0.1-0.9,0.4-1.7,1.1-2.5c0.6-0.7,1.4-1.3,2.4-1.8s2.2-0.7,3.5-0.7s2.5,0.3,3.3,0.8c0.9,0.5,1.5,1.2,1.9,2.2s0.6,2.2,0.6,3.5v7.7
	c0,0.3,0.1,0.6,0.2,0.7c0.1,0.1,0.3,0.2,0.6,0.2h1v2.2h-1.7c-0.7,0-1.3-0.2-1.8-0.7s-0.7-1-0.7-1.7V899h0.4
	c-0.2,0.5-0.4,0.9-0.7,1.3c-0.3,0.5-0.7,0.9-1.2,1.2s-1.1,0.7-1.7,1C1718,902.9,1717.3,902.9,1716.4,903L1716.4,903L1716.4,903z
	 M1717,900.8c0.9,0,1.7-0.2,2.4-0.6s1.3-1.1,1.8-2c0.4-0.9,0.7-2.1,0.7-3.6v-0.1h-2.7c-1.4,0-2.5,0.2-3.3,0.5s-1.4,0.8-1.7,1.3
	s-0.5,1.1-0.5,1.6s0.1,1,0.3,1.4s0.6,0.8,1.1,1S1716.3,900.8,1717,900.8L1717,900.8L1717,900.8z"/>
<path class="st1" d="M1742.2,903c-1.1,0-2.1-0.2-2.9-0.6s-1.5-1-1.9-1.8s-0.7-1.6-0.7-2.6s0.3-2,0.9-2.8s1.5-1.5,2.8-2
	s2.8-0.8,4.8-0.8h2.8l-0.3,0.3v-0.9c0-1.3-0.3-2.4-0.8-3.1c-0.6-0.7-1.4-1.1-2.7-1.1c-1.2,0-2.1,0.3-2.8,0.9s-1,1.4-1,2.5l-2.9-0.7
	c0.1-0.9,0.4-1.7,1.1-2.5c0.6-0.7,1.4-1.3,2.4-1.8s2.2-0.7,3.5-0.7s2.5,0.3,3.3,0.8c0.9,0.5,1.5,1.2,1.9,2.2s0.6,2.2,0.6,3.5v7.7
	c0,0.3,0.1,0.6,0.2,0.7c0.1,0.1,0.3,0.2,0.6,0.2h1v2.2h-1.7c-0.7,0-1.3-0.2-1.8-0.7s-0.7-1-0.7-1.7V899h0.4
	c-0.2,0.5-0.4,0.9-0.7,1.3c-0.3,0.5-0.7,0.9-1.2,1.2s-1.1,0.7-1.7,1C1743.8,902.9,1743.1,902.9,1742.2,903L1742.2,903L1742.2,903z
	 M1742.8,900.8c0.9,0,1.7-0.2,2.4-0.6s1.3-1.1,1.8-2c0.4-0.9,0.7-2.1,0.7-3.6v-0.1h-2.7c-1.4,0-2.5,0.2-3.3,0.5s-1.4,0.8-1.7,1.3
	s-0.5,1.1-0.5,1.6s0.1,1,0.3,1.4s0.6,0.8,1.1,1S1742.1,900.8,1742.8,900.8L1742.8,900.8L1742.8,900.8z"/>
<path class="st1" d="M1755.6,902.6v-16.9h2.5v3.6l-0.1-0.4c0.5-1.2,1.2-2,2.3-2.7c1-0.6,2-0.9,3.1-0.9c0.3,0,0.6,0,0.9,0.1
	s0.5,0.1,0.8,0.3l-0.3,2.5c-0.6-0.2-1.2-0.3-1.7-0.3c-0.3,0-0.8,0.1-1.3,0.2c-0.5,0.1-1.1,0.4-1.6,0.8s-1,1.1-1.3,1.9
	s-0.5,2-0.5,3.3v8.5L1755.6,902.6L1755.6,902.6z"/>
<path class="st1" d="M1774.2,903c-1.6,0-2.9-0.3-4.1-1.1s-2.1-1.7-2.7-3s-0.9-2.9-0.9-4.7s0.3-3.4,0.9-4.7s1.5-2.3,2.7-3
	s2.5-1.1,4.1-1.1c1.2,0,2.3,0.2,3.2,0.7s1.8,1.1,2.4,1.9s1.2,1.8,1.5,3l-2.7,0.7c-0.3-1.3-0.8-2.3-1.6-3c-0.8-0.7-1.7-1.1-2.9-1.1
	c-1.6,0-2.8,0.6-3.6,1.7c-0.8,1.2-1.2,2.8-1.2,4.9s0.4,3.8,1.2,4.9s2.1,1.7,3.6,1.7c1.2,0,2.1-0.3,2.8-1c0.7-0.7,1.3-1.7,1.6-3
	l2.7,0.7c-0.3,0.9-0.6,1.6-1,2.3s-1,1.2-1.6,1.7s-1.3,0.8-2,1.1C1775.9,902.9,1775.1,903,1774.2,903L1774.2,903L1774.2,903z"/>
<path class="st1" d="M1591.2,941.4c-1.7,0-3.2-0.3-4.5-0.9s-2.3-1.4-3.1-2.5c-0.8-1.1-1.3-2.4-1.6-4l3.3-0.7
	c0.1,1.9,0.6,3.3,1.6,4.3s2.4,1.5,4.2,1.5c1.1,0,2-0.2,2.8-0.5s1.3-0.9,1.7-1.5c0.4-0.6,0.6-1.4,0.6-2.3c0-1.2-0.3-2-1-2.6
	s-1.6-1-2.8-1.2l-2.9-0.7c-0.6-0.1-1.2-0.3-1.9-0.5s-1.4-0.5-2.1-1s-1.2-1-1.7-1.7c-0.4-0.7-0.7-1.7-0.7-2.8c0-1.4,0.4-2.6,1.1-3.5
	s1.7-1.6,2.9-2s2.5-0.6,3.8-0.6c1.6,0,2.9,0.3,4,0.7s2,1.2,2.7,2.1c0.7,0.9,1.2,2,1.4,3.3l-3.3,0.7c-0.1-1-0.3-1.8-0.7-2.4
	c-0.4-0.7-0.9-1.2-1.6-1.5s-1.6-0.5-2.6-0.5c-0.8,0-1.6,0.1-2.4,0.4c-0.7,0.3-1.3,0.6-1.8,1.2s-0.7,1.2-0.7,2.1s0.3,1.6,0.9,2.2
	s1.7,1,3.1,1.3l3,0.7c1.1,0.3,2.1,0.6,3,1.1s1.7,1.2,2.3,2c0.6,0.9,0.9,2,0.9,3.4s-0.3,2.6-1,3.6s-1.6,1.8-2.8,2.3
	C1594.3,941.2,1592.8,941.5,1591.2,941.4L1591.2,941.4L1591.2,941.4z"/>
<path class="st1" d="M1603.2,947.2v-23h2.5v3.5l-0.1-0.3c0.4-1.2,1.2-2.2,2.3-2.8s2.2-0.9,3.4-0.9c1.4,0,2.6,0.3,3.6,1.1
	s1.9,1.7,2.4,3.1s0.9,2.9,0.9,4.7s-0.3,3.4-0.9,4.7s-1.4,2.3-2.4,3c-1.1,0.7-2.2,1.1-3.6,1.1c-1.1,0-2.2-0.3-3.3-0.8
	s-1.9-1.5-2.5-2.8l0.2-0.1v9.5H1603.2L1603.2,947.2L1603.2,947.2z M1610.6,939.2c1.4,0,2.5-0.6,3.4-1.7c0.9-1.2,1.3-2.8,1.3-5
	s-0.4-3.7-1.3-4.9s-2-1.7-3.5-1.7c-0.9,0-1.7,0.2-2.4,0.7c-0.7,0.5-1.3,1.2-1.8,2.2s-0.7,2.2-0.7,3.8c0,2.3,0.5,3.9,1.4,5
	S1609.2,939.2,1610.6,939.2L1610.6,939.2L1610.6,939.2z"/>
<path class="st1" d="M1626.9,941.4c-1.1,0-2.1-0.2-2.9-0.6s-1.5-1-1.9-1.8s-0.7-1.6-0.7-2.6s0.3-2,0.9-2.8s1.5-1.5,2.8-2
	s2.8-0.8,4.8-0.8h2.8l-0.3,0.3v-0.9c0-1.3-0.3-2.4-0.8-3.1c-0.6-0.7-1.4-1.1-2.7-1.1c-1.2,0-2.1,0.3-2.8,0.9s-1,1.4-1,2.5l-2.9-0.7
	c0.1-0.9,0.4-1.7,1.1-2.5c0.6-0.7,1.4-1.3,2.4-1.8s2.2-0.7,3.5-0.7s2.5,0.3,3.3,0.8c0.9,0.5,1.5,1.2,1.9,2.2s0.6,2.2,0.6,3.5v7.7
	c0,0.3,0.1,0.6,0.2,0.7c0.1,0.1,0.3,0.2,0.6,0.2h1v2.2h-1.7c-0.7,0-1.3-0.2-1.8-0.7s-0.7-1-0.7-1.7v-1.2h0.4
	c-0.2,0.5-0.4,0.9-0.7,1.3c-0.3,0.5-0.7,0.9-1.2,1.2s-1.1,0.7-1.7,1C1628.5,941.3,1627.8,941.4,1626.9,941.4L1626.9,941.4
	L1626.9,941.4z M1627.5,939.2c0.9,0,1.7-0.2,2.4-0.6s1.3-1.1,1.8-2c0.4-0.9,0.7-2.1,0.7-3.6v-0.1h-2.7c-1.4,0-2.5,0.2-3.3,0.5
	s-1.4,0.8-1.7,1.3s-0.5,1.1-0.5,1.6s0.1,1,0.3,1.4s0.6,0.8,1.1,1S1626.8,939.2,1627.5,939.2L1627.5,939.2L1627.5,939.2z"/>
<path class="st1" d="M1640.2,941.1v-16.9h2.5v3.6l-0.1-0.4c0.5-1.2,1.2-2,2.3-2.7c1-0.6,2-0.9,3.1-0.9c0.3,0,0.6,0,0.9,0.1
	s0.6,0.1,0.8,0.3l-0.3,2.5c-0.6-0.2-1.2-0.3-1.7-0.3c-0.3,0-0.8,0.1-1.3,0.2c-0.6,0.1-1.1,0.4-1.6,0.8s-1,1.1-1.3,1.9
	c-0.3,0.8-0.5,2-0.5,3.3v8.5L1640.2,941.1L1640.2,941.1z"/>
<path class="st1" d="M1652.4,941.1v-23.5h2.6v14.1l7.9-7.6h3.6l-7,6.4l7.1,10.5h-3.1l-5.9-8.7l-2.6,2.4v6.3L1652.4,941.1
	L1652.4,941.1L1652.4,941.1z"/>
<path class="st1" d="M1683.9,941.4c-1.4,0-2.6-0.3-3.6-1.1c-1.1-0.7-1.9-1.7-2.4-3.1s-0.9-2.9-0.9-4.7s0.3-3.4,0.9-4.7
	s1.4-2.3,2.4-3c1.1-0.7,2.2-1.1,3.6-1.1c1.1,0,2.2,0.3,3.3,0.8s1.9,1.5,2.5,2.8l-0.3,0.1v-10h2.6V941h-2.5v-3.5l0.1,0.3
	c-0.4,1.2-1.2,2.2-2.3,2.8S1685.1,941.4,1683.9,941.4L1683.9,941.4L1683.9,941.4z M1684.6,939.2c0.9,0,1.7-0.2,2.4-0.7
	s1.3-1.2,1.8-2.2s0.7-2.2,0.7-3.8c0-2.3-0.5-3.9-1.4-5.1c-0.9-1.1-2.1-1.6-3.4-1.6c-1.4,0-2.5,0.6-3.4,1.7c-0.9,1.2-1.3,2.8-1.3,5
	s0.4,3.7,1.3,4.9C1682,938.7,1683.2,939.3,1684.6,939.2L1684.6,939.2L1684.6,939.2z"/>
<path class="st1" d="M1698.4,921.3c-0.6,0-1.1-0.2-1.5-0.6s-0.6-0.9-0.6-1.5s0.2-1.1,0.6-1.6c0.4-0.4,0.9-0.6,1.5-0.6
	s1.1,0.2,1.6,0.6s0.6,0.9,0.6,1.6s-0.2,1.1-0.6,1.5S1699,921.3,1698.4,921.3z M1697.1,941.1v-16.9h2.6v16.9H1697.1z"/>
<path class="st1" d="M1710.4,941.4c-1.2,0-2.3-0.2-3.3-0.6s-1.8-1-2.5-1.8s-1.1-1.9-1.3-3.1l2.8-0.5c0.1,1.3,0.6,2.3,1.3,3
	c0.8,0.6,1.8,1,2.9,1s2.1-0.3,2.8-0.9s1.1-1.3,1.1-2.2c0-0.7-0.3-1.3-0.7-1.7s-1.2-0.7-2.2-0.9l-2.1-0.4c-0.6-0.1-1.1-0.3-1.7-0.5
	s-1.2-0.5-1.7-0.8s-0.9-0.8-1.2-1.3s-0.5-1.2-0.5-2c0-1.1,0.3-2,0.9-2.7s1.3-1.2,2.3-1.6s2-0.5,3.1-0.5c1.2,0,2.3,0.2,3.2,0.6
	s1.6,0.9,2.2,1.6s0.9,1.5,1.1,2.5l-2.9,0.6c-0.1-0.6-0.3-1.2-0.5-1.7c-0.3-0.5-0.6-0.8-1.2-1.1s-1.2-0.4-2-0.4c-1,0-1.8,0.2-2.5,0.6
	s-1.1,1-1.1,1.9c0,0.5,0.1,0.9,0.3,1.2s0.6,0.6,1.1,0.8s1.1,0.4,1.8,0.5l2.1,0.5c0.9,0.2,1.7,0.5,2.4,0.8s1.3,0.8,1.8,1.4
	s0.7,1.4,0.7,2.4c0,1.1-0.3,2.1-0.8,2.9s-1.3,1.4-2.3,1.9C1712.9,941.2,1711.8,941.4,1710.4,941.4L1710.4,941.4L1710.4,941.4z"/>
<path class="st1" d="M1728.1,941.4c-1.6,0-2.9-0.3-4.1-1.1s-2.1-1.7-2.7-3s-0.9-2.9-0.9-4.7s0.3-3.4,0.9-4.7s1.5-2.3,2.7-3
	s2.5-1.1,4.1-1.1c1.2,0,2.3,0.2,3.2,0.7s1.8,1.1,2.4,1.9c0.7,0.8,1.2,1.8,1.5,3l-2.7,0.7c-0.3-1.3-0.8-2.3-1.6-3
	c-0.8-0.7-1.7-1.1-2.9-1.1c-1.6,0-2.8,0.6-3.6,1.7c-0.8,1.2-1.2,2.8-1.2,4.9s0.4,3.8,1.2,4.9s2.1,1.7,3.6,1.7c1.2,0,2.1-0.3,2.8-1
	c0.7-0.7,1.3-1.7,1.6-3l2.7,0.7c-0.3,0.9-0.6,1.6-1,2.3s-1,1.2-1.6,1.7s-1.3,0.8-2,1.1C1729.8,941.4,1729,941.5,1728.1,941.4
	L1728.1,941.4L1728.1,941.4z"/>
<path class="st1" d="M1739,941.1v-23.5h2.6v10.5l-0.3-0.7c0.4-1.1,1.2-1.9,2.1-2.6c1-0.7,2.2-1,3.6-1c1.2,0,2.2,0.3,3.1,0.8
	s1.5,1.3,2,2.3s0.7,2.2,0.7,3.6v10.6h-2.6v-10.5c0-1.4-0.3-2.6-0.8-3.4s-1.5-1.2-2.8-1.2c-1.5,0-2.7,0.5-3.6,1.6
	c-0.9,1-1.3,2.6-1.3,4.7v8.8L1739,941.1L1739,941.1L1739,941.1z"/>
<path class="st1" d="M1762,941.4c-1.1,0-2.1-0.2-2.9-0.6s-1.5-1-1.9-1.8s-0.7-1.6-0.7-2.6s0.3-2,0.9-2.8s1.5-1.5,2.8-2
	s2.8-0.8,4.8-0.8h2.8l-0.3,0.3v-0.9c0-1.3-0.3-2.4-0.8-3.1c-0.5-0.7-1.4-1.1-2.7-1.1c-1.2,0-2.1,0.3-2.8,0.9s-1,1.4-1,2.5l-2.9-0.7
	c0.1-0.9,0.4-1.7,1.1-2.5c0.6-0.7,1.4-1.3,2.4-1.8s2.2-0.7,3.5-0.7s2.5,0.3,3.3,0.8c0.9,0.5,1.5,1.2,1.9,2.2s0.6,2.2,0.6,3.5v7.7
	c0,0.3,0.1,0.6,0.2,0.7c0.1,0.1,0.3,0.2,0.6,0.2h1v2.2h-1.7c-0.7,0-1.3-0.2-1.8-0.7s-0.7-1-0.7-1.7v-1.2h0.4
	c-0.2,0.5-0.4,0.9-0.7,1.3c-0.3,0.5-0.7,0.9-1.2,1.2s-1.1,0.7-1.7,1C1763.7,941.3,1762.9,941.4,1762,941.4L1762,941.4L1762,941.4z
	 M1762.7,939.2c0.9,0,1.7-0.2,2.4-0.6s1.3-1.1,1.8-2c0.4-0.9,0.7-2.1,0.7-3.6v-0.1h-2.7c-1.4,0-2.5,0.2-3.3,0.5s-1.4,0.8-1.7,1.3
	s-0.5,1.1-0.5,1.6s0.1,1,0.3,1.4s0.6,0.8,1.1,1S1761.9,939.2,1762.7,939.2L1762.7,939.2L1762.7,939.2z"/>
<path class="st1" d="M1775.4,941.1v-16.9h2.5v3.6l-0.1-0.4c0.5-1.2,1.2-2,2.3-2.7c1-0.6,2-0.9,3.1-0.9c0.3,0,0.6,0,0.9,0.1
	s0.5,0.1,0.8,0.3l-0.3,2.5c-0.6-0.2-1.2-0.3-1.7-0.3c-0.3,0-0.8,0.1-1.3,0.2c-0.5,0.1-1.1,0.4-1.6,0.8s-1,1.1-1.3,1.9
	s-0.5,2-0.5,3.3v8.5L1775.4,941.1L1775.4,941.1z"/>
<path class="st1" d="M1793.3,947.5c-2.5,0-4.4-0.3-5.6-1.1s-1.8-1.8-1.8-3.3c0-0.8,0.2-1.6,0.6-2.2s1.2-1.2,2.2-1.5
	c-0.4-0.3-0.7-0.5-1-1s-0.4-0.8-0.4-1.3c0-0.6,0.2-1.1,0.5-1.6s0.9-0.8,1.6-1c-0.8-0.5-1.5-1.2-2-2s-0.7-1.8-0.7-3s0.3-2.2,0.8-3.1
	c0.5-0.9,1.3-1.6,2.3-2c1-0.5,2.2-0.7,3.6-0.7s2.6,0.3,3.6,0.7c1,0.5,1.8,1.2,2.3,2c0.5,0.9,0.8,2,0.8,3.2s-0.3,2.2-0.8,3.1
	c-0.5,0.9-1.3,1.5-2.3,2s-2.2,0.7-3.6,0.7h-1.4c-1.3,0-2,0.4-2,1.2c0,0.7,0.6,1.1,1.9,1.1h3.4c1.3,0,2.4,0.2,3.2,0.5
	c0.8,0.3,1.4,0.7,1.9,1.2c0.4,0.5,0.7,1,0.9,1.6s0.2,1.1,0.2,1.6c0,1.7-0.6,2.9-1.8,3.7s-3.1,1.2-5.6,1.2L1793.3,947.5L1793.3,947.5
	L1793.3,947.5z M1793.3,945.4h1c3.1,0,4.7-0.9,4.7-2.8c0-0.8-0.3-1.4-0.8-1.9s-1.5-0.7-2.8-0.7h-2.9c-1.1,0-1.9,0.2-2.6,0.6
	c-0.7,0.4-1.1,1.1-1.1,2.1s0.4,1.6,1.1,2C1790.5,945.2,1791.7,945.4,1793.3,945.4L1793.3,945.4L1793.3,945.4z M1793.6,933.7
	c1.3,0,2.3-0.3,3.1-1c0.7-0.7,1.1-1.7,1.1-3s-0.3-2.3-1.1-3s-1.7-1.1-3.1-1.1s-2.3,0.3-3,1.1c-0.7,0.7-1.1,1.7-1.1,3s0.3,2.3,1.1,3
	C1791.3,933.3,1792.2,933.7,1793.6,933.7z M1796.3,925.5v-1.7c0-0.7,0.3-1.2,0.7-1.7c0.5-0.5,1.1-0.7,1.8-0.7h2v2.2h-1.7
	c-0.3,0-0.5,0.1-0.6,0.2c-0.1,0.1-0.2,0.3-0.2,0.7v1H1796.3L1796.3,925.5L1796.3,925.5z"/>
<path class="st1" d="M1811.9,941.4c-1.6,0-3-0.3-4.2-1.1c-1.2-0.7-2.1-1.7-2.7-3s-1-2.9-1-4.7s0.3-3.4,1-4.7s1.5-2.3,2.7-3.1
	s2.5-1.1,4.1-1.1c0.9,0,1.8,0.1,2.7,0.4s1.7,0.8,2.5,1.5c0.7,0.7,1.3,1.7,1.8,2.9s0.7,2.8,0.7,4.7h-13.7v-2.1h11.4l-0.7,1
	c-0.1-1.5-0.3-2.7-0.7-3.6s-1-1.5-1.7-2c-0.7-0.4-1.4-0.6-2.3-0.6c-1,0-1.9,0.3-2.6,0.8s-1.3,1.3-1.7,2.3s-0.6,2.2-0.6,3.6
	c0,2.1,0.4,3.8,1.3,4.9c0.9,1.2,2.1,1.7,3.7,1.7c1.1,0,2.1-0.3,2.9-0.9c0.8-0.6,1.3-1.4,1.7-2.5l2.6,0.9c-0.4,1-1,1.8-1.6,2.5
	c-0.7,0.7-1.5,1.2-2.4,1.6S1813,941.3,1811.9,941.4L1811.9,941.4L1811.9,941.4z"/>
<path class="st1" d="M1568,979.9c-2.2,0-4.2-0.5-5.8-1.4s-2.9-2.3-3.8-4s-1.3-3.8-1.3-6.2s0.4-4.5,1.3-6.2s2.2-3.1,3.8-4
	c1.6-0.9,3.6-1.4,5.8-1.4s4.2,0.5,5.8,1.4s2.9,2.3,3.8,4s1.3,3.8,1.3,6.2s-0.4,4.5-1.3,6.2s-2.2,3.1-3.8,4S1570.3,979.9,1568,979.9z
	 M1568,977.6c1.6,0,3-0.4,4.2-1.1c1.2-0.8,2.1-1.8,2.7-3.2s1-3,1-5s-0.3-3.6-1-5c-0.6-1.4-1.5-2.5-2.7-3.2s-2.6-1.1-4.2-1.1
	s-3,0.4-4.2,1.1c-1.2,0.8-2.1,1.8-2.7,3.2s-1,3-1,5s0.3,3.6,1,5s1.5,2.5,2.7,3.2S1566.4,977.6,1568,977.6z"/>
<path class="st1" d="M1582.9,979.5v-16.9h2.5v2.9c0.4-0.9,1.1-1.6,2-2.3c0.9-0.6,2-1,3.3-1c1.1,0,2.1,0.3,2.9,0.9s1.4,1.5,1.9,2.6
	c0.6-1,1.2-1.9,2.2-2.5c0.9-0.6,2-1,3.2-1c1.6,0,2.9,0.6,3.8,1.8s1.4,2.8,1.4,4.9v10.6h-2.6V969c0-1-0.1-1.8-0.3-2.5
	c-0.2-0.7-0.5-1.2-1-1.6s-1.1-0.6-1.9-0.6c-0.9,0-1.6,0.3-2.3,0.7s-1.2,1.2-1.6,2.1s-0.6,2-0.6,3.4v8.8h-2.6v-10.5
	c0-1-0.1-1.8-0.3-2.5c-0.2-0.7-0.5-1.2-1-1.6s-1.1-0.6-1.8-0.6c-0.9,0-1.6,0.3-2.3,0.7s-1.2,1.2-1.6,2.1s-0.6,2-0.6,3.4v8.8
	L1582.9,979.5L1582.9,979.5z"/>
<path class="st1" d="M1610.9,979.5v-16.9h2.5v3.8l-0.1-0.7c0.4-1,1.2-1.8,2.1-2.5c1-0.7,2.2-1,3.5-1c1.2,0,2.2,0.3,3.1,0.8
	s1.5,1.3,2,2.3s0.7,2.2,0.7,3.6v10.6h-2.6V969c0-1.4-0.3-2.5-0.9-3.4s-1.5-1.3-2.8-1.3c-1.4,0-2.6,0.5-3.5,1.6s-1.4,2.6-1.4,4.7v8.8
	L1610.9,979.5L1610.9,979.5L1610.9,979.5z"/>
<path class="st1" d="M1630.9,959.8c-0.6,0-1.1-0.2-1.5-0.6s-0.6-0.9-0.6-1.5s0.2-1.1,0.6-1.6c0.4-0.4,0.9-0.6,1.5-0.6
	s1.1,0.2,1.6,0.6s0.6,0.9,0.6,1.6s-0.2,1.1-0.6,1.5S1631.5,959.8,1630.9,959.8z M1629.5,979.5v-16.9h2.6v16.9H1629.5z"/>
<path class="st1" d="M1647.4,971.7c-0.7,0-1.2-0.2-1.7-0.7s-0.7-1-0.7-1.7s0.2-1.2,0.7-1.7s1-0.7,1.7-0.7s1.2,0.2,1.7,0.7
	s0.7,1,0.7,1.7s-0.2,1.2-0.7,1.7S1648,971.7,1647.4,971.7z"/>
<path class="st1" d="M1662.5,985.6v-23h2.5v3.5l-0.1-0.3c0.4-1.2,1.2-2.2,2.3-2.8s2.2-0.9,3.4-0.9c1.4,0,2.6,0.3,3.6,1.1
	s1.9,1.7,2.4,3.1s0.9,2.9,0.9,4.7s-0.3,3.4-0.9,4.7s-1.4,2.3-2.4,3c-1.1,0.7-2.2,1.1-3.6,1.1c-1.1,0-2.2-0.3-3.3-0.8
	s-1.9-1.5-2.5-2.8l0.2-0.1v9.5H1662.5L1662.5,985.6L1662.5,985.6z M1669.9,977.7c1.4,0,2.5-0.6,3.4-1.7c0.9-1.2,1.3-2.8,1.3-5
	s-0.4-3.7-1.3-4.9s-2-1.7-3.5-1.7c-0.9,0-1.7,0.2-2.4,0.7c-0.7,0.5-1.3,1.2-1.8,2.2s-0.7,2.2-0.7,3.8c0,2.3,0.5,3.9,1.4,5
	S1668.6,977.7,1669.9,977.7L1669.9,977.7L1669.9,977.7z"/>
<path class="st1" d="M1689.3,979.9c-1.6,0-3-0.4-4.2-1.1s-2.2-1.8-2.8-3.1s-1-2.8-1-4.6s0.3-3.3,1-4.6s1.6-2.4,2.8-3.1
	c1.2-0.7,2.6-1.1,4.2-1.1s3,0.4,4.2,1.1s2.2,1.8,2.8,3.1s1,2.8,1,4.6s-0.3,3.3-1,4.6s-1.6,2.4-2.8,3.1
	C1692.3,979.5,1690.9,979.9,1689.3,979.9z M1689.3,977.7c1.6,0,2.8-0.6,3.8-1.8s1.4-2.8,1.4-4.8s-0.4-3.7-1.4-4.9
	c-0.9-1.2-2.2-1.8-3.8-1.8s-2.8,0.6-3.8,1.8c-0.9,1.2-1.4,2.8-1.4,4.9s0.4,3.7,1.4,4.8S1687.7,977.7,1689.3,977.7z"/>
<path class="st1" d="M1702.6,959.8c-0.6,0-1.1-0.2-1.5-0.6s-0.6-0.9-0.6-1.5s0.2-1.1,0.6-1.6c0.4-0.4,0.9-0.6,1.5-0.6
	s1.1,0.2,1.6,0.6s0.6,0.9,0.6,1.6s-0.2,1.1-0.6,1.5S1703.2,959.8,1702.6,959.8z M1701.3,979.5v-16.9h2.6v16.9H1701.3z"/>
<path class="st1" d="M1709.1,979.5v-16.9h2.5v3.8l-0.1-0.7c0.4-1,1.2-1.8,2.1-2.5c1-0.7,2.2-1,3.5-1c1.2,0,2.2,0.3,3.1,0.8
	s1.5,1.3,2,2.3s0.7,2.2,0.7,3.6v10.6h-2.6V969c0-1.4-0.3-2.5-0.9-3.4s-1.5-1.3-2.8-1.3c-1.4,0-2.6,0.5-3.5,1.6s-1.4,2.6-1.4,4.7v8.8
	L1709.1,979.5L1709.1,979.5L1709.1,979.5z"/>
<path class="st1" d="M1730.9,979.5c-0.7,0-1.2-0.2-1.8-0.7s-0.7-1-0.7-1.7v-12.4h-2.7v-2.2h2.7V959l2.6-0.6v4.1h3.3v2.2h-3.3v11.7
	c0,0.3,0.1,0.6,0.2,0.7c0.1,0.1,0.3,0.2,0.6,0.2h2.6v2.2H1730.9L1730.9,979.5L1730.9,979.5z"/>
<path class="st1" d="M1752.1,979.9c-1.2,0-2.3-0.2-3.3-0.6s-1.8-1-2.5-1.8s-1.1-1.9-1.3-3.1l2.8-0.5c0.1,1.3,0.6,2.3,1.3,3
	c0.8,0.6,1.8,1,2.9,1s2.1-0.3,2.8-0.9s1.1-1.3,1.1-2.2c0-0.7-0.3-1.3-0.7-1.7s-1.2-0.7-2.2-0.9l-2.1-0.4c-0.6-0.1-1.1-0.3-1.7-0.5
	s-1.2-0.5-1.7-0.8s-0.9-0.8-1.2-1.3s-0.5-1.2-0.5-2c0-1.1,0.3-2,0.9-2.7s1.3-1.2,2.3-1.6s2-0.5,3.1-0.5c1.2,0,2.3,0.2,3.2,0.6
	s1.6,0.9,2.2,1.6s0.9,1.5,1.1,2.5l-2.9,0.6c-0.1-0.6-0.3-1.2-0.5-1.7c-0.3-0.5-0.6-0.8-1.2-1.1s-1.2-0.4-2-0.4c-1,0-1.8,0.2-2.5,0.6
	s-1.1,1-1.1,1.9c0,0.5,0.1,0.9,0.3,1.2s0.6,0.6,1.1,0.8s1.1,0.4,1.8,0.5l2.1,0.5c0.9,0.2,1.7,0.5,2.4,0.8s1.3,0.8,1.8,1.4
	s0.7,1.4,0.7,2.4c0,1.1-0.3,2.1-0.8,2.9s-1.3,1.4-2.3,1.9C1754.6,979.7,1753.4,979.9,1752.1,979.9L1752.1,979.9L1752.1,979.9z"/>
<path class="st1" d="M1770,979.9c-1.6,0-3-0.4-4.2-1.1s-2.2-1.8-2.8-3.1s-1-2.8-1-4.6s0.3-3.3,1-4.6s1.6-2.4,2.8-3.1
	c1.2-0.7,2.6-1.1,4.2-1.1s3,0.4,4.2,1.1s2.2,1.8,2.8,3.1s1,2.8,1,4.6s-0.3,3.3-1,4.6s-1.6,2.4-2.8,3.1
	C1772.9,979.5,1771.6,979.9,1770,979.9z M1770,977.7c1.6,0,2.8-0.6,3.8-1.8s1.4-2.8,1.4-4.8s-0.4-3.7-1.4-4.9s-2.2-1.8-3.8-1.8
	s-2.8,0.6-3.8,1.8s-1.4,2.8-1.4,4.9s0.4,3.7,1.4,4.8S1768.4,977.7,1770,977.7z"/>
<path class="st1" d="M1787.6,979.9c-1.2,0-2.2-0.3-3.1-0.8s-1.5-1.3-2-2.3s-0.7-2.2-0.7-3.6v-10.6h2.6v10.5c0,1.4,0.3,2.5,0.8,3.4
	s1.5,1.3,2.8,1.3c1,0,1.9-0.3,2.6-0.8s1.3-1.3,1.7-2.3c0.4-1.1,0.6-2.3,0.6-3.9v-8h2.6v16.9h-2.5v-4l0.1,0.7
	c-0.4,1.1-1.2,1.9-2.1,2.6S1788.9,979.9,1787.6,979.9L1787.6,979.9L1787.6,979.9z"/>
<path class="st1" d="M1800.7,979.5v-16.9h2.5v3.6l-0.1-0.4c0.5-1.2,1.2-2,2.3-2.7c1-0.6,2-0.9,3.1-0.9c0.3,0,0.6,0,0.9,0.1
	s0.5,0.1,0.8,0.3l-0.3,2.5c-0.6-0.2-1.2-0.3-1.7-0.3c-0.3,0-0.8,0.1-1.3,0.2c-0.5,0.1-1.1,0.4-1.6,0.8s-1,1.1-1.3,1.9
	s-0.5,2-0.5,3.3v8.5L1800.7,979.5L1800.7,979.5z"/>
<path class="st1" d="M1819.4,979.9c-1.6,0-2.9-0.3-4.1-1.1s-2.1-1.7-2.7-3s-0.9-2.9-0.9-4.7s0.3-3.4,0.9-4.7s1.5-2.3,2.7-3
	s2.5-1.1,4.1-1.1c1.2,0,2.3,0.2,3.2,0.7s1.8,1.1,2.4,1.9s1.2,1.8,1.5,3l-2.7,0.7c-0.3-1.3-0.8-2.3-1.6-3c-0.8-0.7-1.7-1.1-2.9-1.1
	c-1.6,0-2.8,0.6-3.6,1.7c-0.8,1.2-1.2,2.8-1.2,4.9s0.4,3.8,1.2,4.9s2.1,1.7,3.6,1.7c1.2,0,2.1-0.3,2.8-1c0.7-0.7,1.3-1.7,1.6-3
	l2.7,0.7c-0.3,0.9-0.6,1.6-1,2.3s-1,1.2-1.6,1.7s-1.3,0.8-2,1.1C1821.1,979.8,1820.3,979.9,1819.4,979.9L1819.4,979.9L1819.4,979.9z
	"/>
<path class="st1" d="M1837.2,979.9c-1.6,0-3-0.3-4.2-1.1c-1.2-0.7-2.1-1.7-2.7-3s-1-2.9-1-4.7s0.3-3.4,1-4.7s1.5-2.3,2.7-3.1
	s2.5-1.1,4.1-1.1c0.9,0,1.8,0.1,2.7,0.4s1.7,0.8,2.5,1.5c0.7,0.7,1.3,1.7,1.8,2.9s0.7,2.8,0.7,4.7H1831v-2.1h11.4l-0.7,1
	c-0.1-1.5-0.3-2.7-0.7-3.6s-1-1.5-1.7-2c-0.7-0.4-1.4-0.6-2.3-0.6c-1,0-1.9,0.3-2.6,0.8s-1.3,1.3-1.7,2.3s-0.6,2.2-0.6,3.6
	c0,2.1,0.4,3.8,1.3,4.9c0.9,1.2,2.1,1.7,3.7,1.7c1.1,0,2.1-0.3,2.9-0.9c0.8-0.6,1.3-1.4,1.7-2.5l2.6,0.9c-0.4,1-1,1.8-1.6,2.5
	c-0.7,0.7-1.5,1.2-2.4,1.6S1838.4,979.8,1837.2,979.9L1837.2,979.9L1837.2,979.9z"/>
<path class="st1" d="M683.7,389.5V367h8.6c5.2,0,7.8,2,7.8,5.9s-2.6,6-7.9,6h-5.7v10.6H683.7L683.7,389.5L683.7,389.5z M686.5,376.6
	h5.8c1.6,0,2.8-0.3,3.7-0.9s1.3-1.5,1.3-2.7s-0.4-2.1-1.3-2.7s-2.1-1-3.7-1h-5.8V376.6z M696.9,389.5l-6-11.4h3.2l6,11.4H696.9z"/>
<path class="st1" d="M710.5,389.9c-1.6,0-3-0.4-4.2-1.1s-2.1-1.7-2.7-3s-1-2.9-1-4.7s0.3-3.4,1-4.7s1.5-2.3,2.7-3.1s2.5-1.1,4.1-1.1
	c0.9,0,1.8,0.1,2.7,0.4s1.7,0.8,2.5,1.5s1.3,1.7,1.8,2.9s0.7,2.8,0.7,4.6h-13.7v-2.1h11.4l-0.7,1c-0.1-1.5-0.3-2.7-0.7-3.6
	s-1-1.5-1.7-2s-1.4-0.6-2.3-0.6c-1,0-1.9,0.3-2.6,0.8s-1.3,1.3-1.7,2.3s-0.6,2.2-0.6,3.6c0,2.1,0.4,3.8,1.3,4.9s2.1,1.7,3.7,1.7
	c1.1,0,2.1-0.3,2.9-0.9s1.3-1.4,1.7-2.5l2.6,0.9c-0.4,1-1,1.8-1.6,2.5s-1.5,1.2-2.4,1.6S711.6,389.9,710.5,389.9L710.5,389.9
	L710.5,389.9z"/>
<path class="st1" d="M724.4,389.5c-0.7,0-1.2-0.2-1.8-0.7s-0.7-1-0.7-1.7V366h2.6v20.4c0,0.4,0.1,0.6,0.2,0.7s0.3,0.2,0.6,0.2h1.6
	v2.2H724.4L724.4,389.5L724.4,389.5z"/>
<path class="st1" d="M734.7,389.9c-1.1,0-2.1-0.2-3-0.6s-1.5-1-1.9-1.8s-0.7-1.6-0.7-2.6s0.3-2,0.9-2.8s1.5-1.5,2.8-2
	s2.8-0.8,4.8-0.8h2.8l-0.3,0.3v-0.9c0-1.4-0.3-2.4-0.8-3.1s-1.4-1.1-2.7-1.1c-1.2,0-2.1,0.3-2.8,0.9s-1,1.4-1,2.5l-3-0.7
	c0.1-0.9,0.5-1.7,1-2.5s1.4-1.4,2.4-1.8s2.2-0.7,3.5-0.7s2.5,0.3,3.3,0.8s1.5,1.2,1.9,2.2s0.6,2.1,0.6,3.5v7.7
	c0,0.4,0.1,0.6,0.2,0.7s0.3,0.2,0.6,0.2h1v2.2h-1.7c-0.7,0-1.3-0.2-1.8-0.7s-0.7-1-0.7-1.7V386h0.4c-0.2,0.5-0.4,0.9-0.7,1.4
	s-0.7,0.9-1.2,1.3s-1.1,0.7-1.7,1S735.6,390,734.7,389.9L734.7,389.9L734.7,389.9z M735.3,387.8c0.9,0,1.7-0.2,2.4-0.6
	s1.3-1.1,1.8-2s0.7-2.1,0.7-3.6v-0.1h-2.7c-1.4,0-2.5,0.2-3.3,0.5s-1.4,0.8-1.7,1.4s-0.5,1.1-0.5,1.6s0.1,1,0.3,1.4s0.6,0.8,1.1,1
	S734.5,387.8,735.3,387.8L735.3,387.8z"/>
<path class="st1" d="M747.8,395.7v-2.2h2.6c0.2,0,0.3-0.1,0.5-0.2s0.2-0.3,0.3-0.6l1.2-3.5l-0.3,1.2l-6.8-17.8h3l5.4,15.6l-0.6-0.1
	l5.3-15.4h2.9l-8,21.1c-0.2,0.6-0.6,1-1.1,1.4s-1.1,0.5-1.6,0.5H747.8L747.8,395.7L747.8,395.7z"/>
<path class="st1" d="M772.8,389.5v-16.9h2.5v2.9c0.4-0.9,1.1-1.6,2-2.3s2-1,3.3-1c1.1,0,2.1,0.3,2.9,0.9s1.4,1.5,1.9,2.6
	c0.5-1,1.2-1.9,2.2-2.5s2-1,3.2-1c1.6,0,2.9,0.6,3.8,1.8s1.4,2.8,1.4,4.9v10.6h-2.6V379c0-1-0.1-1.8-0.3-2.5s-0.5-1.2-1-1.6
	s-1.1-0.6-1.9-0.6c-0.9,0-1.6,0.3-2.3,0.7s-1.2,1.2-1.6,2.1s-0.6,2-0.6,3.4v8.9H783v-10.5c0-1-0.1-1.8-0.3-2.5s-0.5-1.2-1-1.6
	s-1.1-0.6-1.8-0.6c-0.9,0-1.6,0.2-2.3,0.7s-1.2,1.2-1.6,2.1s-0.6,2-0.6,3.4v8.9L772.8,389.5L772.8,389.5L772.8,389.5z"/>
<path class="st1" d="M807.7,389.9c-1.6,0-3-0.4-4.2-1.1s-2.2-1.8-2.8-3.1s-1-2.9-1-4.6s0.3-3.3,1-4.6s1.6-2.4,2.8-3.1
	s2.6-1.1,4.2-1.1s3,0.4,4.2,1.1s2.2,1.8,2.8,3.1s1,2.9,1,4.6s-0.3,3.3-1,4.6s-1.6,2.4-2.8,3.1S809.3,389.9,807.7,389.9z
	 M807.7,387.8c1.6,0,2.8-0.6,3.8-1.8s1.4-2.8,1.4-4.8s-0.5-3.7-1.4-4.9s-2.2-1.8-3.8-1.8s-2.8,0.6-3.8,1.8s-1.4,2.8-1.4,4.9
	s0.5,3.6,1.4,4.8S806.1,387.8,807.7,387.8z"/>
<path class="st1" d="M826.4,389.9c-1.4,0-2.6-0.4-3.6-1.1s-1.9-1.7-2.4-3.1s-0.9-2.9-0.9-4.7s0.3-3.4,0.9-4.7s1.4-2.3,2.4-3
	s2.2-1.1,3.6-1.1c1.1,0,2.2,0.3,3.3,0.8s1.9,1.5,2.5,2.8l-0.3,0.1v-10h2.6v23.5H832V386l0.1,0.3c-0.5,1.2-1.2,2.1-2.3,2.8
	S827.7,389.9,826.4,389.9L826.4,389.9L826.4,389.9z M827.1,387.8c0.9,0,1.7-0.2,2.4-0.7s1.3-1.2,1.8-2.1s0.7-2.2,0.7-3.8
	c0-2.3-0.5-3.9-1.4-5s-2.1-1.6-3.4-1.6c-1.4,0-2.5,0.6-3.4,1.7s-1.3,2.8-1.3,5s0.5,3.7,1.3,4.9S825.7,387.8,827.1,387.8L827.1,387.8
	L827.1,387.8z"/>
<path class="st1" d="M845.1,389.9c-1.2,0-2.2-0.3-3.1-0.8s-1.5-1.3-2-2.3s-0.7-2.2-0.7-3.6v-10.6h2.6v10.5c0,1.4,0.3,2.5,0.8,3.4
	s1.5,1.3,2.8,1.3c1,0,1.9-0.3,2.6-0.8s1.3-1.3,1.7-2.3s0.6-2.3,0.6-3.9v-8h2.6v16.9h-2.5v-4l0.1,0.7c-0.5,1.1-1.2,1.9-2.1,2.6
	S846.5,390,845.1,389.9L845.1,389.9L845.1,389.9z"/>
<path class="st1" d="M860.7,389.5c-0.7,0-1.2-0.2-1.8-0.7s-0.7-1-0.7-1.7V366h2.6v20.4c0,0.4,0.1,0.6,0.2,0.7s0.3,0.2,0.6,0.2h1.6
	v2.2H860.7L860.7,389.5L860.7,389.5z"/>
<path class="st1" d="M873.4,389.9c-1.6,0-3-0.4-4.2-1.1s-2.1-1.7-2.7-3s-1-2.9-1-4.7s0.3-3.4,1-4.7s1.5-2.3,2.7-3.1s2.5-1.1,4.1-1.1
	c0.9,0,1.8,0.1,2.7,0.4s1.7,0.8,2.5,1.5s1.3,1.7,1.8,2.9s0.7,2.8,0.7,4.6h-13.7v-2.1h11.4l-0.7,1c-0.1-1.5-0.3-2.7-0.7-3.6
	s-1-1.5-1.7-2s-1.4-0.6-2.3-0.6c-1,0-1.9,0.3-2.6,0.8s-1.3,1.3-1.7,2.3s-0.6,2.2-0.6,3.6c0,2.1,0.4,3.8,1.3,4.9s2.1,1.7,3.7,1.7
	c1.1,0,2.1-0.3,2.9-0.9s1.3-1.4,1.7-2.5l2.6,0.9c-0.4,1-1,1.8-1.6,2.5s-1.5,1.2-2.4,1.6S874.5,389.9,873.4,389.9L873.4,389.9
	L873.4,389.9z"/>
<path class="st1" d="M896.9,394.8c-1.6-2-2.8-4.3-3.7-6.8s-1.2-5-1.2-7.6s0.4-5.2,1.2-7.6s2-4.7,3.7-6.8h2.8c-1.8,2.4-3.1,4.7-3.9,7
	s-1.2,4.7-1.2,7.4s0.4,5.2,1.2,7.4s2.2,4.6,4,6.9L896.9,394.8L896.9,394.8L896.9,394.8z"/>
<path class="st1" d="M901.8,386.4l-1.7-1.7l5.8-5.8l-5.8-5.8l1.7-1.7l5.8,5.8l5.8-5.8l1.7,1.7l-5.8,5.8l5.8,5.8l-1.7,1.7l-5.8-5.8
	L901.8,386.4z"/>
<path class="st1" d="M931.6,389.5v-18c-0.8,0.7-1.6,1.3-2.3,1.8s-1.5,0.9-2.4,1.2V372c0.5-0.2,0.9-0.5,1.4-0.8s1.1-0.8,1.7-1.4
	s1.4-1.5,2.3-2.7h2v22.5L931.6,389.5L931.6,389.5z"/>
<path class="st1" d="M946.8,389.9c-2.7,0-4.8-1-6.2-3s-2.1-4.7-2.1-8.2c0-1.7,0.2-3.3,0.5-4.7s0.9-2.8,1.6-3.9s1.6-2,2.7-2.6
	s2.3-0.9,3.8-0.9s2.8,0.3,3.8,0.9s2,1.4,2.6,2.3s1,1.9,1.1,2.8l-2.8,0.7c-0.1-1.4-0.5-2.4-1.3-3.3s-1.9-1.2-3.3-1.2
	c-1.1,0-1.9,0.2-2.6,0.7s-1.2,1.1-1.7,1.8s-0.7,1.6-1,2.5s-0.3,1.8-0.4,2.7s-0.1,1.7-0.1,2.4l-0.3-0.3c0.5-1,1.2-1.9,2.2-2.7
	s2.3-1.2,4-1.2c1.3,0,2.5,0.3,3.7,0.9s2,1.4,2.7,2.6s1,2.5,1,4.1s-0.3,2.9-1,4s-1.5,2-2.7,2.7S948.3,390,946.8,389.9L946.8,389.9
	L946.8,389.9z M946.8,387.7c1.5,0,2.7-0.5,3.6-1.4s1.2-2.3,1.2-3.9s-0.4-3-1.2-3.9s-2-1.4-3.5-1.4s-2.8,0.5-3.7,1.4
	s-1.4,2.3-1.4,3.9s0.5,2.9,1.3,3.9S945.3,387.7,946.8,387.7L946.8,387.7z"/>
<path class="st1" d="M955.6,394.8c1.9-2.3,3.2-4.6,4-6.9s1.2-4.8,1.2-7.4s-0.4-5.1-1.2-7.4s-2.2-4.6-4-7h2.8
	c1.6,2.1,2.8,4.4,3.7,6.8s1.2,5,1.2,7.6s-0.4,5.2-1.2,7.6s-2,4.7-3.7,6.8L955.6,394.8L955.6,394.8L955.6,394.8z"/>
<path pointer-events="all" class="st0" d="M190.7,283.5h366.7c5,0,9,4,9,9v174.4c0,5-4,9-9,9H190.7c-5,0-9-4-9-9V292.5
	C181.7,287.6,185.8,283.5,190.7,283.5z"/>
<path class="st1" d="M261.4,370.3l9.5-22.5h2.8l9.5,22.5h-3l-7.9-19.6l-7.9,19.6H261.4L261.4,370.3z M266.2,362.9v-2.3h12v2.3H266.2
	z"/>
<path class="st1" d="M291.2,370.7c-1.2,0-2.2-0.3-3.1-0.8s-1.5-1.3-2-2.3s-0.7-2.2-0.7-3.6v-10.6h2.6v10.5c0,1.4,0.3,2.5,0.8,3.4
	s1.5,1.3,2.8,1.3c1,0,1.9-0.3,2.6-0.8s1.3-1.3,1.7-2.3s0.6-2.3,0.6-3.9v-8h2.6v16.9h-2.5v-4l0.1,0.7c-0.5,1.1-1.1,1.9-2.1,2.6
	S292.6,370.7,291.2,370.7L291.2,370.7L291.2,370.7z"/>
<path class="st1" d="M310.1,370.7c-1.4,0-2.6-0.4-3.6-1.1s-1.9-1.7-2.4-3.1s-0.9-2.9-0.9-4.7s0.3-3.4,0.9-4.7s1.4-2.3,2.4-3
	s2.2-1.1,3.6-1.1c1.1,0,2.2,0.3,3.3,0.8s1.9,1.5,2.5,2.8l-0.3,0.1v-10h2.6v23.5h-2.5v-3.5l0.1,0.3c-0.5,1.2-1.2,2.1-2.3,2.8
	S311.3,370.7,310.1,370.7L310.1,370.7L310.1,370.7z M310.8,368.5c0.9,0,1.7-0.2,2.4-0.7s1.3-1.2,1.8-2.1s0.7-2.2,0.7-3.8
	c0-2.3-0.5-3.9-1.4-5s-2.1-1.6-3.4-1.6c-1.4,0-2.5,0.6-3.4,1.7s-1.4,2.8-1.4,5s0.5,3.7,1.3,4.9S309.4,368.6,310.8,368.5L310.8,368.5
	L310.8,368.5z"/>
<path class="st1" d="M324.6,350.6c-0.6,0-1.1-0.2-1.5-0.6s-0.6-0.9-0.6-1.5s0.2-1.1,0.6-1.6s0.9-0.6,1.5-0.6s1.1,0.2,1.6,0.6
	s0.6,0.9,0.6,1.6s-0.2,1.1-0.6,1.5S325.3,350.6,324.6,350.6z M323.3,370.3v-16.9h2.6v16.9H323.3z"/>
<path class="st1" d="M337.9,370.7c-1.6,0-3-0.4-4.2-1.1s-2.1-1.8-2.8-3.1s-1-2.9-1-4.6s0.4-3.3,1-4.6s1.6-2.4,2.8-3.1
	s2.6-1.1,4.2-1.1s3,0.4,4.2,1.1s2.1,1.8,2.8,3.1s1,2.9,1,4.6s-0.4,3.3-1,4.6s-1.6,2.4-2.8,3.1S339.5,370.7,337.9,370.7z
	 M337.9,368.5c1.6,0,2.9-0.6,3.8-1.8s1.4-2.8,1.4-4.8s-0.5-3.7-1.4-4.9s-2.2-1.8-3.8-1.8s-2.9,0.6-3.8,1.8s-1.4,2.8-1.4,4.9
	s0.5,3.6,1.4,4.8S336.3,368.5,337.9,368.5z"/>
<path class="st1" d="M359.5,350.6c-0.6,0-1.1-0.2-1.5-0.6s-0.6-0.9-0.6-1.5s0.2-1.1,0.6-1.6s0.9-0.6,1.5-0.6s1.1,0.2,1.6,0.6
	s0.6,0.9,0.6,1.6s-0.2,1.1-0.6,1.5S360.2,350.6,359.5,350.6z M358.2,370.3v-16.9h2.6v16.9H358.2z"/>
<path class="st1" d="M365.9,370.3v-16.9h2.5v3.8l-0.1-0.7c0.5-1,1.1-1.8,2.1-2.5s2.1-1,3.5-1c1.2,0,2.2,0.3,3.1,0.8s1.5,1.3,2,2.3
	s0.7,2.2,0.7,3.6v10.6h-2.6v-10.5c0-1.4-0.3-2.5-0.9-3.4s-1.5-1.3-2.8-1.3c-1.4,0-2.6,0.5-3.5,1.6s-1.4,2.6-1.4,4.6v8.9L365.9,370.3
	L365.9,370.3L365.9,370.3z"/>
<path class="st1" d="M387.8,370.3c-0.7,0-1.2-0.2-1.8-0.7s-0.7-1-0.7-1.7v-12.4h-2.7v-2.2h2.7v-3.5l2.6-0.6v4.1h3.3v2.2h-3.3v11.7
	c0,0.4,0.1,0.6,0.2,0.7s0.3,0.2,0.6,0.2h2.6v2.2L387.8,370.3L387.8,370.3L387.8,370.3z"/>
<path class="st1" d="M401.2,370.7c-1.6,0-3-0.4-4.2-1.1s-2.1-1.7-2.7-3s-1-2.9-1-4.7s0.3-3.4,1-4.7s1.5-2.3,2.7-3.1s2.5-1.1,4.1-1.1
	c0.9,0,1.8,0.1,2.7,0.4s1.7,0.8,2.5,1.5s1.4,1.7,1.8,2.9s0.7,2.8,0.7,4.6H395v-2.1h11.4l-0.7,1c-0.1-1.5-0.3-2.7-0.7-3.6
	s-1-1.5-1.7-2s-1.4-0.6-2.3-0.6c-1,0-1.9,0.3-2.6,0.8s-1.3,1.3-1.7,2.3s-0.6,2.2-0.6,3.6c0,2.1,0.4,3.8,1.3,4.9s2.1,1.7,3.7,1.7
	c1.1,0,2.1-0.3,2.9-0.9s1.4-1.4,1.7-2.5l2.6,0.9c-0.4,1-1,1.8-1.6,2.5s-1.5,1.2-2.4,1.6S402.4,370.6,401.2,370.7L401.2,370.7
	L401.2,370.7z"/>
<path class="st1" d="M412.8,370.3v-16.9h2.5v3.6l-0.1-0.4c0.5-1.1,1.2-2,2.3-2.7s2-0.9,3-0.9c0.3,0,0.6,0,0.9,0.1s0.5,0.1,0.8,0.3
	l-0.4,2.5c-0.6-0.2-1.1-0.3-1.7-0.3c-0.4,0-0.8,0.1-1.3,0.2s-1.1,0.4-1.6,0.8s-1,1.1-1.3,1.9s-0.5,2-0.5,3.3v8.5H412.8L412.8,370.3
	L412.8,370.3z"/>
<path class="st1" d="M424.1,355.6v-2.2h8.9v2.2H424.1z M426.6,370.3v-20c0-1.2,0.3-2.1,0.9-2.7s1.6-0.8,3-0.8h2.1v2.2h-2.5
	c-0.3,0-0.5,0.1-0.7,0.2s-0.2,0.4-0.2,0.7v20.4L426.6,370.3L426.6,370.3z"/>
<path class="st1" d="M440.3,370.7c-1.1,0-2.1-0.2-3-0.6s-1.5-1-1.9-1.8s-0.7-1.6-0.7-2.6s0.3-2,0.9-2.8s1.5-1.5,2.8-2
	s2.9-0.8,4.8-0.8h2.8l-0.3,0.3v-0.9c0-1.4-0.3-2.4-0.8-3.1s-1.4-1.1-2.7-1.1c-1.2,0-2.1,0.3-2.8,0.9s-1,1.4-1,2.5l-3-0.7
	c0.1-0.9,0.5-1.7,1-2.5s1.4-1.4,2.4-1.8s2.2-0.7,3.5-0.7s2.5,0.3,3.3,0.8s1.5,1.2,1.9,2.2s0.6,2.1,0.6,3.5v7.7
	c0,0.4,0.1,0.6,0.2,0.7s0.3,0.2,0.6,0.2h1v2.2h-1.7c-0.7,0-1.3-0.2-1.8-0.7s-0.7-1-0.7-1.7v-1.2h0.4c-0.2,0.5-0.4,0.9-0.7,1.4
	s-0.7,0.9-1.2,1.3s-1.1,0.7-1.7,1S441.2,370.7,440.3,370.7L440.3,370.7L440.3,370.7z M440.9,368.5c0.9,0,1.7-0.2,2.4-0.6
	s1.4-1.1,1.8-2s0.7-2.1,0.7-3.6v-0.1h-2.7c-1.4,0-2.5,0.2-3.3,0.5s-1.4,0.8-1.7,1.4s-0.5,1.1-0.5,1.6s0.1,1,0.4,1.4s0.6,0.8,1.1,1
	S440.2,368.5,440.9,368.5L440.9,368.5L440.9,368.5z"/>
<path class="st1" d="M460.4,370.7c-1.6,0-3-0.4-4.1-1.1s-2-1.7-2.7-3s-0.9-2.9-0.9-4.7s0.3-3.4,0.9-4.7s1.5-2.3,2.7-3
	s2.5-1.1,4.1-1.1c1.2,0,2.3,0.2,3.2,0.7s1.8,1.1,2.4,1.9s1.1,1.8,1.5,3l-2.7,0.7c-0.3-1.3-0.8-2.3-1.6-3s-1.7-1.1-2.9-1.1
	c-1.5,0-2.8,0.6-3.6,1.7s-1.2,2.8-1.2,4.9s0.4,3.8,1.2,4.9s2,1.7,3.6,1.7c1.1,0,2.1-0.4,2.9-1s1.3-1.7,1.6-3l2.7,0.7
	c-0.3,0.9-0.6,1.6-1,2.3s-1,1.2-1.6,1.7s-1.3,0.8-2,1.1S461.3,370.7,460.4,370.7L460.4,370.7L460.4,370.7z"/>
<path class="st1" d="M478.2,370.7c-1.6,0-3-0.4-4.2-1.1s-2.1-1.7-2.7-3s-1-2.9-1-4.7s0.3-3.4,1-4.7s1.5-2.3,2.7-3.1s2.5-1.1,4.1-1.1
	c0.9,0,1.8,0.1,2.7,0.4s1.7,0.8,2.5,1.5s1.4,1.7,1.8,2.9s0.7,2.8,0.7,4.6H472v-2.1h11.4l-0.7,1c-0.1-1.5-0.3-2.7-0.7-3.6
	s-1-1.5-1.7-2s-1.4-0.6-2.3-0.6c-1,0-1.9,0.3-2.6,0.8s-1.3,1.3-1.7,2.3s-0.6,2.2-0.6,3.6c0,2.1,0.4,3.8,1.3,4.9s2.1,1.7,3.7,1.7
	c1.1,0,2.1-0.3,2.9-0.9s1.4-1.4,1.7-2.5l2.6,0.9c-0.4,1-1,1.8-1.6,2.5s-1.5,1.2-2.4,1.6S479.3,370.6,478.2,370.7L478.2,370.7
	L478.2,370.7z"/>
<path class="st1" d="M269.3,408.8v-18c-0.8,0.7-1.6,1.3-2.3,1.8s-1.5,0.9-2.4,1.2v-2.7c0.5-0.2,0.9-0.5,1.4-0.8s1.1-0.8,1.7-1.4
	s1.4-1.5,2.3-2.7h2v22.5L269.3,408.8L269.3,408.8z"/>
<path class="st1" d="M284.5,409.2c-2.7,0-4.8-1-6.2-3s-2.1-4.7-2.1-8.2c0-1.7,0.2-3.3,0.5-4.7s0.9-2.8,1.6-3.9s1.6-2,2.7-2.6
	s2.3-0.9,3.8-0.9s2.8,0.3,3.9,0.9s2,1.4,2.6,2.3s1,1.9,1.1,2.8l-2.9,0.7c-0.1-1.4-0.5-2.4-1.3-3.3s-1.9-1.2-3.3-1.2
	c-1.1,0-1.9,0.2-2.6,0.7s-1.2,1.1-1.7,1.8s-0.7,1.6-1,2.5s-0.4,1.8-0.4,2.7s-0.1,1.7-0.1,2.4l-0.3-0.3c0.5-1,1.1-1.9,2.2-2.7
	s2.3-1.2,4-1.2c1.3,0,2.5,0.3,3.6,0.9s2,1.4,2.7,2.6s1,2.5,1,4.1s-0.3,2.9-1,4s-1.5,2-2.7,2.7S286.1,409.2,284.5,409.2L284.5,409.2
	L284.5,409.2z M284.5,406.9c1.5,0,2.7-0.5,3.6-1.4s1.2-2.3,1.2-3.9s-0.4-3-1.2-3.9s-2-1.4-3.5-1.4s-2.8,0.5-3.7,1.4
	s-1.4,2.3-1.4,3.9s0.5,2.9,1.4,3.9S283,407,284.5,406.9L284.5,406.9z"/>
<path class="st1" d="M311.2,409.2c-1.6,0-3-0.4-4.1-1.1s-2-1.7-2.7-3s-0.9-2.9-0.9-4.7s0.3-3.4,0.9-4.7s1.5-2.3,2.7-3
	s2.5-1.1,4.1-1.1c1.2,0,2.3,0.2,3.2,0.7s1.8,1.1,2.4,1.9s1.1,1.8,1.5,3l-2.7,0.7c-0.3-1.3-0.8-2.3-1.6-3s-1.7-1.1-2.9-1.1
	c-1.5,0-2.8,0.6-3.6,1.7s-1.2,2.8-1.2,4.9s0.4,3.8,1.2,4.9s2,1.7,3.6,1.7c1.1,0,2.1-0.4,2.9-1s1.3-1.7,1.6-3l2.7,0.7
	c-0.3,0.9-0.6,1.6-1,2.3s-1,1.2-1.6,1.7s-1.3,0.8-2,1.1S312.1,409.2,311.2,409.2L311.2,409.2L311.2,409.2z"/>
<path class="st1" d="M322.1,408.8v-23.5h2.6v10.5l-0.3-0.7c0.5-1.1,1.1-1.9,2.1-2.6s2.2-1,3.6-1c1.2,0,2.2,0.3,3.1,0.8
	s1.5,1.3,2,2.3s0.7,2.2,0.7,3.6v10.6h-2.6v-10.5c0-1.4-0.3-2.6-0.8-3.4s-1.5-1.2-2.9-1.2c-1.5,0-2.7,0.5-3.6,1.6s-1.4,2.6-1.4,4.7
	v8.9L322.1,408.8L322.1,408.8L322.1,408.8z"/>
<path class="st1" d="M352.7,409.2c-1.1,0-2.1-0.2-3-0.6s-1.5-1-1.9-1.8s-0.7-1.6-0.7-2.6s0.3-2,0.9-2.8s1.5-1.5,2.8-2
	s2.9-0.8,4.8-0.8h2.8l-0.3,0.3V398c0-1.4-0.3-2.4-0.8-3.1s-1.4-1.1-2.7-1.1c-1.2,0-2.1,0.3-2.8,0.9s-1,1.4-1,2.5l-3-0.7
	c0.1-0.9,0.5-1.7,1-2.5s1.4-1.4,2.4-1.8s2.2-0.7,3.5-0.7s2.5,0.3,3.3,0.8s1.5,1.2,1.9,2.2s0.6,2.1,0.6,3.5v7.7
	c0,0.4,0.1,0.6,0.2,0.7s0.3,0.2,0.6,0.2h1v2.2h-1.7c-0.7,0-1.3-0.2-1.8-0.7s-0.7-1-0.7-1.7v-1.2h0.4c-0.2,0.5-0.4,0.9-0.7,1.4
	s-0.7,0.9-1.2,1.3s-1.1,0.7-1.7,1S353.6,409.2,352.7,409.2L352.7,409.2L352.7,409.2z M353.4,407c0.9,0,1.7-0.2,2.4-0.6
	s1.4-1.1,1.8-2s0.7-2.1,0.7-3.6v-0.1h-2.7c-1.4,0-2.5,0.2-3.3,0.5s-1.4,0.8-1.7,1.4s-0.5,1.1-0.5,1.6s0.1,1,0.4,1.4s0.6,0.8,1.1,1
	S352.6,407,353.4,407L353.4,407L353.4,407z"/>
<path class="st1" d="M371.4,409.2c-1.2,0-2.2-0.3-3.1-0.8s-1.5-1.3-2-2.3s-0.7-2.2-0.7-3.6v-10.6h2.6v10.5c0,1.4,0.3,2.5,0.8,3.4
	s1.5,1.3,2.8,1.3c1,0,1.9-0.3,2.6-0.8s1.3-1.3,1.7-2.3s0.6-2.3,0.6-3.9v-8h2.6V409h-2.5v-4l0.1,0.7c-0.5,1.1-1.1,1.9-2.1,2.6
	S372.7,409.2,371.4,409.2L371.4,409.2L371.4,409.2z"/>
<path class="st1" d="M390.3,409.2c-1.4,0-2.6-0.4-3.6-1.1s-1.9-1.7-2.4-3.1s-0.9-2.9-0.9-4.7s0.3-3.4,0.9-4.7s1.4-2.3,2.4-3
	s2.2-1.1,3.6-1.1c1.1,0,2.2,0.3,3.3,0.8s1.9,1.5,2.5,2.8l-0.3,0.1v-10h2.6v23.5H396v-3.5l0.1,0.3c-0.5,1.2-1.2,2.1-2.3,2.8
	S391.5,409.2,390.3,409.2L390.3,409.2L390.3,409.2z M391,407c0.9,0,1.7-0.2,2.4-0.7s1.3-1.2,1.8-2.1s0.7-2.2,0.7-3.8
	c0-2.3-0.5-3.9-1.4-5s-2.1-1.6-3.4-1.6c-1.4,0-2.5,0.6-3.4,1.7s-1.4,2.8-1.4,5s0.5,3.7,1.3,4.9S389.6,407,391,407L391,407L391,407z"
	/>
<path class="st1" d="M404.8,389.1c-0.6,0-1.1-0.2-1.5-0.6s-0.6-0.9-0.6-1.5s0.2-1.1,0.6-1.6s0.9-0.6,1.5-0.6s1.1,0.2,1.6,0.6
	s0.6,0.9,0.6,1.6s-0.2,1.1-0.6,1.5S405.4,389.1,404.8,389.1z M403.5,408.8v-16.9h2.6v16.9H403.5z"/>
<path class="st1" d="M418.1,409.2c-1.6,0-3-0.4-4.2-1.1s-2.1-1.8-2.8-3.1s-1-2.9-1-4.6s0.4-3.3,1-4.6s1.6-2.4,2.8-3.1
	s2.6-1.1,4.2-1.1s3,0.4,4.2,1.1s2.1,1.8,2.8,3.1s1,2.9,1,4.6s-0.4,3.3-1,4.6s-1.6,2.4-2.8,3.1S419.7,409.2,418.1,409.2z M418.1,407
	c1.6,0,2.9-0.6,3.8-1.8s1.4-2.8,1.4-4.8s-0.5-3.7-1.4-4.9s-2.2-1.8-3.8-1.8s-2.9,0.6-3.8,1.8s-1.4,2.8-1.4,4.9s0.5,3.6,1.4,4.8
	S416.5,407,418.1,407z"/>
<path class="st1" d="M445.3,409.2c-1.6,0-3-0.4-4.2-1.1s-2.1-1.8-2.8-3.1s-1-2.9-1-4.6s0.4-3.3,1-4.6s1.6-2.4,2.8-3.1
	s2.6-1.1,4.2-1.1s3,0.4,4.2,1.1s2.1,1.8,2.8,3.1s1,2.9,1,4.6s-0.4,3.3-1,4.6s-1.6,2.4-2.8,3.1S446.9,409.2,445.3,409.2z M445.3,407
	c1.6,0,2.9-0.6,3.8-1.8s1.4-2.8,1.4-4.8s-0.5-3.7-1.4-4.9s-2.2-1.8-3.8-1.8s-2.9,0.6-3.8,1.8s-1.4,2.8-1.4,4.9s0.5,3.6,1.4,4.8
	S443.7,407,445.3,407z"/>
<path class="st1" d="M462.9,409.2c-1.2,0-2.2-0.3-3.1-0.8s-1.5-1.3-2-2.3s-0.7-2.2-0.7-3.6v-10.6h2.6v10.5c0,1.4,0.3,2.5,0.8,3.4
	s1.5,1.3,2.8,1.3c1,0,1.9-0.3,2.6-0.8s1.3-1.3,1.7-2.3s0.6-2.3,0.6-3.9v-8h2.6V409h-2.5v-4l0.1,0.7c-0.5,1.1-1.1,1.9-2.1,2.6
	S464.3,409.2,462.9,409.2L462.9,409.2L462.9,409.2z"/>
<path class="st1" d="M479.8,408.8c-0.7,0-1.2-0.2-1.8-0.7s-0.7-1-0.7-1.7V394h-2.7v-2.2h2.7v-3.5l2.6-0.6v4.1h3.3v2.2H480v11.7
	c0,0.4,0.1,0.6,0.2,0.7s0.3,0.2,0.6,0.2h2.6v2.2L479.8,408.8L479.8,408.8L479.8,408.8z"/>
<line class="st0" x1="374.1" y1="219.4" x2="374.1" y2="255.1"/>
<polygon class="st1" points="364.8,248.8 374.1,283.5 383.4,248.8 "/>
<line class="st0" x1="822.9" y1="219.4" x2="822.9" y2="255.1"/>
<polygon class="st1" points="813.6,248.8 822.9,283.5 832.3,248.8 "/>
<line class="st0" x1="822.9" y1="475.9" x2="822.9" y2="511.6"/>
<polygon class="st1" points="813.6,505.2 822.9,540 832.3,505.2 "/>
<line class="st0" x1="566.5" y1="123.2" x2="602.2" y2="123.2"/>
<polygon class="st1" points="595.8,132.6 630.6,123.2 595.8,113.9 "/>
<line class="st0" x1="374.1" y1="475.9" x2="374.1" y2="800.1"/>
<polygon class="st1" points="364.8,793.8 374.1,828.5 383.4,793.8 "/>
<line class="st0" x1="822.9" y1="732.4" x2="822.9" y2="760.9"/>
<polygon class="st1" points="813.6,754.5 822.9,789.3 832.3,754.5 "/>
<line class="st0" x1="566.5" y1="924.7" x2="602.2" y2="924.7"/>
<polygon class="st1" points="595.8,934 630.6,924.7 595.8,915.4 "/>
<line class="st0" x1="1015.3" y1="924.7" x2="1051" y2="924.7"/>
<polygon class="st1" points="1044.7,934 1079.4,924.7 1044.7,915.4 "/>
<line class="st0" x1="1464.1" y1="929.7" x2="1531.9" y2="929.7"/>
<polygon class="st1" points="1525.5,939 1560.3,929.7 1525.5,920.3 "/>
<path class="st1" d="M1085.1,770.7v-18c-0.8,0.7-1.6,1.3-2.3,1.8s-1.5,0.9-2.4,1.2V753c0.4-0.2,0.9-0.5,1.4-0.8s1.1-0.8,1.7-1.5
	c0.6-0.6,1.4-1.5,2.3-2.7h2v22.5L1085.1,770.7L1085.1,770.7L1085.1,770.7z"/>
<path class="st1" d="M1100.3,771c-2.7,0-4.8-1-6.2-3c-1.4-2-2.1-4.7-2.1-8.2c0-1.7,0.2-3.3,0.5-4.7s0.9-2.8,1.6-3.8s1.6-2,2.7-2.6
	s2.3-0.9,3.8-0.9s2.8,0.3,3.8,0.9s2,1.4,2.6,2.3s1,1.9,1.1,2.8l-2.8,0.7c-0.1-1.3-0.5-2.4-1.3-3.3s-1.9-1.2-3.3-1.2
	c-1.1,0-1.9,0.2-2.6,0.7s-1.2,1.1-1.7,1.8c-0.4,0.7-0.7,1.6-1,2.5c-0.2,0.9-0.3,1.8-0.4,2.7s-0.1,1.7-0.1,2.4l-0.3-0.3
	c0.4-1,1.2-1.9,2.2-2.7s2.3-1.2,4-1.2c1.3,0,2.5,0.3,3.7,0.9c1.1,0.6,2,1.4,2.7,2.6c0.7,1.1,1,2.5,1,4.1c0,1.5-0.3,2.9-1,4
	c-0.6,1.2-1.5,2-2.7,2.6C1103.2,770.8,1101.8,771.1,1100.3,771L1100.3,771L1100.3,771z M1100.3,768.8c1.5,0,2.7-0.5,3.6-1.4
	c0.8-1,1.2-2.3,1.2-3.9s-0.4-3-1.2-3.9s-2-1.4-3.5-1.4s-2.8,0.5-3.7,1.4s-1.4,2.3-1.4,3.9s0.4,2.9,1.3,3.9
	S1098.8,768.8,1100.3,768.8L1100.3,768.8L1100.3,768.8z"/>
<path class="st1" d="M1118.4,770.7l6.5-8.8l-6-8.1h3.1l4.6,6.4l4.5-6.4h3.2l-6.2,8.1l6.6,8.8h-3.4l-4.8-6.8l-4.9,6.8H1118.4
	L1118.4,770.7z"/>
<path class="st1" d="M1146.2,776.8v-23h2.5v3.5l-0.1-0.3c0.4-1.2,1.2-2.2,2.3-2.8s2.2-0.9,3.4-0.9c1.4,0,2.6,0.3,3.6,1.1
	s1.9,1.7,2.4,3.1s0.9,2.9,0.9,4.7s-0.3,3.4-0.9,4.7s-1.4,2.3-2.4,3c-1.1,0.7-2.2,1.1-3.6,1.1c-1.1,0-2.2-0.3-3.3-0.8
	s-1.9-1.5-2.5-2.8l0.2-0.1v9.5H1146.2L1146.2,776.8L1146.2,776.8z M1153.6,768.9c1.4,0,2.5-0.6,3.4-1.7s1.3-2.8,1.3-5
	s-0.4-3.7-1.3-4.9s-2-1.7-3.5-1.7c-0.9,0-1.7,0.2-2.4,0.7s-1.3,1.2-1.8,2.2s-0.7,2.2-0.7,3.8c0,2.3,0.5,3.9,1.4,5
	S1152.3,768.8,1153.6,768.9L1153.6,768.9L1153.6,768.9z"/>
<path class="st1" d="M1167.7,770.7c-0.7,0-1.2-0.2-1.8-0.7s-0.7-1-0.7-1.7v-21.1h2.6v20.4c0,0.3,0.1,0.6,0.2,0.7
	c0.1,0.1,0.3,0.2,0.6,0.2h1.6v2.2L1167.7,770.7L1167.7,770.7L1167.7,770.7z"/>
<path class="st1" d="M1177.9,771c-1.1,0-2.1-0.2-2.9-0.6c-0.8-0.4-1.5-1-1.9-1.8s-0.7-1.6-0.7-2.6s0.3-2,0.9-2.8s1.5-1.5,2.8-2
	s2.8-0.8,4.8-0.8h2.8l-0.3,0.3v-0.9c0-1.3-0.3-2.4-0.8-3.1c-0.6-0.7-1.4-1.1-2.7-1.1c-1.2,0-2.1,0.3-2.8,0.9s-1,1.4-1,2.5l-2.9-0.7
	c0.1-0.9,0.4-1.7,1.1-2.5c0.6-0.7,1.4-1.3,2.4-1.8s2.2-0.7,3.5-0.7s2.5,0.3,3.3,0.8c0.9,0.5,1.5,1.2,1.9,2.2s0.6,2.2,0.6,3.5v7.7
	c0,0.3,0.1,0.6,0.2,0.7c0.1,0.1,0.3,0.2,0.6,0.2h1v2.2h-1.7c-0.7,0-1.3-0.2-1.8-0.7s-0.7-1-0.7-1.7V767h0.4
	c-0.2,0.5-0.4,0.9-0.7,1.3c-0.3,0.5-0.7,0.9-1.2,1.2s-1.1,0.7-1.7,1C1179.6,771,1178.8,771,1177.9,771L1177.9,771L1177.9,771z
	 M1178.5,768.9c0.9,0,1.7-0.2,2.4-0.6s1.3-1.1,1.8-2c0.4-0.9,0.7-2.1,0.7-3.6v-0.1h-2.7c-1.4,0-2.5,0.2-3.3,0.5s-1.4,0.8-1.7,1.3
	s-0.5,1.1-0.5,1.6s0.1,1,0.3,1.4s0.6,0.8,1.1,1S1177.8,768.9,1178.5,768.9L1178.5,768.9L1178.5,768.9z"/>
<path class="st1" d="M1197,771c-1.2,0-2.3-0.2-3.3-0.6s-1.8-1-2.5-1.8s-1.1-1.9-1.3-3.1l2.8-0.5c0.1,1.3,0.6,2.3,1.3,3
	c0.8,0.6,1.8,1,2.9,1s2.1-0.3,2.8-0.9s1.1-1.3,1.1-2.2c0-0.7-0.3-1.3-0.7-1.7s-1.2-0.7-2.2-0.9l-2.1-0.4c-0.6-0.1-1.1-0.3-1.7-0.5
	s-1.2-0.5-1.7-0.8s-0.9-0.8-1.2-1.3s-0.5-1.2-0.5-2c0-1.1,0.3-2,0.9-2.7s1.3-1.2,2.3-1.6s2-0.5,3.1-0.5c1.2,0,2.3,0.2,3.2,0.6
	s1.6,0.9,2.2,1.6s0.9,1.5,1.1,2.5l-2.9,0.6c-0.1-0.6-0.3-1.2-0.5-1.7c-0.3-0.5-0.6-0.8-1.2-1.1s-1.2-0.4-2-0.4c-1,0-1.8,0.2-2.5,0.6
	s-1.1,1-1.1,1.9c0,0.5,0.1,0.9,0.3,1.2s0.6,0.6,1.1,0.8s1.1,0.4,1.8,0.5l2.1,0.5c0.9,0.2,1.7,0.5,2.4,0.8s1.3,0.8,1.8,1.4
	s0.7,1.4,0.7,2.4c0,1.1-0.3,2.1-0.8,2.9s-1.3,1.4-2.3,1.9C1199.5,770.8,1198.4,771.1,1197,771L1197,771L1197,771z"/>
<path class="st1" d="M1207.6,770.7v-16.9h2.5v2.9c0.4-0.9,1.1-1.6,2-2.3c0.9-0.6,2-1,3.3-1c1.1,0,2.1,0.3,2.9,0.9
	c0.8,0.6,1.4,1.5,1.9,2.6c0.6-1,1.2-1.9,2.2-2.5c0.9-0.6,2-1,3.2-1c1.6,0,2.9,0.6,3.8,1.8s1.4,2.8,1.4,4.9v10.6h-2.6v-10.5
	c0-1-0.1-1.8-0.3-2.5c-0.2-0.7-0.5-1.2-1-1.6s-1.1-0.6-1.9-0.6c-0.9,0-1.6,0.3-2.3,0.7s-1.2,1.2-1.6,2.1s-0.6,2-0.6,3.4v8.8h-2.6
	V760c0-1-0.1-1.8-0.3-2.5c-0.2-0.7-0.5-1.2-1-1.6s-1.1-0.6-1.8-0.6c-0.9,0-1.6,0.3-2.3,0.7s-1.2,1.2-1.6,2.1s-0.6,2-0.6,3.4v8.8
	L1207.6,770.7L1207.6,770.7z"/>
<path class="st1" d="M1240,771c-1.1,0-2.1-0.2-2.9-0.6c-0.8-0.4-1.5-1-1.9-1.8s-0.7-1.6-0.7-2.6s0.3-2,0.9-2.8s1.5-1.5,2.8-2
	s2.8-0.8,4.8-0.8h2.8l-0.3,0.3v-0.9c0-1.3-0.3-2.4-0.8-3.1c-0.6-0.7-1.4-1.1-2.7-1.1c-1.2,0-2.1,0.3-2.8,0.9s-1,1.4-1,2.5l-2.9-0.7
	c0.1-0.9,0.4-1.7,1.1-2.5c0.6-0.7,1.4-1.3,2.4-1.8s2.2-0.7,3.5-0.7s2.5,0.3,3.3,0.8c0.9,0.5,1.5,1.2,1.9,2.2s0.6,2.2,0.6,3.5v7.7
	c0,0.3,0.1,0.6,0.2,0.7c0.1,0.1,0.3,0.2,0.6,0.2h1v2.2h-1.7c-0.7,0-1.3-0.2-1.8-0.7s-0.7-1-0.7-1.7V767h0.4
	c-0.2,0.5-0.4,0.9-0.7,1.3c-0.3,0.5-0.7,0.9-1.2,1.2s-1.1,0.7-1.7,1C1241.7,771,1240.9,771,1240,771L1240,771L1240,771z
	 M1240.6,768.9c0.9,0,1.7-0.2,2.4-0.6s1.3-1.1,1.8-2c0.4-0.9,0.7-2.1,0.7-3.6v-0.1h-2.7c-1.4,0-2.5,0.2-3.3,0.5s-1.4,0.8-1.7,1.3
	s-0.5,1.1-0.5,1.6s0.1,1,0.3,1.4s0.6,0.8,1.1,1S1239.9,768.9,1240.6,768.9L1240.6,768.9L1240.6,768.9z"/>
<path class="st1" d="M1267.3,771c-1.2,0-2.3-0.2-3.3-0.6s-1.8-1-2.5-1.8s-1.1-1.9-1.3-3.1l2.8-0.5c0.1,1.3,0.6,2.3,1.3,3
	c0.8,0.6,1.8,1,2.9,1s2.1-0.3,2.8-0.9s1.1-1.3,1.1-2.2c0-0.7-0.3-1.3-0.7-1.7s-1.2-0.7-2.2-0.9l-2.1-0.4c-0.6-0.1-1.1-0.3-1.7-0.5
	s-1.2-0.5-1.7-0.8s-0.9-0.8-1.2-1.3s-0.5-1.2-0.5-2c0-1.1,0.3-2,0.9-2.7s1.3-1.2,2.3-1.6s2-0.5,3.1-0.5c1.2,0,2.3,0.2,3.2,0.6
	s1.6,0.9,2.2,1.6s0.9,1.5,1.1,2.5l-2.9,0.6c-0.1-0.6-0.3-1.2-0.5-1.7c-0.3-0.5-0.6-0.8-1.2-1.1s-1.2-0.4-2-0.4c-1,0-1.8,0.2-2.5,0.6
	s-1.1,1-1.1,1.9c0,0.5,0.1,0.9,0.3,1.2s0.6,0.6,1.1,0.8s1.1,0.4,1.8,0.5l2.1,0.5c0.9,0.2,1.7,0.5,2.4,0.8s1.3,0.8,1.8,1.4
	s0.7,1.4,0.7,2.4c0,1.1-0.3,2.1-0.8,2.9s-1.3,1.4-2.3,1.9C1269.8,770.8,1268.6,771.1,1267.3,771L1267.3,771L1267.3,771z"/>
<path class="st1" d="M1277.9,776.8v-23h2.5v3.5l-0.1-0.3c0.4-1.2,1.2-2.2,2.3-2.8s2.2-0.9,3.4-0.9c1.4,0,2.6,0.3,3.6,1.1
	s1.9,1.7,2.4,3.1s0.9,2.9,0.9,4.7s-0.3,3.4-0.9,4.7s-1.4,2.3-2.4,3c-1.1,0.7-2.2,1.1-3.6,1.1c-1.1,0-2.2-0.3-3.3-0.8
	s-1.9-1.5-2.5-2.8l0.2-0.1v9.5H1277.9L1277.9,776.8L1277.9,776.8z M1285.3,768.9c1.4,0,2.5-0.6,3.4-1.7s1.3-2.8,1.3-5
	s-0.4-3.7-1.3-4.9s-2-1.7-3.5-1.7c-0.9,0-1.7,0.2-2.4,0.7s-1.3,1.2-1.8,2.2s-0.7,2.2-0.7,3.8c0,2.3,0.5,3.9,1.4,5
	S1283.9,768.8,1285.3,768.9L1285.3,768.9L1285.3,768.9z"/>
<path class="st1" d="M1304.5,771c-1.6,0-3-0.3-4.2-1.1c-1.2-0.7-2.1-1.7-2.7-3s-1-2.9-1-4.7s0.3-3.4,1-4.7s1.5-2.3,2.7-3.1
	s2.5-1.1,4.1-1.1c0.9,0,1.8,0.1,2.7,0.4c0.9,0.3,1.7,0.8,2.5,1.5c0.7,0.7,1.3,1.7,1.8,2.9c0.4,1.2,0.7,2.8,0.7,4.7h-13.7v-2.1h11.4
	l-0.7,1c-0.1-1.5-0.3-2.7-0.7-3.6s-1-1.5-1.7-2c-0.7-0.4-1.4-0.6-2.3-0.6c-1,0-1.9,0.3-2.6,0.8s-1.3,1.3-1.7,2.3s-0.6,2.2-0.6,3.6
	c0,2.1,0.4,3.8,1.3,4.9c0.9,1.2,2.1,1.7,3.7,1.7c1.1,0,2.1-0.3,2.9-0.9c0.8-0.6,1.3-1.4,1.7-2.5l2.6,0.9c-0.4,1-1,1.8-1.6,2.5
	c-0.7,0.7-1.5,1.2-2.4,1.6S1305.6,771,1304.5,771L1304.5,771L1304.5,771z"/>
<path class="st1" d="M1320.4,771c-1.1,0-2.1-0.2-2.9-0.6c-0.8-0.4-1.5-1-1.9-1.8s-0.7-1.6-0.7-2.6s0.3-2,0.9-2.8s1.5-1.5,2.8-2
	s2.8-0.8,4.8-0.8h2.8l-0.3,0.3v-0.9c0-1.3-0.3-2.4-0.8-3.1c-0.6-0.7-1.4-1.1-2.7-1.1c-1.2,0-2.1,0.3-2.8,0.9s-1,1.4-1,2.5l-2.9-0.7
	c0.1-0.9,0.4-1.7,1.1-2.5c0.6-0.7,1.4-1.3,2.4-1.8s2.2-0.7,3.5-0.7s2.5,0.3,3.3,0.8c0.9,0.5,1.5,1.2,1.9,2.2s0.6,2.2,0.6,3.5v7.7
	c0,0.3,0.1,0.6,0.2,0.7c0.1,0.1,0.3,0.2,0.6,0.2h1v2.2h-1.7c-0.7,0-1.3-0.2-1.8-0.7s-0.7-1-0.7-1.7V767h0.4
	c-0.2,0.5-0.4,0.9-0.7,1.3c-0.3,0.5-0.7,0.9-1.2,1.2s-1.1,0.7-1.7,1C1322,771,1321.2,771,1320.4,771L1320.4,771L1320.4,771z
	 M1320.9,768.9c0.9,0,1.7-0.2,2.4-0.6s1.3-1.1,1.8-2c0.4-0.9,0.7-2.1,0.7-3.6v-0.1h-2.7c-1.4,0-2.5,0.2-3.3,0.5s-1.4,0.8-1.7,1.3
	s-0.5,1.1-0.5,1.6s0.1,1,0.3,1.4s0.6,0.8,1.1,1S1320.2,768.9,1320.9,768.9L1320.9,768.9L1320.9,768.9z"/>
<path class="st1" d="M1333.7,770.7v-23.5h2.6v14.1l7.9-7.6h3.6l-7,6.4l7.1,10.5h-3.1l-5.9-8.7l-2.6,2.4v6.3L1333.7,770.7
	L1333.7,770.7L1333.7,770.7z"/>
<path class="st1" d="M1357.1,771c-1.6,0-3-0.3-4.2-1.1c-1.2-0.7-2.1-1.7-2.7-3s-1-2.9-1-4.7s0.3-3.4,1-4.7s1.5-2.3,2.7-3.1
	s2.5-1.1,4.1-1.1c0.9,0,1.8,0.1,2.7,0.4c0.9,0.3,1.7,0.8,2.5,1.5c0.7,0.7,1.3,1.7,1.8,2.9c0.4,1.2,0.7,2.8,0.7,4.7H1351v-2.1h11.4
	l-0.7,1c-0.1-1.5-0.3-2.7-0.7-3.6s-1-1.5-1.7-2c-0.7-0.4-1.4-0.6-2.3-0.6c-1,0-1.9,0.3-2.6,0.8s-1.3,1.3-1.7,2.3s-0.6,2.2-0.6,3.6
	c0,2.1,0.4,3.8,1.3,4.9c0.9,1.2,2.1,1.7,3.7,1.7c1.1,0,2.1-0.3,2.9-0.9c0.8-0.6,1.3-1.4,1.7-2.5l2.6,0.9c-0.4,1-1,1.8-1.6,2.5
	c-0.7,0.7-1.5,1.2-2.4,1.6S1358.3,771,1357.1,771L1357.1,771L1357.1,771z"/>
<path class="st1" d="M1368.6,770.7v-16.9h2.5v3.6l-0.1-0.4c0.5-1.2,1.2-2,2.3-2.7c1-0.6,2-0.9,3.1-0.9c0.3,0,0.6,0,0.9,0.1
	s0.6,0.1,0.8,0.3l-0.3,2.5c-0.6-0.2-1.2-0.3-1.7-0.3c-0.3,0-0.8,0.1-1.3,0.2c-0.6,0.1-1.1,0.4-1.6,0.8c-0.5,0.4-1,1.1-1.3,1.9
	c-0.3,0.8-0.5,2-0.5,3.3v8.5L1368.6,770.7L1368.6,770.7z"/>
<path class="st1" d="M1389.6,770.7v-16.9h2.5v2.9c0.4-0.9,1.1-1.6,2-2.3c0.9-0.6,2-1,3.3-1c1.1,0,2.1,0.3,2.9,0.9
	c0.8,0.6,1.4,1.5,1.9,2.6c0.6-1,1.2-1.9,2.2-2.5c0.9-0.6,2-1,3.2-1c1.6,0,2.9,0.6,3.8,1.8s1.4,2.8,1.4,4.9v10.6h-2.6v-10.5
	c0-1-0.1-1.8-0.3-2.5c-0.2-0.7-0.5-1.2-1-1.6s-1.1-0.6-1.9-0.6c-0.9,0-1.6,0.3-2.3,0.7s-1.2,1.2-1.6,2.1s-0.6,2-0.6,3.4v8.8h-2.6
	V760c0-1-0.1-1.8-0.3-2.5c-0.2-0.7-0.5-1.2-1-1.6s-1.1-0.6-1.8-0.6c-0.9,0-1.6,0.3-2.3,0.7s-1.2,1.2-1.6,2.1s-0.6,2-0.6,3.4v8.8
	L1389.6,770.7L1389.6,770.7z"/>
<path class="st1" d="M1424.6,771c-1.6,0-3-0.4-4.2-1.1s-2.2-1.8-2.8-3.1s-1-2.8-1-4.6s0.3-3.3,1-4.6s1.6-2.4,2.8-3.1
	c1.2-0.7,2.6-1.1,4.2-1.1s3,0.4,4.2,1.1s2.2,1.8,2.8,3.1s1,2.8,1,4.6s-0.3,3.3-1,4.6s-1.6,2.4-2.8,3.1
	C1427.6,770.7,1426.2,771,1424.6,771z M1424.6,768.9c1.6,0,2.8-0.6,3.8-1.8s1.4-2.8,1.4-4.8s-0.4-3.7-1.4-4.9
	c-0.9-1.2-2.2-1.8-3.8-1.8s-2.8,0.6-3.8,1.8c-0.9,1.2-1.4,2.8-1.4,4.9s0.4,3.7,1.4,4.8S1423,768.9,1424.6,768.9z"/>
<path class="st1" d="M1443.3,771c-1.4,0-2.6-0.3-3.6-1.1c-1.1-0.7-1.9-1.7-2.4-3.1s-0.9-2.9-0.9-4.7s0.3-3.4,0.9-4.7s1.4-2.3,2.4-3
	c1.1-0.7,2.2-1.1,3.6-1.1c1.1,0,2.2,0.3,3.3,0.8s1.9,1.5,2.5,2.8l-0.3,0.1v-10h2.6v23.5h-2.5V767l0.1,0.3c-0.4,1.2-1.2,2.2-2.3,2.8
	S1444.6,771,1443.3,771L1443.3,771L1443.3,771z M1444,768.9c0.9,0,1.7-0.2,2.4-0.7s1.3-1.2,1.8-2.2s0.7-2.2,0.7-3.8
	c0-2.3-0.5-3.9-1.4-5.1c-0.9-1.1-2.1-1.6-3.4-1.6c-1.4,0-2.5,0.6-3.4,1.7s-1.3,2.8-1.3,5s0.4,3.7,1.3,4.9
	C1441.5,768.3,1442.6,768.9,1444,768.9L1444,768.9L1444,768.9z"/>
<path class="st1" d="M1462,771c-1.2,0-2.2-0.3-3.1-0.8s-1.5-1.3-2-2.3s-0.7-2.2-0.7-3.6v-10.6h2.6v10.5c0,1.4,0.3,2.5,0.8,3.4
	s1.5,1.3,2.8,1.3c1,0,1.9-0.3,2.6-0.8s1.3-1.3,1.7-2.3c0.4-1.1,0.6-2.3,0.6-3.9v-8h2.6v16.9h-2.5v-4l0.1,0.7
	c-0.4,1.1-1.2,1.9-2.1,2.6C1464.6,770.7,1463.3,771.1,1462,771L1462,771L1462,771z"/>
<path class="st1" d="M1477.6,770.7c-0.7,0-1.2-0.2-1.8-0.7s-0.7-1-0.7-1.7v-21.1h2.6v20.4c0,0.3,0.1,0.6,0.2,0.7
	c0.1,0.1,0.3,0.2,0.6,0.2h1.6v2.2L1477.6,770.7L1477.6,770.7L1477.6,770.7z"/>
<path class="st1" d="M1490.2,771c-1.6,0-3-0.3-4.2-1.1c-1.2-0.7-2.1-1.7-2.7-3s-1-2.9-1-4.7s0.3-3.4,1-4.7s1.5-2.3,2.7-3.1
	s2.5-1.1,4.1-1.1c0.9,0,1.8,0.1,2.7,0.4c0.9,0.3,1.7,0.8,2.5,1.5c0.7,0.7,1.3,1.7,1.8,2.9c0.4,1.2,0.7,2.8,0.7,4.7H1484v-2.1h11.4
	l-0.7,1c-0.1-1.5-0.3-2.7-0.7-3.6s-1-1.5-1.7-2c-0.7-0.4-1.4-0.6-2.3-0.6c-1,0-1.9,0.3-2.6,0.8s-1.3,1.3-1.7,2.3s-0.6,2.2-0.6,3.6
	c0,2.1,0.4,3.8,1.3,4.9c0.9,1.2,2.1,1.7,3.7,1.7c1.1,0,2.1-0.3,2.9-0.9c0.8-0.6,1.3-1.4,1.7-2.5l2.6,0.9c-0.4,1-1,1.8-1.6,2.5
	c-0.7,0.7-1.5,1.2-2.4,1.6S1491.4,771,1490.2,771L1490.2,771L1490.2,771z"/>
<rect x="143.1" y="789.3" class="st2" width="1359.6" height="270.8"/>
</svg>
