<?xml version="1.0" encoding="utf-8"?>
<!-- Generator: Adobe Illustrator 27.4.1, SVG Export Plug-In . SVG Version: 6.00 Build 0)  -->
<svg version="1.1" id="Ebene_1" xmlns="http://www.w3.org/2000/svg" xmlns:xlink="http://www.w3.org/1999/xlink" x="0px" y="0px"
	 width="1366px" height="768px" viewBox="0 0 1366 768" style="enable-background:new 0 0 1366 768;" xml:space="preserve">
<style type="text/css">
	.st0{fill:none;stroke:#C9D1D9;stroke-width:0.4;stroke-dasharray:0,0,4,3;}
	.st1{fill:none;stroke:#C9D1D9;stroke-width:0.7;}
	.st2{fill:none;stroke:#C9D1D9;stroke-width:0.8;}
	.st3{fill:none;stroke:#C9D1D9;stroke-width:0.3;}
	.st4{fill:#C9D1D9;}
	.st5{fill:none;stroke:#D85648;stroke-width:1.2;stroke-linecap:square;}
	.st6{fill:none;stroke:#307EEF;stroke-width:2;stroke-linecap:round;stroke-linejoin:round;}
</style>
<line class="st0" x1="42.2" y1="319.2" x2="1356.7" y2="319.2"/>
<line class="st1" x1="42.2" y1="204.7" x2="1356.7" y2="204.7"/>
<line class="st0" x1="42.2" y1="90.2" x2="1356.7" y2="90.2"/>
<line class="st2" x1="42.2" y1="44.4" x2="42.2" y2="364.9"/>
<line class="st2" x1="42.2" y1="364.9" x2="1356.7" y2="364.9"/>
<line class="st3" x1="1356.7" y1="44.4" x2="1356.7" y2="364.9"/>
<line class="st3" x1="42.2" y1="44.4" x2="1356.7" y2="44.4"/>
<line class="st2" x1="32.5" y1="319.2" x2="42.2" y2="319.2"/>
<path class="st4" d="M6.6,320.3v-1.5h9.7v1.5H6.6z M21.1,326v-10.9c-0.5,0.4-1,0.7-1.4,1.1c-0.4,0.3-1,0.5-1.5,0.7v-1.6
	c0.3-0.1,0.5-0.3,0.9-0.5c0.3-0.2,0.6-0.5,1.1-0.9c0.4-0.4,0.9-1,1.4-1.6h1.3V326H21.1L21.1,326z"/>
<line class="st2" x1="32.5" y1="204.7" x2="42.2" y2="204.7"/>
<path class="st4" d="M17.8,211.7c-1.6,0-2.8-0.6-3.7-1.8c-0.9-1.3-1.3-3-1.3-5.2s0.4-3.9,1.3-5.2c0.9-1.3,2.1-1.8,3.7-1.8
	c1.6,0,2.8,0.6,3.6,1.8c0.9,1.3,1.3,3,1.3,5.2s-0.4,3.9-1.3,5.2C20.5,211.1,19.4,211.7,17.8,211.7z M17.8,210.3
	c1.1,0,1.8-0.5,2.3-1.5s0.9-2.3,0.9-4.3s-0.3-3.3-0.9-4.3s-1.3-1.5-2.3-1.5c-1.1,0-1.8,0.5-2.3,1.5s-0.9,2.3-0.9,4.3
	s0.3,3.3,0.9,4.3C15.8,209.9,16.7,210.3,17.8,210.3z"/>
<line class="st2" x1="32.5" y1="90.2" x2="42.2" y2="90.2"/>
<path class="st4" d="M21.1,97V86.1c-0.5,0.4-1,0.7-1.4,1.1c-0.4,0.3-1,0.5-1.5,0.7v-1.6c0.3-0.1,0.5-0.3,0.9-0.5
	c0.3-0.2,0.6-0.5,1.1-0.9c0.4-0.4,0.9-1,1.4-1.6h1.3V97H21.1L21.1,97z"/>
<path class="st4" d="M42.4,24.3l5.8-13.6h1.7l5.8,13.6h-1.8L49,12.4l-4.8,11.8h-1.8V24.3z M45.3,19.8v-1.4h7.2v1.4
	C52.6,19.8,45.3,19.8,45.3,19.8z M60.6,24.5c-0.7,0-1.3-0.1-1.8-0.4s-1-0.7-1.2-1.4c-0.3-0.6-0.4-1.3-0.4-2.1v-6.4h1.6v6.3
	c0,0.9,0.2,1.5,0.5,2c0.3,0.5,0.9,0.7,1.7,0.7c0.6,0,1.2-0.1,1.6-0.4c0.4-0.3,0.7-0.7,1.1-1.4c0.2-0.6,0.3-1.4,0.3-2.3v-4.9h1.6
	v10.2h-1.5v-2.3l0.1,0.4c-0.3,0.6-0.7,1.2-1.3,1.6S61.5,24.5,60.6,24.5L60.6,24.5z M72,24.5c-0.9,0-1.6-0.2-2.2-0.6
	c-0.6-0.4-1.2-1.1-1.5-1.8c-0.3-0.7-0.5-1.7-0.5-2.9c0-1.1,0.2-2,0.5-2.9c0.3-0.7,0.9-1.4,1.5-1.8c0.6-0.4,1.4-0.6,2.2-0.6
	c0.6,0,1.3,0.2,2,0.5c0.7,0.3,1.2,0.9,1.5,1.7l-0.2,0.1V10h1.6v14.2h-1.5v-2.1v0.1c-0.3,0.7-0.7,1.3-1.4,1.7
	C73.4,24.3,72.8,24.5,72,24.5L72,24.5z M72.4,23.1c0.5,0,1.1-0.1,1.5-0.4c0.4-0.3,0.9-0.7,1.1-1.3c0.3-0.6,0.4-1.4,0.4-2.2
	c0-1.4-0.3-2.5-0.9-3.1c-0.5-0.6-1.3-1-2-1c-0.9,0-1.6,0.3-2.1,1.1c-0.5,0.7-0.9,1.7-0.9,3c0,1.3,0.2,2.2,0.7,3
	C70.8,22.8,71.6,23.1,72.4,23.1L72.4,23.1z M80,24.3V14.1h1.6v10.2H80z M80.9,12.4c-0.3,0-0.6-0.1-1-0.4c-0.3-0.3-0.4-0.5-0.4-1
	s0.1-0.7,0.4-1c0.3-0.2,0.5-0.4,1-0.4c0.4,0,0.7,0.1,1,0.4c0.2,0.2,0.3,0.5,0.3,1c0,0.3-0.1,0.6-0.3,1
	C81.5,12.2,81.2,12.4,80.9,12.4z M89,24.5c-1,0-1.8-0.2-2.6-0.6c-0.7-0.4-1.3-1.1-1.7-1.9c-0.4-0.7-0.6-1.7-0.6-2.8s0.2-2,0.6-2.8
	c0.4-0.9,1-1.4,1.7-1.9c0.7-0.4,1.6-0.6,2.6-0.6s1.8,0.2,2.6,0.6c0.7,0.4,1.3,1.1,1.7,1.9c0.4,0.7,0.6,1.7,0.6,2.8s-0.2,2-0.6,2.8
	c-0.4,0.9-1,1.5-1.7,1.9C90.8,24.3,89.9,24.5,89,24.5z M89,23.1c1,0,1.7-0.3,2.3-1.1c0.5-0.7,0.9-1.7,0.9-3c0-1.3-0.3-2.2-0.9-3
	C90.8,15.4,90,15,89,15c-1,0-1.7,0.3-2.2,1.1c-0.5,0.7-0.9,1.7-0.9,3c0,1.3,0.3,2.2,0.9,3S88,23.1,89,23.1z M104.7,24.5
	c-0.7,0-1.4-0.1-2-0.3c-0.6-0.2-1.1-0.6-1.5-1.1c-0.4-0.5-0.6-1.2-0.7-1.9l1.7-0.3c0.1,0.9,0.3,1.4,0.9,1.8c0.4,0.4,1.1,0.6,1.8,0.6
	s1.3-0.2,1.7-0.5c0.4-0.3,0.6-0.7,0.6-1.3c0-0.4-0.1-0.7-0.4-1.1s-0.7-0.4-1.3-0.5l-1.3-0.2c-0.3-0.1-0.6-0.1-1.1-0.2
	c-0.3-0.1-0.6-0.3-1-0.5c-0.3-0.2-0.5-0.4-0.7-0.7c-0.2-0.3-0.3-0.7-0.3-1.3c0-0.6,0.2-1.2,0.5-1.6c0.3-0.4,0.9-0.7,1.4-1
	c0.5-0.2,1.2-0.3,1.8-0.3c0.7,0,1.4,0.1,1.9,0.3c0.5,0.2,1,0.5,1.3,1c0.3,0.4,0.5,1,0.6,1.5l-1.8,0.3c0-0.4-0.1-0.7-0.3-1.1
	c-0.1-0.3-0.4-0.5-0.7-0.6c-0.3-0.2-0.7-0.2-1.2-0.2c-0.6,0-1.1,0.1-1.5,0.3c-0.4,0.2-0.6,0.6-0.6,1.1c0,0.3,0.1,0.5,0.2,0.7
	c0.1,0.2,0.3,0.3,0.6,0.5c0.3,0.1,0.6,0.2,1.1,0.3l1.3,0.3c0.5,0.1,1.1,0.2,1.5,0.4c0.4,0.2,0.9,0.5,1.1,0.9
	c0.3,0.3,0.4,0.9,0.4,1.5c0,0.6-0.2,1.3-0.5,1.7c-0.3,0.5-0.9,0.9-1.4,1.1C106.2,24.4,105.6,24.5,104.7,24.5L104.7,24.5z
	 M111.2,24.3V14.1h1.6v10.2H111.2z M112,12.3c-0.3,0-0.6-0.1-1-0.4c-0.3-0.3-0.4-0.5-0.4-1s0.1-0.7,0.4-1c0.3-0.2,0.5-0.4,1-0.4
	c0.4,0,0.6,0.1,1,0.4s0.4,0.5,0.4,1c0,0.3-0.1,0.6-0.4,1S112.4,12.3,112,12.3z M119.6,28.3c-1.5,0-2.7-0.2-3.4-0.6
	c-0.7-0.4-1.1-1.1-1.1-2c0-0.5,0.1-1,0.4-1.4c0.3-0.4,0.7-0.7,1.4-1c-0.2-0.1-0.4-0.3-0.5-0.5c-0.1-0.2-0.2-0.5-0.2-0.9
	s0.1-0.6,0.3-1c0.2-0.3,0.5-0.5,1-0.6c-0.5-0.3-0.9-0.7-1.2-1.2c-0.3-0.5-0.4-1.1-0.4-1.8c0-0.7,0.2-1.4,0.5-1.9
	c0.3-0.5,0.7-1,1.4-1.3c0.6-0.3,1.3-0.4,2.1-0.4s1.6,0.1,2.1,0.4c0.6,0.3,1.1,0.6,1.4,1.3c0.3,0.5,0.5,1.2,0.5,1.9
	c0,0.7-0.2,1.4-0.5,1.9c-0.3,0.5-0.9,1-1.4,1.3c-0.6,0.3-1.3,0.4-2.2,0.4h-0.9c-0.7,0-1.2,0.2-1.2,0.7c0,0.4,0.4,0.6,1.2,0.6h2
	c0.9,0,1.5,0.1,1.9,0.3c0.5,0.2,0.9,0.4,1.2,0.7c0.2,0.3,0.4,0.6,0.5,1s0.1,0.6,0.1,1c0,1-0.3,1.7-1.1,2.2c-0.7,0.5-1.9,0.7-3.4,0.7
	L119.6,28.3L119.6,28.3z M119.6,27h0.5c1.9,0,2.9-0.5,2.9-1.7c0-0.4-0.2-0.9-0.5-1.2c-0.3-0.3-1-0.4-1.7-0.4h-1.8
	c-0.6,0-1.2,0.1-1.6,0.4c-0.4,0.2-0.6,0.6-0.6,1.3c0,0.5,0.2,1,0.6,1.3C117.9,26.8,118.6,27,119.6,27L119.6,27z M119.7,19.8
	c0.7,0,1.4-0.2,1.8-0.6c0.4-0.4,0.6-1.1,0.6-1.8c0-0.7-0.2-1.4-0.6-1.8c-0.4-0.4-1.1-0.6-1.8-0.6s-1.4,0.2-1.8,0.6
	c-0.4,0.4-0.6,1.1-0.6,1.8s0.2,1.4,0.6,1.8C118.3,19.6,118.9,19.8,119.7,19.8z M121.4,14.9v-1.1c0-0.4,0.1-0.7,0.4-1.1
	c0.3-0.3,0.6-0.4,1.1-0.4h1.3v1.3h-1.1c-0.2,0-0.3,0-0.3,0.1c-0.1,0.1-0.1,0.2-0.1,0.4v0.6L121.4,14.9L121.4,14.9z M126.7,24.3V14.1
	h1.5v2.3l-0.1-0.4c0.3-0.6,0.7-1.1,1.3-1.5s1.3-0.6,2.1-0.6c0.7,0,1.4,0.1,1.9,0.4s1,0.7,1.2,1.4c0.3,0.6,0.4,1.3,0.4,2.1v6.4h-1.6
	v-6.3c0-0.9-0.2-1.5-0.5-2c-0.3-0.5-1-0.7-1.7-0.7c-0.9,0-1.6,0.3-2.1,1c-0.5,0.6-0.9,1.6-0.9,2.8v5.3L126.7,24.3L126.7,24.3z
	 M140.7,24.5c-0.6,0-1.3-0.1-1.8-0.4c-0.5-0.2-0.9-0.6-1.2-1.1c-0.3-0.4-0.4-1-0.4-1.6c0-0.6,0.2-1.2,0.5-1.7c0.3-0.5,1-1,1.7-1.3
	c0.7-0.3,1.7-0.4,2.9-0.4h1.7l-0.2,0.2v-0.5c0-0.9-0.2-1.5-0.5-1.9c-0.3-0.4-0.9-0.6-1.6-0.6c-0.7,0-1.3,0.2-1.7,0.5
	c-0.4,0.4-0.6,0.9-0.6,1.5l-1.8-0.4c0.1-0.5,0.3-1.1,0.6-1.5c0.3-0.4,0.9-0.9,1.5-1.1c0.6-0.3,1.3-0.4,2.1-0.4c0.9,0,1.5,0.1,2,0.4
	c0.5,0.3,1,0.7,1.2,1.4c0.2,0.6,0.3,1.3,0.3,2.1v4.7c0,0.2,0,0.3,0.1,0.4c0.1,0.1,0.2,0.1,0.4,0.1h0.5v1.3h-1.1
	c-0.4,0-0.7-0.1-1.1-0.4c-0.3-0.3-0.4-0.6-0.4-1.1V22h0.2c-0.1,0.3-0.2,0.5-0.4,0.9c-0.2,0.3-0.4,0.5-0.7,0.7
	c-0.3,0.2-0.6,0.4-1.1,0.5C141.6,24.4,141.1,24.5,140.7,24.5L140.7,24.5z M141,23.1c0.5,0,1-0.1,1.5-0.4c0.4-0.2,0.9-0.6,1.1-1.2
	c0.3-0.5,0.4-1.3,0.4-2.1v-0.1h-1.6c-0.9,0-1.5,0.1-2,0.3s-0.9,0.5-1.1,0.9c-0.2,0.3-0.3,0.6-0.3,1s0.1,0.6,0.2,0.9
	c0.1,0.2,0.3,0.4,0.6,0.6C140.1,23.1,140.6,23.1,141,23.1L141,23.1z M150.2,24.3c-0.4,0-0.7-0.1-1.1-0.4c-0.3-0.3-0.4-0.6-0.4-1.1
	V10h1.6v12.4c0,0.2,0,0.3,0.1,0.4c0.1,0.1,0.2,0.1,0.4,0.1h1v1.3L150.2,24.3L150.2,24.3z"/>
<line class="st3" x1="42.2" y1="731.1" x2="1356.7" y2="731.1"/>
<line class="st3" x1="42.2" y1="602.9" x2="1356.7" y2="602.9"/>
<line class="st3" x1="42.2" y1="474.6" x2="1356.7" y2="474.6"/>
<line class="st2" x1="42.2" y1="436.2" x2="42.2" y2="756.7"/>
<line class="st2" x1="42.2" y1="756.7" x2="1356.7" y2="756.7"/>
<line class="st3" x1="1356.7" y1="436.2" x2="1356.7" y2="756.7"/>
<line class="st3" x1="42.2" y1="436.2" x2="1356.7" y2="436.2"/>
<line class="st2" x1="32.5" y1="731.1" x2="42.2" y2="731.1"/>
<line class="st2" x1="32.5" y1="474.6" x2="42.2" y2="474.6"/>
<path class="st4" d="M43.7,416.3v-13.6h4.9c1.6,0,2.8,0.3,3.6,1c0.7,0.6,1.2,1.6,1.2,2.9c0,1.2-0.4,2.1-1.2,2.8c-0.7,0.6-2,1-3.6,1
	h-3.2v6.1L43.7,416.3L43.7,416.3z M45.4,408.8h3.2c1,0,1.7-0.2,2.2-0.6s0.7-1.1,0.7-1.7c0-0.6-0.2-1.2-0.7-1.7
	c-0.4-0.5-1.3-0.7-2.3-0.7h-3.2L45.4,408.8L45.4,408.8z M57.5,416.3l-2.9-13.6h1.6l2.5,12.4l0,0l3.4-12.4H64l3.4,12.4l0,0l2.5-12.4
	h1.6l-2.9,13.6H66l-3.3-12.4h0.4l-3.3,12.4H57.5L57.5,416.3z M73.4,416.3l0.7-13.6h2.8l3.8,12.4h-0.3l3.8-12.4H87l0.7,13.6h-1.5
	l-0.6-12.4l0,0l-4.1,12.4h-1.9l-4.1-12.4l0,0L75,416.3H73.4L73.4,416.3z M99.6,416.5c-1,0-1.8-0.2-2.5-0.6c-0.6-0.4-1.3-1.1-1.6-1.8
	c-0.4-0.9-0.5-1.7-0.5-2.9c0-1.2,0.2-2,0.5-2.9c0.4-0.9,1-1.4,1.6-1.8c0.7-0.4,1.5-0.6,2.5-0.6c0.7,0,1.4,0.1,1.9,0.4
	c0.5,0.2,1.1,0.6,1.5,1.2c0.4,0.5,0.7,1.1,0.9,1.8l-1.6,0.4c-0.2-0.7-0.5-1.4-1-1.8s-1.1-0.6-1.7-0.6c-1,0-1.7,0.3-2.2,1.1
	s-0.7,1.7-0.7,3c0,1.3,0.2,2.2,0.7,3c0.5,0.7,1.3,1.1,2.2,1.1c0.7,0,1.3-0.2,1.7-0.6c0.4-0.4,0.7-1,1-1.8l1.6,0.4
	c-0.1,0.5-0.3,1-0.6,1.4c-0.2,0.4-0.5,0.7-1,1.1c-0.3,0.3-0.7,0.5-1.3,0.6C100.7,416.4,100.3,416.5,99.6,416.5L99.6,416.5z
	 M108.9,416.5c-0.6,0-1.3-0.1-1.8-0.4c-0.5-0.2-0.9-0.6-1.2-1.1c-0.3-0.4-0.4-1-0.4-1.6c0-0.6,0.2-1.2,0.5-1.7c0.3-0.5,1-1,1.7-1.3
	c0.7-0.3,1.7-0.4,2.9-0.4h1.7l-0.2,0.2v-0.5c0-0.9-0.2-1.5-0.5-1.9c-0.3-0.4-0.9-0.6-1.6-0.6c-0.7,0-1.3,0.2-1.7,0.5
	c-0.4,0.4-0.6,0.9-0.6,1.5l-1.8-0.4c0.1-0.5,0.2-1.1,0.6-1.5c0.4-0.4,0.9-0.9,1.5-1.1c0.6-0.3,1.3-0.4,2.1-0.4s1.5,0.1,2,0.4
	c0.5,0.3,1,0.7,1.2,1.4c0.2,0.6,0.3,1.3,0.3,2.1v4.7c0,0.2,0,0.3,0.1,0.4c0.1,0.1,0.2,0.1,0.4,0.1h0.5v1.3h-1
	c-0.4,0-0.7-0.1-1.1-0.4c-0.3-0.3-0.4-0.6-0.4-1.1V414h0.2c-0.1,0.3-0.2,0.5-0.4,0.9s-0.4,0.5-0.7,0.7c-0.3,0.2-0.6,0.4-1.1,0.5
	C109.9,416.4,109.4,416.5,108.9,416.5L108.9,416.5z M109.3,415.2c0.5,0,1.1-0.1,1.5-0.4c0.4-0.2,0.9-0.6,1.1-1.2
	c0.3-0.5,0.4-1.3,0.4-2.1v-0.1h-1.6c-0.9,0-1.5,0.1-2,0.3s-0.9,0.5-1.1,0.9c-0.2,0.3-0.3,0.6-0.3,1s0.1,0.6,0.2,0.9
	c0.1,0.2,0.3,0.4,0.6,0.6C108.5,415.1,108.8,415.2,109.3,415.2L109.3,415.2z M117,416.3v-10.2h1.5v2.1l-0.1-0.2
	c0.3-0.7,0.7-1.3,1.4-1.6c0.6-0.3,1.3-0.5,1.8-0.5c0.2,0,0.3,0,0.5,0c0.2,0,0.3,0.1,0.5,0.2l-0.2,1.5c-0.3-0.1-0.6-0.2-1.1-0.2
	c-0.2,0-0.5,0-0.7,0.1c-0.3,0.1-0.6,0.2-1,0.5c-0.3,0.2-0.5,0.6-0.7,1.2c-0.2,0.5-0.3,1.2-0.3,2v5.1L117,416.3L117,416.3z
	 M124.8,416.3v-10.2h1.5v2.1V408c0.3-0.7,0.7-1.3,1.4-1.6c0.6-0.3,1.2-0.5,1.8-0.5c0.2,0,0.3,0,0.5,0c0.2,0,0.3,0.1,0.5,0.2
	l-0.2,1.5c-0.3-0.1-0.7-0.2-1.1-0.2c-0.2,0-0.5,0-0.9,0.1c-0.3,0.1-0.6,0.2-1,0.5c-0.3,0.2-0.5,0.6-0.7,1.2s-0.3,1.2-0.3,2v5.1
	L124.8,416.3L124.8,416.3z M132.6,416.3v-10.2h1.6v10.2H132.6z M133.4,404.4c-0.3,0-0.6-0.1-1-0.3c-0.2-0.3-0.4-0.5-0.4-1
	c0-0.4,0.1-0.7,0.4-1c0.3-0.2,0.5-0.4,1-0.4c0.4,0,0.7,0.1,1,0.4c0.2,0.3,0.4,0.5,0.4,1c0,0.3-0.1,0.6-0.4,1
	C134.1,404.3,133.7,404.4,133.4,404.4z M141.4,416.5c-1,0-1.8-0.2-2.6-0.6c-0.7-0.4-1.3-1.1-1.6-1.8c-0.4-0.9-0.5-1.7-0.5-2.9
	c0-1.1,0.2-2,0.5-2.9c0.4-0.9,1-1.4,1.6-1.8c0.7-0.4,1.5-0.6,2.5-0.6c0.5,0,1.1,0.1,1.6,0.2c0.5,0.2,1.1,0.4,1.5,0.9
	c0.4,0.4,0.9,1.1,1.1,1.8c0.3,0.7,0.4,1.7,0.4,2.8h-8.3v-1.3h6.9l-0.4,0.6c0-0.9-0.2-1.6-0.4-2.1s-0.6-1-1-1.2
	c-0.3-0.2-0.9-0.3-1.4-0.3c-0.6,0-1.2,0.2-1.6,0.5c-0.4,0.3-0.7,0.7-1,1.4c-0.2,0.6-0.3,1.4-0.3,2.2c0,1.3,0.2,2.2,0.7,3
	c0.5,0.6,1.3,1.1,2.2,1.1c0.6,0,1.3-0.2,1.7-0.5c0.4-0.3,0.9-0.9,1.1-1.5l1.6,0.5c-0.2,0.6-0.5,1.1-1,1.5s-0.9,0.7-1.5,1
	C142.8,416.4,142.2,416.5,141.4,416.5L141.4,416.5z M148.5,416.3v-10.2h1.5v2.1l-0.1-0.2c0.3-0.7,0.7-1.3,1.4-1.6
	c0.6-0.3,1.2-0.5,1.8-0.5c0.2,0,0.3,0,0.5,0c0.2,0,0.3,0.1,0.5,0.2l-0.2,1.5c-0.3-0.1-0.6-0.2-1.1-0.2c-0.2,0-0.5,0-0.9,0.1
	c-0.3,0.1-0.6,0.2-1,0.5c-0.3,0.2-0.5,0.6-0.7,1.2c-0.2,0.5-0.3,1.2-0.3,2v5.1L148.5,416.3L148.5,416.3z M164.7,416.5
	c-0.9,0-1.6-0.2-2.2-0.6c-0.6-0.4-1.2-1.1-1.5-1.8s-0.5-1.7-0.5-2.9c0-1.1,0.2-2,0.5-2.9c0.3-0.7,0.9-1.4,1.5-1.8
	c0.6-0.4,1.4-0.6,2.2-0.6c0.6,0,1.3,0.2,2,0.5c0.7,0.3,1.2,0.9,1.5,1.7l-0.2,0.1v-6.1h1.6v14.2h-1.5v-2.1v0.1
	c-0.3,0.7-0.7,1.3-1.4,1.7C166,416.3,165.4,416.5,164.7,416.5L164.7,416.5z M165.1,415.2c0.5,0,1.1-0.1,1.5-0.4
	c0.4-0.3,0.7-0.7,1.1-1.3c0.3-0.6,0.4-1.4,0.4-2.2c0-1.4-0.3-2.5-0.9-3.1s-1.3-1-2-1c-0.9,0-1.5,0.3-2.1,1.1c-0.5,0.7-0.9,1.7-0.9,3
	s0.2,2.2,0.7,3C163.5,414.8,164.1,415.2,165.1,415.2L165.1,415.2z M176,416.5c-0.7,0-1.3-0.1-1.8-0.4c-0.5-0.3-1-0.7-1.2-1.4
	c-0.3-0.6-0.4-1.3-0.4-2.1v-6.4h1.6v6.3c0,0.9,0.2,1.5,0.5,2c0.3,0.5,0.9,0.7,1.7,0.7c0.6,0,1.2-0.1,1.6-0.4s0.7-0.7,1.1-1.4
	c0.2-0.6,0.3-1.4,0.3-2.3v-4.9h1.6v10.2h-1.5v-2.3l0.1,0.4c-0.2,0.6-0.6,1.2-1.3,1.6C177.6,416.3,176.8,416.5,176,416.5L176,416.5z
	 M186.1,416.3c-0.4,0-0.7-0.1-1.1-0.4c-0.3-0.3-0.4-0.6-0.4-1.1v-7.5H183v-1.3h1.6v-2.1l1.6-0.3v2.5h2v1.3h-2v7c0,0.2,0,0.3,0.1,0.4
	c0.1,0.1,0.2,0.1,0.4,0.1h1.6v1.3L186.1,416.3L186.1,416.3z M191,420v-1.3h1.6c0.1,0,0.2,0,0.2-0.1c0.1-0.1,0.1-0.2,0.2-0.3l0.7-2.1
	l-0.2,0.7l-4.2-10.8h1.8l3.3,9.5l-0.3-0.1l3.3-9.4h1.8l-4.9,12.8c-0.1,0.3-0.3,0.6-0.6,0.9c-0.3,0.2-0.6,0.3-1,0.3L191,420L191,420z
	 M210.2,416.5c-1,0-1.8-0.2-2.5-0.6c-0.6-0.4-1.3-1.1-1.6-1.8c-0.4-0.9-0.5-1.7-0.5-2.9c0-1.2,0.2-2,0.5-2.9c0.4-0.9,1-1.4,1.6-1.8
	c0.7-0.4,1.5-0.6,2.5-0.6c0.7,0,1.4,0.1,2,0.4c0.5,0.2,1.1,0.6,1.5,1.2c0.4,0.5,0.6,1.1,0.9,1.8l-1.6,0.4c-0.2-0.7-0.5-1.4-1-1.8
	s-1.1-0.6-1.7-0.6c-1,0-1.7,0.3-2.1,1.1s-0.7,1.7-0.7,3c0,1.3,0.2,2.2,0.7,3c0.5,0.6,1.3,1.1,2.1,1.1c0.7,0,1.3-0.2,1.7-0.6
	c0.4-0.4,0.7-1,1-1.8l1.6,0.4c-0.1,0.5-0.3,1-0.6,1.4c-0.3,0.4-0.6,0.7-1,1.1s-0.7,0.5-1.3,0.6C211.2,416.4,210.7,416.5,210.2,416.5
	L210.2,416.5z M217.2,420v-1.3h1.6c0.1,0,0.2,0,0.2-0.1c0.1-0.1,0.1-0.2,0.2-0.3l0.7-2.1l-0.2,0.7l-4.2-10.8h1.8l3.3,9.5l-0.3-0.1
	l3.3-9.4h1.7l-4.9,12.8c-0.1,0.3-0.3,0.6-0.6,0.9c-0.3,0.2-0.6,0.3-1,0.3L217.2,420L217.2,420z M231.5,416.5c-1,0-1.8-0.2-2.5-0.6
	c-0.6-0.4-1.3-1.1-1.6-1.8c-0.4-0.9-0.5-1.7-0.5-2.9c0-1.2,0.2-2,0.5-2.9c0.4-0.9,1-1.4,1.6-1.8c0.7-0.4,1.5-0.6,2.5-0.6
	c0.7,0,1.4,0.1,2,0.4c0.5,0.2,1.1,0.6,1.5,1.2s0.6,1.1,0.9,1.8l-1.6,0.4c-0.2-0.7-0.5-1.4-1-1.8c-0.4-0.4-1.1-0.6-1.7-0.6
	c-1,0-1.7,0.3-2.1,1.1s-0.7,1.7-0.7,3c0,1.3,0.2,2.2,0.7,3c0.5,0.6,1.3,1.1,2.1,1.1c0.7,0,1.3-0.2,1.7-0.6c0.4-0.4,0.7-1,1-1.8
	l1.6,0.4c-0.1,0.5-0.3,1-0.6,1.4c-0.3,0.4-0.6,0.7-1,1.1c-0.3,0.3-0.7,0.5-1.3,0.6C232.6,416.4,232,416.5,231.5,416.5L231.5,416.5z
	 M239.6,416.3c-0.4,0-0.7-0.1-1.1-0.4c-0.3-0.3-0.4-0.6-0.4-1.1V402h1.6v12.4c0,0.2,0,0.3,0.1,0.4c0.1,0.1,0.2,0.1,0.4,0.1h1v1.3
	L239.6,416.3L239.6,416.3z M247.4,416.5c-1,0-1.8-0.2-2.6-0.6c-0.7-0.4-1.3-1.1-1.6-1.8c-0.4-0.9-0.5-1.7-0.5-2.9
	c0-1.1,0.2-2,0.5-2.9c0.4-0.9,1-1.4,1.6-1.8c0.6-0.4,1.5-0.6,2.5-0.6c0.5,0,1.1,0.1,1.6,0.2c0.5,0.2,1.1,0.4,1.5,0.9
	c0.4,0.4,0.9,1.1,1.1,1.8c0.3,0.7,0.4,1.7,0.4,2.8h-8.3v-1.3h6.9l-0.4,0.6c0-0.9-0.2-1.6-0.4-2.1c-0.2-0.5-0.6-1-1.1-1.2
	c-0.4-0.2-0.9-0.3-1.4-0.3c-0.6,0-1.2,0.2-1.6,0.5c-0.4,0.3-0.7,0.7-1,1.4c-0.2,0.6-0.3,1.4-0.3,2.2c0,1.3,0.2,2.2,0.7,3
	c0.5,0.6,1.3,1.1,2.2,1.1c0.6,0,1.3-0.2,1.7-0.5s0.9-0.9,1.1-1.5l1.6,0.5c-0.2,0.6-0.5,1.1-1,1.5s-0.9,0.7-1.5,1
	C248.7,416.4,248.1,416.5,247.4,416.5L247.4,416.5z M259.9,416.3v-12c0-0.7,0.2-1.3,0.5-1.6c0.3-0.3,1-0.5,1.8-0.5h1.3v1.4H262
	c-0.2,0-0.3,0-0.4,0.1c-0.1,0.1-0.1,0.2-0.1,0.4v12.4L259.9,416.3L259.9,416.3z M258.3,407.3v-1.3h5.4v1.3H258.3z M270.2,416.5
	c-1,0-1.8-0.2-2.6-0.6c-0.7-0.4-1.3-1.1-1.7-1.9c-0.4-0.7-0.6-1.7-0.6-2.8s0.2-2,0.6-2.8c0.4-0.9,1-1.4,1.7-1.9
	c0.7-0.4,1.6-0.6,2.6-0.6c1,0,1.8,0.2,2.6,0.6c0.7,0.4,1.3,1.1,1.7,1.9c0.4,0.7,0.6,1.7,0.6,2.8s-0.2,2-0.6,2.8
	c-0.4,0.9-1,1.5-1.7,1.9C272,416.3,271.2,416.5,270.2,416.5z M270.2,415.2c1,0,1.7-0.3,2.3-1.1c0.5-0.7,0.9-1.7,0.9-3
	c0-1.3-0.3-2.2-0.9-3c-0.5-0.7-1.3-1.1-2.3-1.1c-1,0-1.7,0.3-2.2,1.1s-0.9,1.7-0.9,3c0,1.3,0.3,2.2,0.9,3
	C268.5,414.8,269.2,415.2,270.2,415.2z M279,416.3c-0.4,0-0.7-0.1-1.1-0.4c-0.3-0.3-0.4-0.6-0.4-1.1V402h1.6v12.4
	c0,0.2,0,0.3,0.1,0.4c0.1,0.1,0.2,0.1,0.3,0.1h1v1.3L279,416.3L279,416.3z M284.1,416.3c-0.4,0-0.7-0.1-1.1-0.4s-0.4-0.6-0.4-1.1
	V402h1.6v12.4c0,0.2,0,0.3,0.1,0.4c0.1,0.1,0.2,0.1,0.3,0.1h1v1.3L284.1,416.3L284.1,416.3z M291.9,416.5c-1,0-1.8-0.2-2.6-0.6
	c-0.7-0.4-1.3-1.1-1.7-1.9c-0.4-0.7-0.6-1.7-0.6-2.8s0.2-2,0.6-2.8c0.4-0.9,1-1.4,1.7-1.9c0.7-0.4,1.6-0.6,2.6-0.6
	c1,0,1.8,0.2,2.6,0.6c0.7,0.4,1.3,1.1,1.7,1.9c0.4,0.7,0.6,1.7,0.6,2.8s-0.2,2-0.6,2.8c-0.4,0.9-1,1.5-1.7,1.9
	C293.8,416.3,292.9,416.5,291.9,416.5z M291.9,415.2c1,0,1.7-0.3,2.3-1.1c0.5-0.7,0.9-1.7,0.9-3c0-1.3-0.3-2.2-0.9-3
	c-0.5-0.7-1.3-1.1-2.3-1.1c-1,0-1.7,0.3-2.2,1.1s-0.9,1.7-0.9,3c0,1.3,0.3,2.2,0.9,3C290.2,414.8,291,415.2,291.9,415.2z
	 M301.2,416.3l-2.9-10.2h1.7l2.5,9.5h-0.3l2.5-9.5h2l2.5,9.5h-0.3l2.5-9.5h1.7l-2.9,10.2h-2.2l-2.3-9.2h0.3l-2.3,9.2H301.2
	L301.2,416.3z M318.5,416.5c-0.7,0-1.4-0.1-2-0.3c-0.6-0.2-1.1-0.6-1.5-1.1s-0.6-1.2-0.7-1.9l1.7-0.3c0.1,0.9,0.3,1.4,0.9,1.8
	s1.1,0.6,1.8,0.6c0.7,0,1.3-0.2,1.7-0.5s0.6-0.7,0.6-1.3c0-0.4-0.1-0.7-0.4-1.1s-0.7-0.4-1.3-0.5l-1.3-0.2c-0.3-0.1-0.6-0.1-1.1-0.2
	c-0.3-0.1-0.6-0.3-1-0.5c-0.3-0.2-0.5-0.4-0.7-0.7s-0.3-0.7-0.3-1.3c0-0.6,0.2-1.2,0.5-1.6c0.3-0.4,0.9-0.7,1.4-1
	c0.5-0.2,1.2-0.3,1.9-0.3c0.7,0,1.4,0.1,1.9,0.3c0.5,0.2,1,0.5,1.3,1c0.3,0.4,0.5,1,0.6,1.5l-1.7,0.3c0-0.4-0.1-0.7-0.3-1.1
	c-0.2-0.3-0.4-0.5-0.7-0.6c-0.3-0.2-0.7-0.2-1.2-0.2c-0.6,0-1.1,0.1-1.5,0.3c-0.4,0.2-0.6,0.6-0.6,1.1c0,0.3,0.1,0.5,0.2,0.7
	c0.1,0.2,0.3,0.3,0.6,0.5c0.3,0.1,0.6,0.2,1.1,0.3l1.3,0.3c0.5,0.1,1.1,0.2,1.5,0.4c0.4,0.2,0.7,0.5,1.1,0.9
	c0.3,0.3,0.4,0.9,0.4,1.5s-0.2,1.3-0.5,1.7c-0.3,0.5-0.7,0.9-1.4,1.2C320,416.4,319.3,416.5,318.5,416.5L318.5,416.5z M332.6,416.5
	c-0.6,0-1.3-0.1-1.8-0.4c-0.5-0.2-0.9-0.6-1.2-1.1c-0.3-0.4-0.4-1-0.4-1.6c0-0.6,0.2-1.2,0.5-1.7s1-1,1.7-1.3
	c0.7-0.3,1.7-0.4,2.9-0.4h1.7l-0.2,0.2v-0.5c0-0.9-0.2-1.5-0.5-1.9c-0.3-0.4-0.9-0.6-1.6-0.6s-1.3,0.2-1.7,0.5
	c-0.4,0.4-0.6,0.9-0.6,1.5l-1.8-0.4c0.1-0.5,0.2-1.1,0.6-1.5c0.3-0.4,0.9-0.9,1.5-1.1c0.6-0.3,1.3-0.4,2.1-0.4s1.5,0.1,2,0.4
	c0.5,0.3,1,0.7,1.2,1.4s0.3,1.3,0.3,2.1v4.7c0,0.2,0,0.3,0.1,0.4c0.1,0.1,0.2,0.1,0.4,0.1h0.5v1.3h-1c-0.4,0-0.7-0.1-1.1-0.4
	c-0.3-0.3-0.4-0.6-0.4-1.1V414h0.2c-0.1,0.3-0.2,0.5-0.4,0.9s-0.4,0.5-0.7,0.7c-0.3,0.2-0.6,0.4-1.1,0.5
	C333.5,416.4,333.1,416.5,332.6,416.5L332.6,416.5z M332.9,415.2c0.5,0,1.1-0.1,1.5-0.4c0.4-0.2,0.9-0.6,1.1-1.2
	c0.3-0.5,0.4-1.3,0.4-2.1v-0.1h-1.6c-0.9,0-1.5,0.1-2,0.3c-0.4,0.2-0.9,0.5-1.1,0.9c-0.2,0.3-0.3,0.6-0.3,1s0.1,0.6,0.2,0.9
	c0.1,0.2,0.3,0.4,0.6,0.6C332.1,415.1,332.4,415.2,332.9,415.2z M344,416.5c-0.7,0-1.3-0.1-1.8-0.4c-0.5-0.3-1-0.7-1.2-1.4
	c-0.2-0.6-0.4-1.3-0.4-2.1v-6.4h1.6v6.3c0,0.9,0.1,1.5,0.4,2c0.3,0.5,0.9,0.7,1.7,0.7c0.6,0,1.2-0.1,1.6-0.4
	c0.4-0.3,0.9-0.7,1.1-1.4c0.2-0.6,0.3-1.4,0.3-2.3v-4.9h1.6v10.2h-1.5v-2.3l0.1,0.4c-0.3,0.6-0.7,1.2-1.3,1.6
	C345.6,416.3,344.8,416.5,344,416.5L344,416.5z M355.4,416.5c-0.9,0-1.6-0.2-2.1-0.6c-0.5-0.4-1.2-1.1-1.5-1.8s-0.5-1.7-0.5-2.9
	c0-1.1,0.2-2,0.5-2.9c0.3-0.7,0.9-1.4,1.5-1.8c0.6-0.4,1.4-0.6,2.1-0.6c0.6,0,1.3,0.2,2,0.5s1.2,0.9,1.5,1.7l-0.2,0.1v-6.1h1.6v14.2
	h-1.5v-2.1v0.1c-0.3,0.7-0.7,1.3-1.4,1.7C356.8,416.3,356.1,416.5,355.4,416.5L355.4,416.5z M355.8,415.2c0.5,0,1.1-0.1,1.5-0.4
	c0.4-0.3,0.7-0.7,1.1-1.3c0.2-0.6,0.4-1.4,0.4-2.2c0-1.4-0.3-2.5-0.9-3.1s-1.3-1-2-1c-0.9,0-1.5,0.3-2.1,1.1c-0.5,0.7-0.9,1.7-0.9,3
	s0.2,2.2,0.7,3C354.2,414.8,354.9,415.2,355.8,415.2L355.8,415.2z M363.4,416.3v-10.2h1.6v10.2H363.4z M364.2,404.4
	c-0.3,0-0.6-0.1-1-0.3c-0.2-0.3-0.4-0.5-0.4-1c0-0.4,0.1-0.7,0.4-1c0.2-0.2,0.5-0.4,1-0.4c0.4,0,0.6,0.1,1,0.4s0.4,0.5,0.4,1
	c0,0.3-0.1,0.6-0.4,1C364.9,404.3,364.5,404.4,364.2,404.4z M372.3,416.5c-1,0-1.8-0.2-2.6-0.6c-0.7-0.4-1.3-1.1-1.7-1.9
	c-0.4-0.7-0.6-1.7-0.6-2.8s0.2-2,0.6-2.8c0.4-0.9,1-1.4,1.7-1.9c0.7-0.4,1.6-0.6,2.6-0.6c1,0,1.8,0.2,2.6,0.6
	c0.7,0.4,1.3,1.1,1.7,1.9c0.4,0.7,0.6,1.7,0.6,2.8s-0.2,2-0.6,2.8c-0.4,0.9-1,1.5-1.7,1.9C374.1,416.3,373.3,416.5,372.3,416.5z
	 M372.3,415.2c1,0,1.7-0.3,2.2-1.1c0.5-0.7,0.9-1.7,0.9-3c0-1.3-0.3-2.2-0.9-3c-0.5-0.7-1.3-1.1-2.2-1.1c-1,0-1.7,0.3-2.3,1.1
	c-0.5,0.7-0.9,1.7-0.9,3c0,1.3,0.3,2.2,0.9,3C370.6,414.8,371.4,415.2,372.3,415.2z M387.2,416.5c-0.6,0-1.3-0.1-1.8-0.4
	c-0.5-0.2-0.9-0.6-1.2-1.1c-0.3-0.4-0.4-1-0.4-1.6c0-0.6,0.2-1.2,0.5-1.7s1-1,1.7-1.3c0.7-0.3,1.7-0.4,2.9-0.4h1.7l-0.2,0.2v-0.5
	c0-0.9-0.2-1.5-0.5-1.9c-0.3-0.4-0.9-0.6-1.6-0.6c-0.7,0-1.3,0.2-1.7,0.5c-0.4,0.4-0.6,0.9-0.6,1.5l-1.8-0.4
	c0.1-0.5,0.3-1.1,0.6-1.5c0.3-0.4,0.9-0.9,1.5-1.1c0.6-0.3,1.3-0.4,2.1-0.4s1.5,0.1,2,0.4c0.5,0.3,0.9,0.7,1.2,1.4
	c0.3,0.6,0.3,1.3,0.3,2.1v4.7c0,0.2,0,0.3,0.1,0.4c0.1,0.1,0.2,0.1,0.4,0.1h0.5v1.3h-1.1c-0.4,0-0.7-0.1-1.1-0.4
	c-0.3-0.3-0.4-0.6-0.4-1.1V414h0.2c-0.1,0.3-0.2,0.5-0.4,0.9c-0.2,0.3-0.4,0.5-0.7,0.7c-0.3,0.2-0.6,0.4-1.1,0.5
	C388.2,416.4,387.8,416.5,387.2,416.5L387.2,416.5z M387.6,415.2c0.5,0,1-0.1,1.5-0.4c0.4-0.2,0.9-0.6,1.1-1.2
	c0.3-0.5,0.4-1.3,0.4-2.1v-0.1h-1.6c-0.9,0-1.5,0.1-2,0.3c-0.5,0.2-0.9,0.5-1.1,0.9c-0.2,0.3-0.3,0.6-0.3,1s0.1,0.6,0.2,0.9
	c0.1,0.2,0.3,0.4,0.6,0.6C386.8,415.1,387.1,415.2,387.6,415.2L387.6,415.2z M395.3,416.3v-10.2h1.5v1.7c0.2-0.5,0.6-1,1.2-1.4
	c0.5-0.4,1.2-0.5,2-0.5c0.6,0,1.3,0.2,1.8,0.5s0.9,0.9,1.1,1.6c0.3-0.6,0.7-1.2,1.3-1.5c0.5-0.4,1.2-0.5,1.9-0.5
	c1,0,1.7,0.3,2.3,1.1c0.5,0.7,0.9,1.7,0.9,3v6.4h-1.6v-6.3c0-0.5-0.1-1.1-0.2-1.5c-0.1-0.4-0.3-0.7-0.5-1c-0.3-0.2-0.6-0.3-1.2-0.3
	s-1,0.1-1.4,0.4c-0.4,0.3-0.7,0.7-1,1.3s-0.3,1.3-0.3,2v5.3h-1.6v-6.3c0-0.5-0.1-1.1-0.2-1.5c-0.1-0.4-0.3-0.7-0.6-1
	c-0.3-0.2-0.6-0.3-1.1-0.3c-0.5,0-1,0.1-1.4,0.4c-0.4,0.3-0.7,0.7-1,1.3c-0.2,0.5-0.3,1.3-0.3,2v5.3h-1.6L395.3,416.3L395.3,416.3z
	 M412.3,420v-14h1.5v2.1v-0.1c0.3-0.7,0.7-1.3,1.4-1.7c0.6-0.3,1.3-0.5,2-0.5c0.9,0,1.6,0.2,2.2,0.6c0.6,0.4,1.2,1.1,1.5,1.8
	c0.3,0.7,0.5,1.7,0.5,2.9c0,1.1-0.2,2-0.5,2.9c-0.3,0.7-0.9,1.4-1.5,1.8c-0.6,0.4-1.4,0.6-2.1,0.6c-0.6,0-1.3-0.2-2-0.5
	c-0.6-0.3-1.2-1-1.5-1.7l0.1-0.1v5.8L412.3,420L412.3,420z M416.8,415.2c0.9,0,1.6-0.3,2.1-1.1c0.5-0.7,0.9-1.7,0.9-3
	c0-1.3-0.2-2.2-0.7-3c-0.5-0.7-1.3-1.1-2.1-1.1c-0.5,0-1.1,0.1-1.5,0.4s-0.9,0.7-1.1,1.3c-0.3,0.5-0.4,1.4-0.4,2.2
	c0,1.4,0.3,2.3,0.9,3.1C415.3,414.9,415.9,415.2,416.8,415.2L416.8,415.2z M425.2,416.3c-0.4,0-0.7-0.1-1.1-0.4s-0.4-0.6-0.4-1.1
	V402h1.6v12.4c0,0.2,0,0.3,0.1,0.4c0.1,0.1,0.2,0.1,0.4,0.1h1v1.3L425.2,416.3L425.2,416.3z M428.8,416.3v-10.2h1.6v10.2H428.8z
	 M429.7,404.4c-0.3,0-0.6-0.1-1-0.3c-0.2-0.3-0.4-0.5-0.4-1c0-0.4,0.1-0.7,0.4-1c0.2-0.2,0.5-0.4,1-0.4c0.4,0,0.6,0.1,1,0.4
	s0.4,0.5,0.4,1c0,0.3-0.1,0.6-0.4,1C430.3,404.3,430,404.4,429.7,404.4z M435.7,416.3c-0.4,0-0.7-0.1-1.1-0.4s-0.4-0.6-0.4-1.1v-7.5
	h-1.6v-1.3h1.6v-2.1l1.6-0.3v2.5h2v1.3h-2v7c0,0.2,0,0.3,0.1,0.4c0.1,0.1,0.2,0.1,0.4,0.1h1.6v1.3L435.7,416.3L435.7,416.3z
	 M443.4,416.5c-0.7,0-1.4-0.1-1.8-0.4c-0.5-0.3-1-0.7-1.2-1.4c-0.3-0.6-0.4-1.3-0.4-2.1v-6.4h1.6v6.3c0,0.9,0.1,1.5,0.4,2
	s0.9,0.7,1.7,0.7c0.6,0,1.2-0.1,1.6-0.4c0.4-0.3,0.9-0.7,1.1-1.4c0.2-0.6,0.3-1.4,0.3-2.3v-4.9h1.6v10.2h-1.5v-2.3l0.1,0.4
	c-0.3,0.6-0.7,1.2-1.3,1.6C445,416.3,444.3,416.5,443.4,416.5L443.4,416.5z M454.8,416.5c-0.9,0-1.6-0.2-2.1-0.6
	c-0.6-0.4-1.2-1.1-1.5-1.8s-0.5-1.7-0.5-2.9c0-1.1,0.2-2,0.5-2.9c0.3-0.7,0.9-1.4,1.5-1.8c0.6-0.4,1.4-0.6,2.1-0.6
	c0.6,0,1.3,0.2,2,0.5c0.7,0.3,1.2,0.9,1.5,1.7l-0.2,0.1v-6.1h1.6v14.2h-1.5v-2.1v0.1c-0.3,0.7-0.7,1.3-1.4,1.7
	C456.3,416.3,455.6,416.5,454.8,416.5L454.8,416.5z M455.3,415.2c0.5,0,1.1-0.1,1.5-0.4s0.7-0.7,1.1-1.3c0.3-0.6,0.4-1.4,0.4-2.2
	c0-1.4-0.3-2.5-0.9-3.1s-1.3-1-2-1c-0.9,0-1.5,0.3-2.1,1.1c-0.5,0.7-0.9,1.7-0.9,3s0.2,2.2,0.7,3
	C453.7,414.8,454.4,415.2,455.3,415.2z M467,416.5c-1,0-1.8-0.2-2.6-0.6c-0.7-0.4-1.3-1.1-1.6-1.8c-0.4-0.9-0.5-1.7-0.5-2.9
	c0-1.1,0.2-2,0.5-2.9c0.4-0.9,1-1.4,1.6-1.8c0.6-0.4,1.5-0.6,2.5-0.6c0.5,0,1.1,0.1,1.6,0.2c0.5,0.2,1.1,0.4,1.5,0.9
	c0.4,0.4,0.9,1.1,1.1,1.8c0.3,0.7,0.4,1.7,0.4,2.8h-8.3v-1.3h6.9l-0.4,0.6c0-0.9-0.2-1.6-0.4-2.1c-0.2-0.5-0.6-1-1.1-1.2
	c-0.4-0.2-0.9-0.3-1.4-0.3c-0.6,0-1.1,0.2-1.6,0.5c-0.4,0.3-0.7,0.7-1,1.4c-0.2,0.6-0.3,1.4-0.3,2.2c0,1.3,0.2,2.2,0.7,3
	c0.5,0.6,1.3,1.1,2.2,1.1c0.6,0,1.3-0.2,1.7-0.5c0.4-0.3,0.9-0.9,1.1-1.5l1.6,0.5c-0.2,0.6-0.5,1.1-1,1.5c-0.4,0.4-0.9,0.7-1.5,1
	C468.4,416.4,467.7,416.5,467,416.5L467,416.5z"/>
<path class="st4" d="M680.9,391.8v-13.3h-5.3V377h12.5v1.5h-5.3v13.3H680.9L680.9,391.8z M690.3,391.8v-11.1h1.7v11.1H690.3z
	 M691.3,378.9c-0.4,0-0.7-0.1-1.1-0.4c-0.3-0.3-0.4-0.6-0.4-1.1c0-0.4,0.1-0.7,0.4-1.1c0.3-0.3,0.6-0.4,1.1-0.4s0.7,0.1,1.1,0.4
	c0.3,0.3,0.4,0.6,0.4,1.1c0,0.4-0.1,0.7-0.4,1.1C692,378.8,691.6,378.9,691.3,378.9z M695.4,391.8v-11.1h1.6v1.9
	c0.2-0.5,0.6-1.1,1.3-1.5c0.6-0.4,1.3-0.6,2.1-0.6c0.7,0,1.4,0.2,1.9,0.6c0.5,0.4,1,1,1.2,1.7c0.3-0.6,0.9-1.3,1.4-1.7
	c0.6-0.4,1.3-0.6,2.1-0.6c1.1,0,1.9,0.4,2.6,1.2c0.6,0.7,1,1.8,1,3.2v6.9h-1.7V385c0-0.6-0.1-1.2-0.2-1.6c-0.1-0.4-0.3-0.9-0.6-1.1
	c-0.3-0.2-0.7-0.3-1.2-0.3c-0.5,0-1.1,0.2-1.5,0.5c-0.4,0.3-0.7,0.7-1.1,1.4c-0.2,0.6-0.4,1.4-0.4,2.2v5.8h-1.7v-6.8
	c0-0.6-0.1-1.2-0.2-1.6c-0.1-0.4-0.3-0.9-0.6-1.1c-0.3-0.2-0.6-0.3-1.2-0.3s-1.1,0.1-1.5,0.4c-0.4,0.3-0.9,0.7-1.1,1.4
	c-0.2,0.6-0.4,1.4-0.4,2.2v5.8L695.4,391.8L695.4,391.8z M718.4,392c-1.1,0-2-0.2-2.8-0.7c-0.7-0.4-1.4-1.2-1.8-2
	c-0.4-0.9-0.6-1.9-0.6-3.1c0-1.2,0.2-2.2,0.6-3.1c0.4-0.9,1.1-1.6,1.8-2c0.7-0.4,1.6-0.7,2.7-0.7c0.6,0,1.2,0.1,1.8,0.3
	c0.6,0.2,1.2,0.5,1.6,1c0.5,0.4,0.9,1.1,1.2,1.9c0.3,0.7,0.4,1.8,0.4,3.1h-9v-1.4h7.5l-0.5,0.6c0-1-0.2-1.7-0.4-2.3
	c-0.3-0.6-0.6-1.1-1.1-1.3c-0.4-0.3-1-0.4-1.5-0.4c-0.6,0-1.2,0.2-1.7,0.5c-0.4,0.3-0.9,0.9-1.1,1.5c-0.2,0.6-0.3,1.5-0.3,2.3
	c0,1.4,0.3,2.5,0.9,3.2s1.4,1.2,2.5,1.2c0.7,0,1.4-0.2,1.9-0.5s0.9-1,1.2-1.6l1.7,0.5c-0.2,0.6-0.6,1.2-1.1,1.6
	c-0.4,0.4-1,0.9-1.6,1.1C719.7,391.9,719.1,392,718.4,392L718.4,392z"/>
<g id="pwm_wave">
	<path class="st5" d="M42.2,731.1V474.6h4.4v256.5h4.4V474.6h4.6v256.5h4.2V474.6h4.8v256.5h4.1V474.6h4.9v256.5h3.8V474.6h5.1
		v256.5H86V474.6h5.3v256.5h3.4V474.6h5.5v256.5h3.2V474.6h5.8v256.5h3V474.6h6v256.5h2.8V474.6h6.2v256.5h2.6V474.6h6.4v256.5h2.3
		V474.6h6.6v256.5h2.1V474.6h6.8v256.5h1.9V474.6h7v256.5h1.8V474.6h7.1v256.5h1.6V474.6h7.4v256.5h1.4V474.6h7.6v256.5h1.2V474.6
		h7.8v256.5h1.1V474.6h7.9v256.5h0.9V474.6h8.1v256.5h0.6V474.6h8.2v256.5h0.5V474.6h8.3v256.5h0.4V474.6h8.4v256.5h0.3V474.6h8.4
		v256.5h0.3V474.6h8.4v256.5h0.3V474.6h8.4v256.5h0.3V474.6h8.4v256.5h0.3V474.6h8.4v256.5h0.3V474.6h8.4v256.5h0.3V474.6h8.4v256.5
		h0.3V474.6h8.4v256.5h0.3V474.6h8.4v256.5h0.3V474.6h8.4v256.5h0.3V474.6h8.4v256.5h0.4V474.6h8.2v256.5h0.5V474.6h8.1v256.5h0.7
		V474.6h7.8v256.5h1V474.6h7.6v256.5h1.2V474.6h7.4v256.5h1.4V474.6h7v256.5h1.7V474.6h6.7v256.5h2V474.6h6.4v256.5h2.3V474.6h6.1
		v256.5h2.7V474.6h5.8v256.5h3.1V474.6h5.3v256.5h3.4V474.6h4.9v256.5h3.8V474.6h4.5v256.5h4.3V474.6h4.2v256.5h4.7V474.6h3.7v256.5
		h5.1V474.6h3.3v256.5h5.4V474.6h2.9v256.5h5.9V474.6h2.5v256.5h6.3V474.6h2.1v256.5h6.6V474.6h1.7v256.5h7V474.6h1.4v256.5h7.4
		V474.6h1.1v256.5h7.7V474.6h0.9v256.5h8V474.6h0.5v256.5h8.2V474.6h0.3v256.5h8.4V474.6h0.3v256.5h8.4V474.6h0.3v256.5h8.4V474.6
		h0.3v256.5h8.4V474.6h0.3v256.5h8.4V474.6h0.3v256.5h8.4V474.6h0.3v256.5h8.4V474.6h0.3v256.5h8.4V474.6h0.5v256.5h8.3V474.6h0.7
		v256.5h8V474.6h1.1v256.5h7.7V474.6h1.5v256.5h7.4V474.6h1.8v256.5h6.9V474.6h2.3v256.5h6.5V474.6h2.8v256.5h6V474.6h3.3v256.5h5.4
		V474.6h3.8v256.5h4.9V474.6h4.4v256.5h4.4V474.6h4.9v256.5h3.8V474.6h5.4v256.5h3.3V474.6h6v256.5h2.8V474.6h6.5v256.5h2.2V474.6h7
		v256.5h1.8V474.6h7.5v256.5h1.3V474.6h7.8v256.5h1V474.6h8.2v256.5h0.6V474.6h8.4v256.5h0.3V474.6h8.4v256.5h0.3V474.6h8.4v256.5
		h0.3V474.6h8.4v256.5h0.3V474.6h8.4v256.5h0.3V474.6h8.4v256.5h0.3V474.6h8.3v256.5h0.4V474.6h8v256.5h0.7V474.6h7.7v256.5h1.1
		V474.6h7.1v256.5h1.6V474.6h6.7v256.5h2V474.6h6.1v256.5h2.7V474.6h5.5v256.5h3.3V474.6h4.8v256.5h3.9V474.6h4.2v256.5h4.6V474.6
		h3.5v256.5h5.2V474.6h2.9v256.5h5.9V474.6h2.2v256.5h6.5V474.6h1.7v256.5h7V474.6h1.2v256.5h7.6V474.6h0.7v256.5h8V474.6h0.4v256.5
		h8.3V474.6h0.3v256.5h8.4V474.6h0.3v256.5h8.4V474.6h0.3v256.5h8.4V474.6h0.3v256.5h8.4V474.6h0.3v256.5h8.4V474.6h0.6v256.5h8.2
		V474.6h1.1v256.5h7.7V474.6h1.6v256.5h7.2V474.6h2.1v256.5h6.6V474.6h2.8v256.5h6V474.6h3.5v256.5h5.2V474.6h4.3v256.5h4.5V474.6h5
		v256.5h3.7V474.6h5.8v256.5h3V474.6h6.5v256.5h2.2V474.6h7.1v256.5h1.6V474.6h7.7v256.5h1.1V474.6h8.1v256.5h0.6V474.6h8.4v256.5
		h0.3V474.6h8.4v256.5h0.3V474.6h8.4v256.5h0.3V474.6h8.4v256.5h0.3V474.6h8.4v256.5h0.3V474.6h8.1v256.5h0.6V474.6h7.6v256.5h1.2
		V474.6h7v256.5h1.8V474.6h6.3v256.5h2.5V474.6h5.5v256.5h3.3V474.6h4.7v256.5h4.1V474.6h3.8v256.5h4.9V474.6h3v256.5h5.8V474.6h2.2
		v256.5h6.5V474.6h1.5v256.5h7.2V474.6h1v256.5h7.8V474.6h0.5v256.5h8.3V474.6h0.3v256.5h8.4V474.6h0.3v256.5h8.4V474.6h0.3v256.5
		h8.4V474.6h0.3v256.5h8.4V474.6h0.6v256.5h8.1V474.6h1.2v256.5h7.6V474.6h1.8v256.5h6.9V474.6h2.6v256.5h6.2V474.6h3.5v256.5h5.3"
		/>
</g>
<g id="sine_wave">
	<path class="st6" d="M42.2,204.8c34.3-18.8,68-40.4,101.9-61.1c32-19.3,64.4-38,98.4-47.5c53.1-15.9,101.9,0.5,147.2,43.8
		c47.5,43.7,86,106.2,133.5,150.1c48.5,44.8,88.8,37.2,131.4-18c23.5-29.8,43.3-65.3,64.2-99c14.9-23.8,30.2-47.7,48.6-65.2
		c44.7-43.6,79.5,1.7,108.2,53.6c25.7,45.2,46.2,98,76.6,136.6c36.7,45.4,65.5,10.4,89.9-37.1c20.7-39.9,37.1-84.4,58.1-124
		c28.7-54.4,55.1-66.4,86.3-6.9c25.6,48.3,42,106,67.5,154.4c13.6,26.1,33.5,49.4,54.6,24.1c21.9-27.2,34.1-67.3,48-103.6"/>
</g>
<path class="st4" d="M17.8,738.1c-1.6,0-2.8-0.6-3.7-1.8c-0.9-1.3-1.3-3-1.3-5.2c0-2.2,0.4-3.9,1.3-5.2c0.9-1.3,2.1-1.8,3.7-1.8
	c1.6,0,2.8,0.6,3.6,1.8c0.9,1.3,1.3,3,1.3,5.2c0,2.2-0.4,3.9-1.3,5.2C20.5,737.5,19.4,738.1,17.8,738.1z M17.8,736.8
	c1.1,0,1.8-0.5,2.3-1.5c0.5-1,0.9-2.3,0.9-4.3c0-1.9-0.3-3.3-0.9-4.3c-0.5-1-1.3-1.5-2.3-1.5c-1.1,0-1.8,0.5-2.3,1.5
	c-0.5,1-0.9,2.3-0.9,4.3c0,1.9,0.3,3.3,0.9,4.3C15.8,736.3,16.7,736.8,17.8,736.8z"/>
<path class="st4" d="M21.1,481.4v-10.9c-0.5,0.4-1,0.7-1.4,1.1c-0.4,0.3-1,0.5-1.5,0.7v-1.6c0.3-0.1,0.5-0.3,0.9-0.5
	c0.3-0.2,0.6-0.5,1.1-0.9c0.4-0.4,0.9-1,1.4-1.6h1.3v13.6H21.1L21.1,481.4z"/>
</svg>
